<svg width="20" height="20" viewBox="0 0 20 20" fill="none" xmlns="http://www.w3.org/2000/svg">
<g clip-path="url(#clip0_506_21373)">
<path d="M17.5277 13.8864L13.8844 11.4567C13.4221 11.1509 12.8023 11.2515 12.4605 11.688L11.3993 13.0525C11.2629 13.2323 11.015 13.2845 10.8177 13.1749L10.6158 13.0636C9.94658 12.6988 9.11392 12.2447 7.43626 10.5665C5.75861 8.88822 5.30358 8.05493 4.93882 7.38695L4.82813 7.18508C4.71701 6.98781 4.76819 6.73884 4.9481 6.60136L6.31168 5.54043C6.74797 5.19859 6.84875 4.57901 6.54325 4.11653L4.11361 0.473268C3.80052 0.00231438 3.17237 -0.139063 2.68767 0.152304L1.16419 1.06746C0.685504 1.34888 0.33431 1.80465 0.184251 2.33926C-0.364352 4.33816 0.0483563 7.78795 5.13021 12.8704C9.17273 16.9126 12.1822 17.9996 14.2507 17.9996C14.7267 18.0017 15.2009 17.9398 15.6605 17.8155C16.1952 17.6656 16.651 17.3144 16.9323 16.8356L17.8484 15.313C18.1401 14.8282 17.9988 14.1996 17.5277 13.8864ZM17.3315 15.0052L16.4175 16.5287C16.2156 16.8743 15.8877 17.1284 15.5027 17.2378C13.6573 17.7444 10.4334 17.3248 5.55463 12.446C0.675838 7.56721 0.25624 4.34357 0.762872 2.49797C0.872403 2.11243 1.12683 1.78416 1.47285 1.5819L2.99633 0.667934C3.20664 0.541391 3.47927 0.602729 3.61513 0.807097L4.93495 2.7886L6.0427 4.45005C6.17536 4.65065 6.13177 4.91952 5.94252 5.06797L4.57862 6.12889C4.16356 6.44627 4.04503 7.02054 4.30058 7.4763L4.40888 7.67308C4.79224 8.37617 5.26885 9.25083 7.0089 10.9906C8.74894 12.7303 9.62333 13.207 10.3261 13.5903L10.5232 13.6989C10.9789 13.9544 11.5532 13.8359 11.8706 13.4208L12.9315 12.0569C13.08 11.8678 13.3487 11.8242 13.5494 11.9568L17.1924 14.3864C17.3969 14.5222 17.4582 14.7949 17.3315 15.0052Z" fill="white"/>
<path d="M10.2003 3.00174C13.0153 3.00487 15.2964 5.28607 15.2996 8.101C15.2996 8.26667 15.4339 8.40094 15.5995 8.40094C15.7652 8.40094 15.8995 8.26667 15.8995 8.101C15.896 4.95488 13.3465 2.4053 10.2003 2.40186C10.0347 2.40186 9.90039 2.53613 9.90039 2.7018C9.90039 2.86747 10.0347 3.00174 10.2003 3.00174Z" fill="white"/>
<path d="M10.2003 4.80155C12.0217 4.80369 13.4977 6.27968 13.4999 8.10107C13.4999 8.26674 13.6342 8.40101 13.7998 8.40101C13.9655 8.40101 14.0997 8.26674 14.0997 8.10107C14.0973 5.94849 12.3529 4.20412 10.2003 4.20166C10.0347 4.20166 9.90039 4.33594 9.90039 4.5016C9.90039 4.66727 10.0347 4.80155 10.2003 4.80155Z" fill="white"/>
<path d="M10.2003 6.60135C11.0282 6.60234 11.6991 7.27323 11.7001 8.10114C11.7001 8.26681 11.8344 8.40109 12.0001 8.40109C12.1657 8.40109 12.3 8.26681 12.3 8.10114C12.2987 6.94207 11.3594 6.00277 10.2003 6.00146C10.0347 6.00146 9.90039 6.13574 9.90039 6.30141C9.90039 6.46708 10.0347 6.60135 10.2003 6.60135Z" fill="white"/>
</g>
<defs>
<clipPath id="clip0_506_21373">
<rect width="20" height="20" fill="white"/>
</clipPath>
</defs>
</svg>
