<svg width="75" height="75" viewBox="0 0 75 75" fill="none" xmlns="http://www.w3.org/2000/svg" id="dtrans-pin">
<path d="M65.7832 31.25C65.7832 53.125 37.6582 71.875 37.6582 71.875C37.6582 71.875 9.5332 53.125 9.5332 31.25C9.5332 23.7908 12.4964 16.6371 17.7708 11.3626C23.0453 6.08816 30.199 3.125 37.6582 3.125C45.1174 3.125 52.2711 6.08816 57.5456 11.3626C62.82 16.6371 65.7832 23.7908 65.7832 31.25Z" fill="#D51218"/>
<path d="M37.5 40.625C42.6777 40.625 46.875 36.4277 46.875 31.25C46.875 26.0723 42.6777 21.875 37.5 21.875C32.3223 21.875 28.125 26.0723 28.125 31.25C28.125 36.4277 32.3223 40.625 37.5 40.625Z" fill="white" stroke="#D51218" stroke-linecap="round" stroke-linejoin="round"/>
<rect x="21.0391" y="15.8896" width="33.0508" height="31.7797" fill="white"/>
<path d="M26.06 31.716C26.8863 31.716 27.5854 32.3516 27.7125 33.1779L29.4286 32.8601C29.3651 31.716 29.238 27.4575 30.2549 25.805C30.5091 25.3601 31.5261 24.9787 31.8439 24.8516C32.8608 24.2796 34.7676 24.4703 35.8481 24.5974C35.9752 24.1525 36.4202 23.8347 36.9286 23.8347C37.5642 23.8347 38.0727 24.3431 38.0727 24.9787C38.0727 25.6143 37.5642 26.1228 36.9286 26.1228C36.4202 26.1228 36.0388 25.805 35.8481 25.3601C34.7041 25.1694 32.7973 25.0423 32.0346 25.5508C31.5896 25.8686 31.399 27.966 31.4625 29.8728C32.7973 29.555 37.31 28.6016 42.8396 29.8092C42.9668 29.1736 43.5388 28.6652 44.1744 28.5381C43.9202 27.1397 43.6024 25.4236 43.221 24.7245C42.2676 23.0084 38.899 22.3092 38.8354 22.2457H38.7083L37.9456 20.9745C37.1829 20.7203 32.543 19.3855 26.8227 19.5762C26.6956 20.1482 26.2507 20.5931 25.7422 20.7838L26.06 31.716ZM26.8863 24.6609C26.8863 24.5338 26.9498 24.3431 26.9498 24.216C27.3947 21.2287 28.793 19.6397 36.2295 21.6736C28.4752 20.5931 28.0303 21.9279 27.649 24.1525C28.221 23.8982 29.0473 23.644 29.8735 23.5804C30.0007 23.2626 30.382 23.0084 30.7634 23.0084C31.2719 23.0084 31.7168 23.4533 31.7168 23.9618C31.7168 24.4703 31.2719 24.9152 30.7634 24.9152C30.3185 24.9152 30.0007 24.6609 29.8735 24.2796C28.9202 24.3431 27.8396 24.7881 27.3947 25.0423L26.7591 25.3601L26.8863 24.6609Z" fill="#D51218"/>
<path d="M34.5137 38.5802V39.5336C36.4205 39.915 39.3442 40.1692 40.0433 39.4701C40.1704 39.3429 40.1704 39.1523 40.234 38.8345C37.7552 37.754 35.2764 38.3896 34.5137 38.5802Z" fill="#D51218"/>
<path d="M30.8272 47.5421C30.5094 46.9066 30.2552 45.8896 30.0009 44.1099C29.6196 41.504 29.8738 39.7879 30.7636 38.8981C31.0179 38.6438 31.2721 38.5167 31.5264 38.4532C31.3992 38.1989 31.2721 38.0082 31.2086 37.9447C31.0179 37.8811 30.128 37.8176 29.3653 37.754H28.984L26.8865 36.9913L25.234 36.8006L25.3611 34.7667C24.9797 34.576 24.6619 34.1947 24.5348 33.7498L21.6747 32.9871L21.0391 32.7964V38.3896L21.6747 38.771L25.4247 41.1862C25.6153 40.9955 25.8696 40.932 26.1238 40.932C26.7594 40.932 27.2679 41.4405 27.2679 42.076C27.2679 42.7116 26.7594 43.2201 26.1238 43.2201C25.4882 43.2201 24.9797 42.7116 24.9797 42.076C24.9797 41.9489 24.9797 41.8854 25.0433 41.7582L21.6747 39.5972L21.0391 39.2159V48.2413H31.3357C31.3357 48.2413 31.0179 47.9871 30.8272 47.5421Z" fill="#D51218"/>
<path d="M23.6441 19.0676C23.7077 18.3049 24.2797 17.6693 25.0424 17.5422V16.5252V15.8896H20.9746V19.449C21.1017 19.3854 21.6102 19.3219 21.6102 19.3219C22.0551 19.1947 22.6272 19.0676 23.6441 19.0676Z" fill="#D51218"/>
<path d="M24.4713 33.1141C24.5348 32.542 24.9162 32.0971 25.4247 31.8429L25.1704 20.8471C24.5348 20.7836 24.0264 20.3386 23.7721 19.7666C22.5645 19.7666 21.8653 19.9573 21.6747 19.9573L21.0391 20.0844V32.0971L21.6747 32.2878L24.4713 33.1141Z" fill="#D51218"/>
<path d="M50.5938 38.8343C50.848 38.8343 51.4836 38.7708 52.0556 38.7072C52.0556 38.3894 51.9921 38.1352 51.9921 37.8174C51.42 37.9445 50.9115 38.1352 50.7209 38.1987C50.6573 38.3259 50.5938 38.6437 50.5938 38.8343Z" fill="#D51218"/>
<path d="M48.5602 45.1906C48.8144 45.0635 49.0051 44.8728 49.1322 44.6821L46.5898 45.127C47.2254 45.3177 47.9882 45.4448 48.5602 45.1906Z" fill="#D51218"/>
<path d="M30.4444 34.322C31.3342 33.8771 34.0672 34.322 36.991 35.339C37.1816 35.0848 37.4994 34.9576 37.8172 34.9576C38.4528 34.9576 38.9613 35.4661 38.9613 36.1017C38.9613 36.7373 38.4528 37.2458 37.8172 37.2458C37.1816 37.2458 36.6732 36.7373 36.6732 36.1017C36.6732 36.0381 36.6732 36.0381 36.6732 35.9746C33.5588 34.8941 31.2071 34.7034 30.6986 34.9576C30.5715 35.0212 30.4444 35.2119 30.3172 35.4025C31.9698 35.7203 33.4316 36.928 34.4486 37.9449C35.3384 37.6907 37.6901 37.1822 40.1054 38.1356C40.0418 37.6271 39.9147 37.0551 39.8511 36.5466C39.7876 36.0381 39.6605 35.5297 39.5969 35.0212C39.4698 34.1949 39.152 33.5593 38.6435 33.0509C38.1986 32.6059 37.4359 32.4788 37.1181 32.4153H37.0545L30.9528 30.6992H30.8893V30.2542C30.8257 29.6822 30.7621 27.3305 31.1435 25.8687C31.0164 25.9322 30.8893 26.0593 30.8893 26.0593C29.8088 27.7754 30.1266 32.9237 30.1266 32.9873V33.3051L27.6477 33.75C27.4571 34.3856 26.8215 34.8941 26.1223 34.8941H26.0588L25.9316 36.1653L27.0757 36.2924L29.046 37.0551C29.2367 36.1653 29.8088 34.7034 30.4444 34.322Z" fill="#D51218"/>
<path d="M25.6777 15.8896V16.5252V17.6058C26.2498 17.7964 26.7582 18.2413 26.8854 18.8769C33.2413 18.6863 38.2625 20.3388 38.326 20.3388L38.4532 20.4024L39.1523 21.61C39.8515 21.8007 42.8388 22.5634 43.8557 24.343C44.3006 25.1693 44.682 27.0125 44.9362 28.538C45.6354 28.7286 46.1438 29.3642 46.1438 30.1269C46.1438 30.3176 46.0803 30.4447 46.0803 30.6354C47.2879 31.0168 49.0676 31.7159 49.576 32.288C50.2116 32.9871 50.2116 34.9574 50.1481 35.7202C50.7837 35.9108 52.0549 36.2922 52.3727 36.8007C52.754 37.3727 52.754 39.0252 52.754 39.343C52.754 39.343 51.1015 39.5337 50.7837 39.5337C50.2752 39.5337 50.2116 39.4702 50.1481 39.4066C50.021 39.2795 49.9574 39.1524 49.9574 38.8981C49.9574 38.6439 50.021 38.0083 50.3388 37.7541C50.4659 37.6269 50.9743 37.4363 51.8642 37.2456C51.8642 37.182 51.8642 37.182 51.8006 37.182C51.6099 36.9278 50.593 36.5464 49.7032 36.3558L49.4489 36.2922V36.038C49.4489 35.593 49.5125 34.9574 49.4489 34.3854L42.6481 34.449C42.521 34.7668 42.1396 35.021 41.7582 35.021C41.2498 35.021 40.8049 34.5761 40.8049 34.0676C40.8049 33.5591 41.2498 33.1142 41.7582 33.1142C42.2032 33.1142 42.521 33.3685 42.6481 33.7498L49.3854 33.6227C49.3218 33.2413 49.1947 32.86 49.0676 32.7329C48.6862 32.288 47.0972 31.6524 45.7625 31.271C45.4447 31.5888 44.9998 31.843 44.5549 31.843C43.7921 31.843 43.093 31.271 42.9659 30.5083C38.1354 29.4278 34.1311 29.9998 32.3515 30.3812L37.3091 31.7159C37.4998 31.7159 38.5167 31.9066 39.1523 32.5422C39.7879 33.1778 40.1693 33.9405 40.2964 34.8939C40.3599 35.4024 40.4871 35.9108 40.5506 36.4193C40.8684 38.0719 41.1227 39.4066 40.5506 39.9786C40.1057 40.4871 39.0888 40.6142 38.0082 40.6142C36.3557 40.6142 34.4489 40.2329 34.1311 40.1693L33.8769 40.1058L33.9404 38.2625C33.1777 37.5634 31.7159 36.2922 30.1269 36.038C29.9998 36.4193 29.8727 36.8007 29.7455 37.182C30.3811 37.182 31.2074 37.2456 31.5252 37.4363C31.843 37.6269 32.1608 38.3261 32.2879 38.6439L32.4786 39.1524L31.9065 39.0888C31.9065 39.0888 31.5252 39.0888 31.1438 39.4066C30.6989 39.9151 30.1904 41.1227 30.6354 44.0464C30.9532 46.4617 31.3345 47.288 31.5888 47.6693C31.7159 47.86 31.9065 48.1142 32.1608 48.2413H33.3049C33.6227 48.0507 33.8769 47.5422 33.8769 47.5422C34.004 47.3515 34.1311 47.0337 34.1947 46.2074C33.8769 46.0803 33.6227 45.699 33.6227 45.3176C33.6227 44.8091 34.0676 44.3642 34.576 44.3642C35.0845 44.3642 35.5294 44.8091 35.5294 45.3176C35.5294 45.7625 35.2752 46.0803 34.8938 46.2074C34.8303 46.7159 34.7667 47.1608 34.576 47.5422C34.3854 47.9871 34.1311 48.1778 34.1311 48.1778H54.2159V40.1058L53.5803 40.2329C53.3896 40.2329 53.0718 40.2964 52.754 40.36C52.6904 40.932 52.4998 43.093 51.8006 43.7286C51.5464 43.9829 50.9108 44.2371 49.9574 44.4913C49.7667 45.1269 49.3854 45.5719 48.8769 45.8261C48.5591 45.9532 48.2413 46.0168 47.8599 46.0168C47.0337 46.0168 46.1438 45.699 45.3811 45.3812C44.1735 45.5083 42.8388 45.6354 41.3133 45.699C41.2498 46.1439 40.8684 46.4617 40.3599 46.4617C39.8515 46.4617 39.4065 46.0168 39.4065 45.5083C39.4065 44.9998 39.8515 44.5549 40.3599 44.5549C40.6777 44.5549 40.9955 44.7456 41.1862 44.9998C42.7752 44.9363 44.2371 44.8091 45.4447 44.682C45.4447 44.682 45.5718 44.6185 45.5718 44.682C48.9404 44.2371 50.9743 43.6015 51.3557 43.2837C51.7371 42.9024 51.9913 41.4405 52.0549 40.4871C48.3049 41.0591 40.1057 42.2032 37.754 42.2032C37.5633 42.2032 37.4362 42.2032 37.3091 42.2032C36.6735 42.0761 34.3854 41.6312 33.1142 41.3769C33.0506 41.5041 32.9235 41.6312 32.7964 41.7583L32.9235 42.4574C33.1142 44.11 33.0506 45.2541 32.8599 46.0803C32.7964 46.3346 32.3515 47.1608 32.3515 47.0337C32.3515 46.9066 32.415 46.4617 32.4786 46.2074C32.6057 45.4447 32.6693 44.11 32.3515 42.521C32.3515 42.521 32.1608 41.8854 32.2243 41.8854C31.7794 41.8219 31.3981 41.4405 31.3981 40.932C31.3981 40.4235 31.843 39.9786 32.3515 39.9786C32.7964 39.9786 33.1777 40.2964 33.2413 40.6778C34.5125 40.932 36.8642 41.3769 37.4998 41.5041C38.8345 41.6947 49.3854 40.2329 53.7074 39.5973L54.343 39.4702V15.8896H25.6777Z" fill="#D51218"/>
</svg>
