<svg width="33" height="33" viewBox="0 0 33 33" fill="none" xmlns="http://www.w3.org/2000/svg">
<path d="M33 16.5C33 7.38633 25.6137 0 16.5 0C7.38633 0 0 7.38633 0 16.5C0 24.7371 6.03281 31.5627 13.9219 32.8002V21.2695H9.73242V16.5H13.9219V12.8648C13.9219 8.73018 16.384 6.44531 20.1545 6.44531C21.9592 6.44531 23.8477 6.76758 23.8477 6.76758V10.8281H21.7658C19.7162 10.8281 19.0781 12.1011 19.0781 13.4062V16.5H23.6543L22.9228 21.2695H19.0781V32.8002C26.9672 31.5627 33 24.7371 33 16.5Z" fill="url(#paint0_radial_1786_4845)"/>
<path d="M22.9228 21.2695L23.6543 16.5H19.0781V13.4062C19.0781 12.1011 19.7162 10.8281 21.7658 10.8281H23.8477V6.76758C23.8477 6.76758 21.9592 6.44531 20.1545 6.44531C16.384 6.44531 13.9219 8.73018 13.9219 12.8648V16.5H9.73242V21.2695H13.9219V32.8002C14.763 32.9323 15.6234 33 16.5 33C17.3766 33 18.237 32.9323 19.0781 32.8002V21.2695H22.9228Z" fill="white"/>
<defs>
<radialGradient id="paint0_radial_1786_4845" cx="0" cy="0" r="1" gradientUnits="userSpaceOnUse" gradientTransform="translate(16.4581 16.3752) scale(17.5691 15.4729)">
<stop stop-color="#D81719"/>
<stop offset="0.3693" stop-color="#D41719"/>
<stop offset="0.7512" stop-color="#C7181A"/>
<stop offset="1" stop-color="#BA181B"/>
</radialGradient>
</defs>
</svg>
