<svg width="33" height="34" viewBox="0 0 33 34" fill="none" xmlns="http://www.w3.org/2000/svg">
<rect x="2" y="1" width="30" height="32" rx="10" fill="url(#paint0_radial_1786_4837)"/>
<path d="M16.4935 2.97361C20.9 2.97361 21.4173 2.99326 23.1589 3.07186C24.7696 3.14391 25.6405 3.41245 26.2232 3.64169C26.9958 3.94298 27.5458 4.29667 28.122 4.87305C28.6982 5.44944 29.0583 5.99962 29.353 6.7725C29.5756 7.35543 29.8506 8.22655 29.9226 9.8378C30.0012 11.5801 30.0208 12.0975 30.0208 16.5055C30.0208 20.9135 30.0012 21.431 29.9226 23.1732C29.8506 24.7845 29.5821 25.6556 29.353 26.2385C29.0518 27.0114 28.6982 27.5616 28.122 28.138C27.5458 28.7143 26.9958 29.0746 26.2232 29.3693C25.6405 29.592 24.7696 29.8671 23.1589 29.9391C21.4173 30.0177 20.9 30.0374 16.4935 30.0374C12.0869 30.0374 11.5696 30.0177 9.82798 29.9391C8.21726 29.8671 7.34643 29.5986 6.76369 29.3693C5.99107 29.068 5.44107 28.7143 4.86488 28.138C4.28869 27.5616 3.92857 27.0114 3.63393 26.2385C3.41131 25.6556 3.13631 24.7845 3.06429 23.1732C2.98571 21.431 2.96607 20.9135 2.96607 16.5055C2.96607 12.0975 2.98571 11.5801 3.06429 9.8378C3.13631 8.22655 3.40476 7.35543 3.63393 6.7725C3.93512 5.99962 4.28869 5.44944 4.86488 4.87305C5.44107 4.29667 5.99107 3.93643 6.76369 3.64169C7.34643 3.419 8.21726 3.14391 9.82798 3.07186C11.5696 2.98671 12.0869 2.97361 16.4935 2.97361ZM16.4935 0C12.0149 0 11.4518 0.0196494 9.69048 0.098247C7.93571 0.176845 6.7375 0.458486 5.68988 0.864574C4.60298 1.28376 3.68631 1.85359 2.76964 2.77057C1.85298 3.68754 1.28988 4.61106 0.864286 5.69178C0.458333 6.73975 0.176786 7.93836 0.0982143 9.70026C0.0196429 11.4556 0 12.0189 0 16.499C0 20.979 0.0196429 21.5423 0.0982143 23.3042C0.176786 25.0595 0.458333 26.2582 0.864286 27.3127C1.28333 28.3999 1.85298 29.3169 2.76964 30.2339C3.68631 31.1509 4.60952 31.7141 5.68988 32.1399C6.7375 32.546 7.93571 32.8276 9.69702 32.9062C11.4583 32.9848 12.0149 33.0045 16.5 33.0045C20.9851 33.0045 21.5417 32.9848 23.303 32.9062C25.0577 32.8276 26.256 32.546 27.3101 32.1399C28.397 31.7207 29.3137 31.1509 30.2304 30.2339C31.147 29.3169 31.7101 28.3934 32.1357 27.3127C32.5417 26.2647 32.8232 25.0661 32.9018 23.3042C32.9804 21.5423 33 20.9856 33 16.499C33 12.0123 32.9804 11.4556 32.9018 9.69371C32.8232 7.93836 32.5417 6.73975 32.1357 5.68523C31.7167 4.59796 31.147 3.68099 30.2304 2.76402C29.3137 1.84704 28.3905 1.28376 27.3101 0.858024C26.2625 0.451936 25.0643 0.170295 23.303 0.0916972C21.5351 0.0196494 20.972 0 16.4935 0Z" fill="url(#paint1_radial_1786_4837)"/>
<path d="M16.4941 8.02344C11.8191 8.02344 8.02148 11.8158 8.02148 16.4989C8.02148 21.182 11.8191 24.9743 16.4941 24.9743C21.1691 24.9743 24.9667 21.1754 24.9667 16.4989C24.9667 11.8223 21.1691 8.02344 16.4941 8.02344ZM16.4941 22.0007C13.456 22.0007 10.9941 19.538 10.9941 16.4989C10.9941 13.4598 13.456 10.997 16.4941 10.997C19.5322 10.997 21.9941 13.4598 21.9941 16.4989C21.9941 19.538 19.5322 22.0007 16.4941 22.0007Z" fill="#F6F6F6"/>
<path d="M25.2996 9.66799C26.3917 9.66799 27.277 8.7824 27.277 7.68995C27.277 6.59751 26.3917 5.71191 25.2996 5.71191C24.2076 5.71191 23.3223 6.59751 23.3223 7.68995C23.3223 8.7824 24.2076 9.66799 25.2996 9.66799Z" fill="#F6F6F6"/>
<defs>
<radialGradient id="paint0_radial_1786_4837" cx="0" cy="0" r="1" gradientUnits="userSpaceOnUse" gradientTransform="translate(16.962 16.9757) scale(15.9719 15.0954)">
<stop stop-color="#D81719"/>
<stop offset="0.3693" stop-color="#D41719"/>
<stop offset="0.7512" stop-color="#C7181A"/>
<stop offset="1" stop-color="#BA181B"/>
</radialGradient>
<radialGradient id="paint1_radial_1786_4837" cx="0" cy="0" r="1" gradientUnits="userSpaceOnUse" gradientTransform="translate(16.4581 16.4771) scale(17.5691 15.5692)">
<stop stop-color="#D81719"/>
<stop offset="0.3693" stop-color="#D41719"/>
<stop offset="0.7512" stop-color="#C7181A"/>
<stop offset="1" stop-color="#BA181B"/>
</radialGradient>
</defs>
</svg>
