<svg width="18" height="13" viewBox="0 0 18 13" fill="none" xmlns="http://www.w3.org/2000/svg">
<path d="M16.5 0.34375H1.50001C0.672715 0.34375 0 0.932375 0 1.65626V10.8438C0 11.5676 0.672715 12.1562 1.50001 12.1562H16.5C17.3273 12.1562 18 11.5676 18 10.8437V1.65626C18 0.932375 17.3273 0.34375 16.5 0.34375ZM1.50001 0.99999H16.5C16.5553 0.99999 16.604 1.01762 16.6558 1.02758C15.3572 2.06754 11.0511 5.51446 9.54422 6.70244C9.4263 6.79537 9.23625 6.90624 9.00004 6.90624C8.76382 6.90624 8.57377 6.79537 8.45547 6.70214C6.9487 5.51433 2.64238 2.06724 1.34395 1.02764C1.39591 1.01768 1.44471 0.99999 1.50001 0.99999ZM0.749988 10.8437V1.65626C0.749988 1.59197 0.772137 1.53364 0.791965 1.47489C1.7859 2.27088 4.7905 4.67595 6.73871 6.22613C4.79682 7.68568 1.79146 10.1789 0.789609 11.0148C0.771926 10.959 0.749988 10.9044 0.749988 10.8437ZM16.5 11.5H1.50001C1.44011 11.5 1.38684 11.4817 1.33091 11.47C2.36616 10.6065 5.39065 8.09899 7.2984 6.67094C7.5471 6.86834 7.77428 7.04833 7.95336 7.18952C8.26246 7.43371 8.62425 7.56251 9 7.56251C9.37575 7.56251 9.73754 7.43368 10.0463 7.18983C10.2254 7.04857 10.4528 6.86843 10.7016 6.67094C12.6095 8.09884 15.6335 10.6062 16.6691 11.47C16.6132 11.4817 16.56 11.5 16.5 11.5ZM17.25 10.8437C17.25 10.9044 17.2281 10.959 17.2104 11.0148C16.2082 10.1784 13.2032 7.68553 11.2613 6.22616C13.2096 4.67598 16.2137 2.27113 17.208 1.47483C17.2279 1.53358 17.25 1.59194 17.25 1.65623V10.8437Z" fill="white"/>
</svg>
