<svg width="20" height="21" viewBox="0 0 20 21" fill="none" xmlns="http://www.w3.org/2000/svg">
<g clip-path="url(#clip0_1761_4783)">
<path d="M17.5277 14.3864L13.8844 11.9567C13.4221 11.6509 12.8023 11.7515 12.4605 12.188L11.3993 13.5525C11.2629 13.7323 11.015 13.7845 10.8177 13.6749L10.6158 13.5636C9.94658 13.1988 9.11392 12.7447 7.43626 11.0665C5.75861 9.38822 5.30358 8.55493 4.93882 7.88695L4.82813 7.68508C4.71701 7.48781 4.76819 7.23884 4.9481 7.10136L6.31168 6.04043C6.74797 5.69859 6.84875 5.07901 6.54325 4.61653L4.11361 0.973268C3.80052 0.502314 3.17237 0.360937 2.68767 0.652304L1.16419 1.56746C0.685504 1.84888 0.33431 2.30465 0.184251 2.83926C-0.364352 4.83816 0.0483563 8.28795 5.13021 13.3704C9.17273 17.4126 12.1822 18.4996 14.2507 18.4996C14.7267 18.5017 15.2009 18.4398 15.6605 18.3155C16.1952 18.1656 16.651 17.8144 16.9323 17.3356L17.8484 15.813C18.1401 15.3282 17.9988 14.6996 17.5277 14.3864ZM17.3315 15.5052L16.4175 17.0287C16.2156 17.3743 15.8877 17.6284 15.5027 17.7378C13.6573 18.2444 10.4334 17.8248 5.55463 12.946C0.675838 8.06721 0.25624 4.84357 0.762872 2.99797C0.872403 2.61243 1.12683 2.28416 1.47285 2.0819L2.99633 1.16793C3.20664 1.04139 3.47927 1.10273 3.61513 1.3071L4.93495 3.2886L6.0427 4.95005C6.17536 5.15065 6.13177 5.41952 5.94252 5.56797L4.57862 6.62889C4.16356 6.94627 4.04503 7.52054 4.30058 7.9763L4.40888 8.17308C4.79224 8.87617 5.26885 9.75083 7.0089 11.4906C8.74894 13.2303 9.62333 13.707 10.3261 14.0903L10.5232 14.1989C10.9789 14.4544 11.5532 14.3359 11.8706 13.9208L12.9315 12.5569C13.08 12.3678 13.3487 12.3242 13.5494 12.4568L17.1924 14.8864C17.3969 15.0222 17.4582 15.2949 17.3315 15.5052Z" fill="#D51218"/>
<path d="M10.2003 3.50125C13.0153 3.50438 15.2964 5.78558 15.2996 8.60051C15.2996 8.76618 15.4339 8.90046 15.5995 8.90046C15.7652 8.90046 15.8995 8.76618 15.8995 8.60051C15.896 5.45439 13.3465 2.90481 10.2003 2.90137C10.0347 2.90137 9.90039 3.03564 9.90039 3.20131C9.90039 3.36698 10.0347 3.50125 10.2003 3.50125Z" fill="#D51218"/>
<path d="M10.2003 5.30106C12.0217 5.3032 13.4977 6.7792 13.4999 8.60058C13.4999 8.76625 13.6342 8.90053 13.7998 8.90053C13.9655 8.90053 14.0997 8.76625 14.0997 8.60058C14.0973 6.448 12.3529 4.70363 10.2003 4.70117C10.0347 4.70117 9.90039 4.83545 9.90039 5.00112C9.90039 5.16678 10.0347 5.30106 10.2003 5.30106Z" fill="#D51218"/>
<path d="M10.2003 7.10086C11.0282 7.10185 11.6991 7.77274 11.7001 8.60065C11.7001 8.76632 11.8344 8.9006 12.0001 8.9006C12.1657 8.9006 12.3 8.76632 12.3 8.60065C12.2987 7.44158 11.3594 6.50228 10.2003 6.50098C10.0347 6.50098 9.90039 6.63525 9.90039 6.80092C9.90039 6.96659 10.0347 7.10086 10.2003 7.10086Z" fill="#D51218"/>
</g>
<defs>
<clipPath id="clip0_1761_4783">
<path d="M0 0.5H16C18.2091 0.5 20 2.29086 20 4.5V20.5H0V0.5Z" fill="white"/>
</clipPath>
</defs>
</svg>
