<svg width="19" height="12" viewBox="0 0 19 12" fill="none" xmlns="http://www.w3.org/2000/svg">
<path d="M16.9617 0H1.54198C0.691538 0 0 0.588625 0 1.31251V10.5C0 11.2239 0.691538 11.8125 1.54198 11.8125H16.9617C17.8121 11.8125 18.5037 11.2239 18.5037 10.5V1.31251C18.5037 0.588625 17.8121 0 16.9617 0ZM1.54198 0.65624H16.9617C17.0185 0.65624 17.0686 0.673866 17.1219 0.683833C15.7869 1.72379 11.3603 5.17071 9.81128 6.35869C9.69007 6.45162 9.49469 6.56249 9.25187 6.56249C9.00904 6.56249 8.81367 6.45162 8.69206 6.35839C7.14314 5.17058 2.71632 1.72349 1.38156 0.683895C1.43497 0.673928 1.48514 0.65624 1.54198 0.65624ZM0.770974 10.5V1.31251C0.770974 1.24822 0.793742 1.18989 0.814125 1.13114C1.83587 1.92713 4.92454 4.3322 6.92727 5.88238C4.93105 7.34193 1.84158 9.83511 0.811704 10.671C0.793525 10.6152 0.770974 10.5607 0.770974 10.5ZM16.9617 11.1563H1.54198C1.4804 11.1563 1.42565 11.138 1.36815 11.1263C2.43236 10.2628 5.54149 7.75524 7.50262 6.32719C7.75828 6.52459 7.99181 6.70458 8.17591 6.84577C8.49365 7.08996 8.86557 7.21876 9.25183 7.21876C9.6381 7.21876 10.01 7.08993 10.3274 6.84608C10.5115 6.70482 10.7452 6.52468 11.001 6.32719C12.9623 7.75509 16.071 10.2624 17.1355 11.1263C17.078 11.138 17.0233 11.1563 16.9617 11.1563ZM17.7327 10.5C17.7327 10.5606 17.7101 10.6152 17.692 10.671C16.6617 9.83468 13.5726 7.34178 11.5764 5.88241C13.5792 4.33223 16.6674 1.92738 17.6895 1.13108C17.7099 1.18983 17.7327 1.24819 17.7327 1.31248V10.5V10.5Z" fill="#D51218"/>
</svg>
