<svg width="33" height="33" viewBox="0 0 33 33" fill="none" xmlns="http://www.w3.org/2000/svg">
<g clip-path="url(#clip0_1786_4842)">
<path d="M0 15.8125C0 8.35842 0 4.63137 2.31569 2.31569C4.63137 0 8.35842 0 15.8125 0H17.1875C24.6416 0 28.3687 0 30.6843 2.31569C33 4.63137 33 8.35842 33 15.8125V17.1875C33 24.6416 33 28.3687 30.6843 30.6843C28.3687 33 24.6416 33 17.1875 33H15.8125C8.35842 33 4.63137 33 2.31569 30.6843C0 28.3687 0 24.6416 0 17.1875L0 15.8125Z" fill="url(#paint0_radial_1786_4842)"/>
<path fill-rule="evenodd" clip-rule="evenodd" d="M8.93904 10.3125H6.53224C5.84457 10.3125 5.70703 10.6362 5.70703 10.993C5.70703 11.6304 6.523 14.7914 9.50629 18.9722C11.4952 21.8273 14.2973 23.375 16.8471 23.375C18.377 23.375 18.5663 23.0312 18.5663 22.4392V20.2812C18.5663 19.5937 18.7112 19.4565 19.1956 19.4565C19.5527 19.4565 20.1646 19.635 21.5925 21.0116C23.2245 22.6431 23.4935 23.375 24.4114 23.375H26.8182C27.5059 23.375 27.8497 23.0312 27.6513 22.3529C27.4343 21.6768 26.6552 20.6958 25.6213 19.533C25.0603 18.8702 24.2189 18.1565 23.9639 17.7995C23.6069 17.3407 23.7089 17.1367 23.9639 16.7289C23.9639 16.7289 26.8962 12.5991 27.2022 11.197C27.3552 10.6871 27.2022 10.3125 26.4743 10.3125H24.0675C23.4556 10.3125 23.1734 10.6362 23.0204 10.993C23.0204 10.993 21.7965 13.9756 20.0627 15.9131C19.5017 16.4739 19.2467 16.6523 18.9407 16.6523C18.7877 16.6523 18.5662 16.4739 18.5662 15.9641V11.197C18.5662 10.5852 18.3887 10.3125 17.8786 10.3125H14.0965C13.7141 10.3125 13.484 10.5964 13.484 10.8656C13.484 11.4456 14.351 11.5794 14.4403 13.2109V16.7544C14.4403 17.5312 14.3 17.6721 13.994 17.6721C13.1781 17.6721 11.1934 14.6761 10.0162 11.248C9.78556 10.5817 9.55414 10.3125 8.93904 10.3125Z" fill="white"/>
</g>
<defs>
<radialGradient id="paint0_radial_1786_4842" cx="0" cy="0" r="1" gradientUnits="userSpaceOnUse" gradientTransform="translate(16.4581 16.4749) scale(17.5691 15.5671)">
<stop stop-color="#D81719"/>
<stop offset="0.3693" stop-color="#D41719"/>
<stop offset="0.7512" stop-color="#C7181A"/>
<stop offset="1" stop-color="#BA181B"/>
</radialGradient>
<clipPath id="clip0_1786_4842">
<rect width="33" height="33" fill="white"/>
</clipPath>
</defs>
</svg>
