<svg width="20" height="21" viewBox="0 0 20 21" fill="none" xmlns="http://www.w3.org/2000/svg" id="call">
<g clip-path="url(#clip0_506_14341)">
<path d="M17.5277 14.3864L13.8844 11.9567C13.4221 11.6509 12.8023 11.7515 12.4605 12.188L11.3993 13.5525C11.2629 13.7323 11.015 13.7845 10.8177 13.6749L10.6158 13.5636C9.94658 13.1988 9.11392 12.7447 7.43626 11.0665C5.75861 9.38822 5.30358 8.55493 4.93882 7.88695L4.82813 7.68508C4.71701 7.48781 4.76819 7.23884 4.9481 7.10136L6.31168 6.04043C6.74797 5.69859 6.84875 5.07901 6.54325 4.61653L4.11361 0.973268C3.80052 0.502314 3.17237 0.360937 2.68767 0.652304L1.16419 1.56746C0.685504 1.84888 0.33431 2.30465 0.184251 2.83926C-0.364352 4.83816 0.0483563 8.28795 5.13021 13.3704C9.17273 17.4126 12.1822 18.4996 14.2507 18.4996C14.7267 18.5017 15.2009 18.4398 15.6605 18.3155C16.1952 18.1656 16.651 17.8144 16.9323 17.3356L17.8484 15.813C18.1401 15.3282 17.9988 14.6996 17.5277 14.3864ZM17.3315 15.5052L16.4175 17.0287C16.2156 17.3743 15.8877 17.6284 15.5027 17.7378C13.6573 18.2444 10.4334 17.8248 5.55463 12.946C0.675838 8.06721 0.25624 4.84357 0.762872 2.99797C0.872403 2.61243 1.12683 2.28416 1.47285 2.0819L2.99633 1.16793C3.20664 1.04139 3.47927 1.10273 3.61513 1.3071L4.93495 3.2886L6.0427 4.95005C6.17536 5.15065 6.13177 5.41952 5.94252 5.56797L4.57862 6.62889C4.16356 6.94627 4.04503 7.52054 4.30058 7.9763L4.40888 8.17308C4.79224 8.87617 5.26885 9.75083 7.0089 11.4906C8.74894 13.2303 9.62333 13.707 10.3261 14.0903L10.5232 14.1989C10.9789 14.4544 11.5532 14.3359 11.8706 13.9208L12.9315 12.5569C13.08 12.3678 13.3487 12.3242 13.5494 12.4568L17.1924 14.8864C17.3969 15.0222 17.4582 15.2949 17.3315 15.5052Z" fill="#D51218"/>
<path d="M10.1994 3.50174C13.0143 3.50487 15.2955 5.78607 15.2986 8.601C15.2986 8.76667 15.4329 8.90094 15.5986 8.90094C15.7642 8.90094 15.8985 8.76667 15.8985 8.601C15.895 5.45488 13.3455 2.9053 10.1994 2.90186C10.0337 2.90186 9.89941 3.03613 9.89941 3.2018C9.89941 3.36747 10.0337 3.50174 10.1994 3.50174Z" fill="#D51218"/>
<path d="M10.1994 5.30155C12.0207 5.30369 13.4967 6.77968 13.4989 8.60107C13.4989 8.76674 13.6332 8.90101 13.7988 8.90101C13.9645 8.90101 14.0988 8.76674 14.0988 8.60107C14.0963 6.44849 12.3519 4.70412 10.1994 4.70166C10.0337 4.70166 9.89941 4.83594 9.89941 5.0016C9.89941 5.16727 10.0337 5.30155 10.1994 5.30155Z" fill="#D51218"/>
<path d="M10.1994 7.10135C11.0272 7.10234 11.6981 7.77323 11.6991 8.60114C11.6991 8.76681 11.8335 8.90109 11.9991 8.90109C12.1647 8.90109 12.299 8.76681 12.299 8.60114C12.2977 7.44207 11.3584 6.50277 10.1994 6.50146C10.0337 6.50146 9.89941 6.63574 9.89941 6.80141C9.89941 6.96708 10.0337 7.10135 10.1994 7.10135Z" fill="#D51218"/>
</g>
<defs>
<clipPath id="clip0_506_14341">
<rect width="20" height="20" fill="white" transform="translate(0 0.5)"/>
</clipPath>
</defs>
</svg>
