<svg width="123" height="121" viewBox="0 0 123 121" fill="none" xmlns="http://www.w3.org/2000/svg" id="red-car">
<path fill-rule="evenodd" clip-rule="evenodd" d="M106.748 0H109.132V6.19886C111.993 6.67559 114.138 9.05992 114.377 11.921C118.192 11.921 120.338 12.3977 122.006 12.8751C122.006 12.8751 122.472 12.9335 123 13.0211V15.506L121.768 15.2595C121.574 15.2595 121.239 15.2059 120.763 15.1297L120.717 15.1223L120.695 15.1182L120.666 15.1141L120.658 15.1121L120.632 15.1079C120.155 15.0318 119.55 14.9352 118.818 14.8439C118.428 14.795 118.002 14.7474 117.538 14.7053C116.506 14.6116 115.293 14.5437 113.9 14.5437C112.946 16.6897 111.039 18.3589 108.654 18.5973L107.701 59.8447C109.609 60.7981 111.039 62.4667 111.277 64.6127L121.768 61.5132L123 61.1438V63.7665L121.768 64.1359L111.039 66.997C110.562 68.6662 109.37 70.0964 107.939 70.8115L108.416 78.4412L102.217 79.1563L94.3491 82.0181H92.9189L91.5757 82.1281L91.5726 82.1283C89.0908 82.33 86.6091 82.5316 86.0043 82.7332C85.9079 82.8296 85.7734 83.0035 85.6152 83.2384C85.3816 83.5868 85.097 84.071 84.8125 84.6401C85.7659 84.8792 86.7194 85.3559 87.6735 86.3093C91.0113 89.6471 91.9648 96.085 90.5346 105.86C89.5805 112.536 88.627 116.351 87.4352 118.735C87.2783 119.101 87.0983 119.433 86.9129 119.728C86.7092 120.053 86.4987 120.333 86.3051 120.565C86.1612 120.737 86.0274 120.883 85.9119 121H82.9986C83.6723 120.49 84.1979 119.776 84.5741 119.212C85.5276 117.781 86.9585 114.682 88.1503 105.622C89.8195 94.6542 87.9119 90.1239 86.2427 88.2169C84.8125 87.0244 83.3816 87.0244 83.3816 87.0244L81.2363 87.2628L81.9514 85.3559C82.4281 84.1634 83.62 81.5407 84.8125 80.8256C86.0043 80.1105 89.1037 79.8721 91.4881 79.8721L90.0579 75.5802C84.0974 76.5343 78.6136 81.3023 75.7526 83.925L75.9909 90.8396L75.0368 91.078C73.845 91.3164 66.692 92.7466 60.4931 92.7466C56.4402 92.7466 52.625 92.2698 50.9564 90.3629C48.8105 88.2169 49.7639 83.2099 50.9564 77.0111C51.0753 76.0569 51.2539 75.1035 51.4332 74.15C51.6118 73.1965 51.7904 72.2424 51.9099 71.2889C52.3866 67.7121 53.8175 64.851 56.2018 62.4667C58.5855 60.083 62.4007 59.3673 63.1158 59.3673L81.7131 54.3609C75.0368 52.93 60.0164 50.7841 41.8958 54.8376C41.4191 57.6987 38.7964 59.8447 35.9353 59.8447C34.2668 59.8447 32.5975 58.8905 31.4057 57.6987C26.3987 59.1289 20.4382 61.5132 19.0073 63.1825C18.5306 63.6592 18.0539 65.0894 17.8155 66.5203L43.0883 66.997C43.5651 65.5668 44.7569 64.6127 46.4261 64.6127C48.3337 64.6127 50.0023 66.2819 50.0023 68.1895C50.0023 70.0964 48.3337 71.7657 46.4261 71.7657C44.9953 71.7657 43.5651 70.8115 43.0883 69.6197L17.5771 69.3813C17.4128 70.8611 17.4746 72.4543 17.5296 73.8478V73.8682L17.5306 73.8944C17.5547 74.5052 17.5771 75.0747 17.5771 75.5802V76.5343L16.623 76.7727C13.2852 77.4878 9.47066 78.918 8.75489 79.8721C8.63571 79.8721 8.57612 79.8721 8.54633 79.9019C8.51653 79.9317 8.51653 79.9913 8.51653 80.1105C11.855 80.8256 13.7619 81.5407 14.2387 82.0181C15.4312 82.9715 15.6695 85.3559 15.6695 86.3093C15.6695 86.5355 15.6559 86.7351 15.6295 86.9144C15.6179 86.9932 15.603 87.0686 15.586 87.1406C15.5683 87.2139 15.548 87.2839 15.5249 87.3504C15.4067 87.692 15.2166 87.9548 14.9544 88.2169C14.7161 88.4553 14.477 88.6937 12.5701 88.6937C11.3776 88.6937 5.17873 87.9786 5.17873 87.9786C5.17873 86.7861 5.17873 80.5872 6.6096 78.4412C7.80143 76.5343 12.5701 75.1035 14.9544 74.3884C14.7161 71.5273 14.7161 64.1359 17.0997 61.5132C19.0073 59.3673 25.6836 56.7446 30.2132 55.3144C30.2132 55.1195 30.1956 54.9429 30.1704 54.7738C30.1494 54.6359 30.1229 54.5035 30.0964 54.3711L30.0944 54.3609C30.0346 54.0628 29.9748 53.7647 29.9748 53.4068C29.9748 50.5457 31.8824 48.1614 34.5051 47.4463C35.4586 41.7241 36.8895 34.8102 38.558 31.7101C42.2598 25.2328 52.9204 22.3466 55.9458 21.5276L56.2018 21.4583L58.8239 16.928L59.3013 16.6897L59.3284 16.6849L59.4717 16.6462L59.7502 16.5661L59.7753 16.5579C62.8516 15.6642 80.4472 10.5526 102.217 11.2059C102.694 8.82156 104.602 7.153 106.748 6.43723V0ZM105.317 59.3673C102.217 59.3673 99.5945 61.7516 99.1178 64.851L92.6806 63.6592C92.9189 59.3673 93.3957 43.3934 89.5805 37.1938C88.6827 35.6224 85.2458 34.2615 83.8536 33.7107L83.62 33.6177C79.8054 31.4717 72.6524 32.1875 68.5996 32.6642C68.1228 30.995 66.4536 29.8032 64.546 29.8032C62.1623 29.8032 60.2547 31.7101 60.2547 34.0944C60.2547 36.4787 62.1623 38.3863 64.546 38.3863C66.4536 38.3863 67.8845 37.1938 68.5996 35.5253C72.8908 34.8102 80.0438 34.3328 82.9049 36.2404C84.5741 37.4322 85.2892 45.3003 85.0508 52.4533C80.0438 51.2608 63.1158 47.6846 42.3726 52.2149C41.8958 49.8306 39.7505 47.923 37.3662 47.4463C38.3197 42.2009 39.5115 35.7636 40.9424 33.1409C43.98 27.6735 53.552 24.9577 56.5142 24.1177L56.6161 24.0885C56.7865 24.0403 56.9319 23.9988 57.0494 23.9642C57.2524 23.9038 57.3726 23.8637 57.3937 23.8427H57.8704L60.7315 19.074C63.5925 18.1205 80.9973 13.1135 102.456 13.8286C102.932 15.9746 104.602 17.6431 106.509 18.3589L105.317 59.3673ZM73.6066 85.1175V88.6937C66.4536 90.1239 55.4861 91.078 52.8634 88.4553C52.499 88.091 52.4136 87.5875 52.2865 86.8386V86.8385L52.2854 86.8323L52.2107 86.399C52.1917 86.2937 52.1707 86.1844 52.1483 86.071C61.363 82.0541 70.5778 84.3596 73.5278 85.0978L73.6066 85.1175ZM13.2852 86.071C12.3317 86.071 9.9474 85.8326 7.80143 85.5942C7.80143 85.3735 7.80958 85.161 7.82316 84.9532L7.84353 84.6856C7.86526 84.4282 7.8931 84.177 7.92095 83.9257L7.92299 83.9114C7.95966 83.5787 7.99633 83.2452 8.01874 82.8982C8.03165 82.6904 8.03979 82.4772 8.03979 82.2565C9.83231 82.6543 11.4585 83.2191 12.3628 83.5333L12.3629 83.5333L12.3684 83.5352C12.5436 83.5963 12.6917 83.6479 12.8085 83.6866C13.0468 84.1634 13.2852 85.3559 13.2852 86.071ZM88.8654 69.143C85.5276 67.4737 75.2751 69.143 64.3076 72.9575C64.2669 72.9032 64.2241 72.8502 64.1799 72.7986C64.0957 72.6994 64.0054 72.6057 63.911 72.5181C63.7725 72.3911 63.6238 72.2763 63.4676 72.1738C63.2278 72.0162 62.9684 71.8872 62.6968 71.7874C62.4883 71.7106 62.273 71.6509 62.0537 71.6081C61.7759 71.5545 61.4921 71.5273 61.2082 71.5273C58.8239 71.5273 56.9169 73.4342 56.9169 75.8186C56.9169 78.2029 58.8239 80.1105 61.2082 80.1105C63.5925 80.1105 65.5001 78.2029 65.5001 75.8186V75.3418C77.1828 71.2889 86.0043 70.5732 87.9119 71.5273C88.3886 71.7657 88.8654 72.4808 89.3421 73.1958C83.1432 74.3884 77.6595 78.918 73.845 82.7332C70.5072 81.779 61.6849 79.8721 52.625 83.4483C52.7445 82.4969 52.9218 81.487 53.0997 80.4758L53.1017 80.4677C53.281 79.4545 53.4596 78.4412 53.5791 77.4878C53.698 76.5343 53.8766 75.5802 54.0559 74.6267C54.2345 73.6733 54.4131 72.7191 54.5326 71.7657C55.0093 68.6662 56.2012 66.2819 58.1088 64.3743C59.6809 62.8028 62.3097 62.2881 63.6061 62.0348L63.8309 61.99H64.0693L86.9585 55.5527H87.1968V53.8835C87.4352 51.7382 87.6735 42.916 86.2427 37.4322C86.7194 37.6712 87.1968 38.148 87.1968 38.148C91.0487 44.266 90.1631 62.0144 90.0653 63.9641L90.0599 64.0863L90.0579 64.1359V65.3284L99.3562 66.997C100.071 69.3813 102.456 71.2889 105.078 71.2889H105.317L105.793 76.0569L101.502 76.5343L94.1108 79.3954C93.3957 76.0569 91.2497 70.5732 88.8654 69.143ZM102.217 32.9026C102.217 32.6642 102.157 32.3661 102.098 32.068L102.096 32.0557L102.094 32.0468L102.094 32.0467C102.065 31.8997 102.035 31.7534 102.014 31.6143C101.993 31.4778 101.979 31.3488 101.979 31.2333C100.31 20.0275 95.0642 14.067 67.1687 21.6967C96.2567 17.6431 97.9253 22.6502 99.3562 30.995C97.2102 30.0415 94.1108 29.0874 91.0113 28.849C90.5346 27.6572 89.1037 26.7037 87.6735 26.7037C85.7659 26.7037 84.0967 28.3723 84.0967 30.2799C84.0967 32.1875 85.7659 33.856 87.6735 33.856C89.3421 33.856 90.5346 32.9026 91.0113 31.4717C94.5875 31.7101 98.6411 33.3793 100.31 34.3328L102.694 35.5253L102.217 32.9026ZM123 88.1925V85.0931L121.768 85.8326L107.701 94.8925C106.986 94.1774 106.032 93.9391 105.078 93.9391C102.694 93.9391 100.786 95.846 100.786 98.2303C100.786 100.615 102.694 102.522 105.078 102.522C107.463 102.522 109.37 100.615 109.37 98.2303C109.37 98.0619 109.37 97.9234 109.359 97.7937C109.34 97.5553 109.286 97.3468 109.132 97.0385L121.768 88.932L123 88.1925ZM0.608566 91.0223L2.0793 91.3164C2.7944 91.3164 3.9869 91.5547 5.17873 91.7931L5.22694 92.2366C5.50877 94.8823 6.28838 102.187 8.75489 104.43C9.70903 105.383 12.0934 106.337 15.6695 107.291C16.3846 109.675 17.8155 111.344 19.7224 112.297C20.9149 112.775 22.1068 113.013 23.5376 113.013C26.6371 113.013 29.9748 111.821 32.8359 110.629C37.3662 111.105 42.3732 111.582 48.0954 111.821C48.3337 113.49 49.7639 114.682 51.6715 114.682C53.5791 114.682 55.2477 113.013 55.2477 111.105C55.2477 109.198 53.5791 107.529 51.6715 107.529C50.9232 107.529 50.1755 107.811 49.5453 108.257C49.1711 108.521 48.8383 108.843 48.5721 109.198C42.6116 108.959 37.1278 108.483 32.5975 108.006L32.5683 107.992L32.548 107.983L32.4977 107.963C32.4711 107.952 32.4408 107.941 32.4095 107.931C32.392 107.926 32.3742 107.921 32.3565 107.916C32.2383 107.887 32.1208 107.888 32.1208 108.006C19.484 106.337 11.855 103.952 10.4241 102.761C8.99393 101.33 8.03979 95.846 7.80143 92.2698C21.8684 94.4158 52.625 98.7077 61.4466 98.7077H63.1158C64.017 98.5271 65.805 98.176 67.9374 97.7577L68.5323 97.6415L68.5575 97.6368C71.9564 96.9706 76.0582 96.1665 78.852 95.6076C79.0904 96.085 79.5671 96.5618 80.0438 97.0385L79.5671 99.6612C78.852 105.86 79.0904 110.152 79.8054 113.251C79.8808 113.552 80.0988 114.067 80.3616 114.615C80.4988 114.902 80.6482 115.198 80.7963 115.477C81.2621 116.358 81.7131 117.075 81.7131 116.828C81.7131 116.351 81.4747 114.682 81.2363 113.728C80.7589 110.867 80.5205 105.86 81.7131 99.8996C81.7131 99.8996 82.4281 97.5152 82.1898 97.5152C83.8583 97.2769 85.2892 95.846 85.2892 93.9391C85.2892 92.0315 83.62 90.3629 81.7131 90.3629C80.0438 90.3629 78.6136 91.5547 78.3746 92.9849C75.682 93.5239 71.6967 94.2897 68.3085 94.9408L68.304 94.9417L68.0862 94.9835L67.9823 95.0039L67.9313 95.0141L67.1762 95.1587L63.4601 95.8759C63.0329 95.9594 62.6744 96.03 62.4007 96.085C57.3937 96.8001 17.8155 91.3164 1.60257 88.932L0.608566 88.7333V91.0223ZM20.9149 109.913C20.5557 109.734 20.2304 109.52 19.939 109.286C19.4562 108.898 19.0664 108.452 18.769 108.006L28.3056 109.675C25.922 110.39 23.0609 110.867 20.9149 109.913ZM74.8969 121C74.6055 120.734 73.9169 120.015 73.3682 118.735C73.1496 118.298 72.975 117.838 72.8317 117.356C72.7231 116.99 72.6321 116.611 72.5526 116.219C72.4412 115.666 72.3536 115.088 72.2728 114.483C72.2396 114.236 72.2076 113.984 72.1757 113.728C70.7455 113.251 69.7914 112.059 69.7914 110.39C69.7914 108.483 71.4606 106.814 73.3682 106.814C75.2751 106.814 76.9444 108.483 76.9444 110.39C76.9444 111.821 75.9909 113.251 74.7984 113.728C75.0368 116.828 75.5135 118.019 75.9909 118.735C75.9909 118.735 76.1913 119.136 76.5227 119.639C76.8147 120.081 77.2086 120.603 77.6568 121H74.8969Z" fill="#D51218"/>
</svg>
