<svg width="1366" height="1351" viewBox="0 0 1366 1351" fill="none" xmlns="http://www.w3.org/2000/svg">
<path fill-rule="evenodd" clip-rule="evenodd" d="M181.392 0.0400391H154.78V69.2253C122.848 74.5461 98.9043 101.158 96.2439 133.09C53.6625 133.09 29.7115 138.411 11.0887 143.739C11.0887 143.739 5.89682 144.391 0 145.368V173.102L13.7491 170.35C15.9155 170.35 19.6473 169.753 24.9582 168.902L24.9586 168.902L24.9602 168.902L24.9605 168.902L25.4745 168.819L25.7247 168.774L26.043 168.728L26.134 168.706L26.4257 168.659C31.7478 167.81 38.5021 166.731 46.6743 165.712C51.0249 165.166 55.7848 164.635 60.954 164.166C72.4747 163.12 86.0117 162.362 101.565 162.362C112.206 186.313 133.497 204.943 160.108 207.603L170.75 667.964C149.459 678.606 133.497 697.229 130.837 721.18L13.7491 686.587L0 682.464V711.736L13.7491 715.859L133.497 747.791C138.818 766.421 152.12 782.384 168.09 790.365L162.769 875.52L231.954 883.501L319.77 915.441H335.732L350.724 916.669L350.754 916.671C378.455 918.922 406.155 921.172 412.906 923.422C413.982 924.499 415.483 926.439 417.249 929.061C419.856 932.95 423.032 938.354 426.208 944.705C415.566 947.373 404.925 952.694 394.276 963.336C357.023 1000.59 346.381 1072.44 362.343 1181.54C372.993 1256.05 383.634 1298.63 396.936 1325.24C398.687 1329.32 400.695 1333.03 402.765 1336.32C405.038 1339.94 407.388 1343.07 409.548 1345.66C411.155 1347.58 412.648 1349.21 413.937 1350.52H446.453C438.934 1344.82 433.067 1336.86 428.868 1330.56C418.227 1314.59 402.257 1280 388.955 1178.88C370.325 1056.47 391.615 1005.91 410.246 984.626C426.208 971.317 442.178 971.317 442.178 971.317L466.121 973.977L458.14 952.694C452.819 939.385 439.517 910.113 426.208 902.132C412.906 894.15 378.313 891.49 351.702 891.49L367.664 843.588C434.189 854.237 495.393 907.452 527.325 936.724L524.665 1013.9L535.314 1016.56C548.616 1019.22 628.451 1035.18 697.636 1035.18C742.87 1035.18 785.451 1029.86 804.074 1008.58C828.025 984.626 817.384 928.743 804.074 859.558C802.748 848.909 800.754 838.267 798.753 827.626C796.76 816.984 794.766 806.335 793.432 795.693C788.112 755.772 772.142 723.84 745.53 697.229C718.926 670.625 676.345 662.636 668.364 662.636L460.801 606.76C535.314 590.79 702.957 566.839 905.199 612.081C910.52 644.013 939.792 667.964 971.724 667.964C990.347 667.964 1008.98 657.315 1022.28 644.013C1078.16 659.976 1144.69 686.587 1160.66 705.217C1165.98 710.538 1171.3 726.5 1173.96 742.47L891.89 747.791C886.569 731.829 873.267 721.18 854.637 721.18C833.346 721.18 814.723 739.81 814.723 761.101C814.723 782.384 833.346 801.014 854.637 801.014C870.607 801.014 886.569 790.365 891.89 777.063L1176.62 774.403C1178.45 790.918 1177.76 808.7 1177.15 824.253V824.48L1177.14 824.782C1176.87 831.596 1176.62 837.949 1176.62 843.588V854.237L1187.27 856.897C1224.52 864.879 1267.1 880.841 1275.08 891.49C1276.41 891.49 1277.08 891.49 1277.41 891.823C1277.74 892.155 1277.74 892.82 1277.74 894.15C1240.48 902.132 1219.2 910.113 1213.88 915.441C1200.57 926.083 1197.91 952.694 1197.91 963.336C1197.91 965.86 1198.06 968.088 1198.36 970.089C1198.49 970.968 1198.65 971.81 1198.84 972.613C1199.04 973.432 1199.27 974.212 1199.52 974.955C1200.84 978.767 1202.97 981.701 1205.89 984.626C1208.55 987.287 1211.22 989.947 1232.5 989.947C1245.81 989.947 1315 981.966 1315 981.966C1315 968.656 1315 899.471 1299.03 875.52C1285.73 854.237 1232.5 838.267 1205.89 830.286C1208.55 798.354 1208.55 715.859 1181.95 686.587C1160.66 662.636 1086.14 633.364 1035.59 617.402C1035.59 615.227 1035.79 613.256 1036.07 611.369C1036.3 609.835 1036.59 608.362 1036.89 606.889L1036.89 606.882L1036.89 606.874L1036.91 606.76C1037.58 603.433 1038.25 600.105 1038.25 596.111C1038.25 564.179 1016.96 537.567 987.686 529.586C977.045 465.722 961.075 388.555 942.452 353.955C901.137 281.662 782.154 249.45 748.388 240.309L745.53 239.536L716.266 188.973L710.938 186.313L710.635 186.26L709.035 185.828L705.928 184.933L705.647 184.842C671.312 174.868 474.929 117.817 231.954 125.109C226.633 98.4972 205.343 79.8744 181.392 71.8857V0.0400391ZM197.361 662.636C231.954 662.636 261.226 689.247 266.547 723.84L338.392 710.538C335.732 662.636 330.411 484.352 372.993 415.159C383.013 397.62 421.372 382.431 436.91 376.284L439.517 375.246C482.091 351.295 561.926 359.283 607.16 364.604C612.481 345.974 631.111 332.672 652.402 332.672C679.005 332.672 700.296 353.955 700.296 380.567C700.296 407.178 679.005 428.469 652.402 428.469C631.111 428.469 615.141 415.159 607.16 396.536C559.265 388.555 479.431 383.227 447.499 404.518C428.868 417.82 420.887 505.635 423.548 585.47C479.431 572.16 668.364 532.247 899.878 582.809C905.199 556.198 929.143 534.907 955.754 529.586C945.113 471.043 931.811 399.197 915.841 369.925C881.938 308.903 775.105 278.593 742.044 269.217L740.907 268.891C739.004 268.353 737.382 267.89 736.071 267.504C733.805 266.829 732.463 266.382 732.228 266.147H726.908L694.975 212.924C663.043 202.283 468.789 146.399 229.294 154.38C223.973 178.332 205.343 196.954 184.052 204.943L197.361 662.636ZM551.276 950.034V989.947C631.111 1005.91 753.519 1016.56 782.791 987.287C786.857 983.22 787.811 977.601 789.229 969.241L789.241 969.172L790.075 964.336C790.18 963.752 790.292 963.156 790.407 962.549C790.524 961.936 790.646 961.312 790.772 960.675C687.926 915.843 585.081 941.575 552.156 949.814L551.276 950.034ZM1224.52 960.675C1235.16 960.675 1261.77 958.015 1285.73 955.354C1285.73 952.891 1285.63 950.519 1285.48 948.2L1285.26 945.213C1285.01 942.341 1284.7 939.536 1284.39 936.732L1284.37 936.573C1283.96 932.859 1283.55 929.137 1283.3 925.264C1283.16 922.945 1283.07 920.565 1283.07 918.102C1263.06 922.542 1244.91 928.847 1234.81 932.353L1234.75 932.374C1232.8 933.056 1231.15 933.632 1229.84 934.064C1227.18 939.385 1224.52 952.694 1224.52 960.675ZM380.974 771.742C418.227 753.112 532.654 771.742 655.062 814.316C655.517 813.71 655.994 813.118 656.487 812.542C657.427 811.436 658.435 810.39 659.488 809.412C661.035 807.995 662.694 806.714 664.438 805.569C667.113 803.811 670.009 802.371 673.04 801.257C675.367 800.4 677.77 799.733 680.218 799.256C683.318 798.657 686.486 798.354 689.655 798.354C716.266 798.354 737.549 819.637 737.549 846.248C737.549 872.86 716.266 894.15 689.655 894.15C663.043 894.15 641.752 872.86 641.752 846.248V840.927C511.363 795.693 412.906 787.705 391.615 798.354C386.294 801.014 380.974 808.995 375.653 816.976C444.838 830.286 506.042 880.841 548.616 923.422C585.869 912.773 684.334 891.49 785.451 931.403C784.117 920.785 782.139 909.514 780.153 898.228L780.131 898.137C778.13 886.829 776.136 875.52 774.802 864.879C773.476 854.237 771.482 843.588 769.481 832.946C767.488 822.305 765.495 811.656 764.161 801.014C758.84 766.421 745.538 739.81 724.247 718.519C706.701 700.98 677.361 695.235 662.892 692.408L660.383 691.908H657.722L402.257 620.062H399.596V601.432C396.936 577.488 394.276 479.024 410.246 417.82C404.925 420.488 399.596 425.808 399.596 425.808C356.606 494.092 366.489 692.181 367.581 713.941L367.641 715.306L367.664 715.859V729.168L263.886 747.791C255.905 774.403 229.294 795.693 200.022 795.693H197.361L192.041 848.909L239.935 854.237L322.43 886.169C330.411 848.909 354.362 787.705 380.974 771.742ZM231.954 367.265C231.954 364.604 232.621 361.277 233.288 357.949L233.311 357.813L233.331 357.713L233.331 357.711C233.658 356.07 233.983 354.438 234.22 352.886C234.455 351.363 234.614 349.923 234.614 348.634C253.245 223.566 311.788 157.041 623.13 242.196C298.479 196.954 279.856 252.838 263.886 345.974C287.837 335.332 322.43 324.683 357.023 322.023C362.343 308.721 378.313 298.079 394.276 298.079C415.566 298.079 434.197 316.702 434.197 337.993C434.197 359.283 415.566 377.906 394.276 377.906C375.653 377.906 362.343 367.265 357.023 351.295C317.109 353.955 271.867 372.585 253.245 383.227L226.633 396.536L231.954 367.265ZM0 984.354V949.761L13.7491 958.015L170.75 1059.13C178.731 1051.15 189.38 1048.49 200.022 1048.49C226.633 1048.49 247.924 1069.77 247.924 1096.39C247.924 1123 226.633 1144.29 200.022 1144.29C173.41 1144.29 152.12 1123 152.12 1096.39C152.12 1094.51 152.12 1092.96 152.241 1091.51C152.453 1088.85 153.06 1086.52 154.78 1083.08L13.7491 992.608L0 984.354ZM1366 1015.94L1349.59 1019.22C1341.61 1019.22 1328.3 1021.88 1315 1024.54L1314.46 1029.49C1311.31 1059.02 1302.61 1140.54 1275.08 1165.58C1264.43 1176.22 1237.82 1186.86 1197.91 1197.51C1189.93 1224.11 1173.96 1242.74 1152.68 1253.39C1139.37 1258.71 1126.06 1261.38 1110.09 1261.38C1075.5 1261.38 1038.25 1248.07 1006.32 1234.76C955.754 1240.08 899.871 1245.41 836.006 1248.07C833.346 1266.7 817.384 1280 796.093 1280C774.802 1280 756.179 1261.38 756.179 1240.08C756.179 1218.79 774.802 1200.17 796.093 1200.17C804.445 1200.17 812.79 1203.32 819.824 1208.29C824 1211.24 827.714 1214.83 830.685 1218.79C897.21 1216.13 958.414 1210.81 1008.98 1205.49L1009.3 1205.34L1009.53 1205.23L1010.09 1205.01C1010.55 1204.82 1011.11 1204.63 1011.67 1204.49C1012.99 1204.17 1014.3 1204.17 1014.3 1205.49C1155.34 1186.86 1240.48 1160.25 1256.45 1146.95C1272.42 1130.98 1283.07 1069.77 1285.73 1029.86C1128.72 1053.81 785.451 1101.71 686.994 1101.71H668.364C658.306 1099.7 638.349 1095.78 614.55 1091.11L607.91 1089.81L607.63 1089.76C569.695 1082.33 523.915 1073.35 492.733 1067.11C490.072 1072.44 484.752 1077.76 479.431 1083.08L484.752 1112.36C492.733 1181.54 490.072 1229.44 482.091 1264.04C481.25 1267.39 478.817 1273.14 475.884 1279.25C474.353 1282.45 472.685 1285.76 471.033 1288.87C465.833 1298.7 460.801 1306.72 460.801 1303.95C460.801 1298.63 463.461 1280 466.121 1269.36C471.45 1237.42 474.11 1181.54 460.801 1115.02C460.801 1115.02 452.819 1088.4 455.48 1088.4C436.857 1085.74 420.887 1069.77 420.887 1048.49C420.887 1027.2 439.517 1008.58 460.801 1008.58C479.431 1008.58 495.393 1021.88 498.061 1037.84C528.032 1043.84 572.354 1052.36 610.104 1059.61L610.266 1059.64L610.387 1059.67L610.403 1059.67L612.89 1060.15L614.049 1060.38L614.618 1060.49L623.046 1062.1L664.521 1070.11C669.289 1071.04 673.291 1071.83 676.345 1072.44C732.228 1080.42 1173.96 1019.22 1354.91 992.608L1366 990.39V1015.94ZM1139.37 1226.77C1143.38 1224.77 1147.01 1222.39 1150.26 1219.78C1155.65 1215.45 1160 1210.47 1163.32 1205.49L1056.88 1224.11C1083.48 1232.1 1115.42 1237.42 1139.37 1226.77ZM536.875 1350.52C540.127 1347.55 547.813 1339.53 553.937 1325.24C556.377 1320.36 558.325 1315.23 559.925 1309.85C561.137 1305.76 562.153 1301.53 563.04 1297.16C564.283 1290.99 565.261 1284.53 566.163 1277.78C566.534 1275.03 566.89 1272.21 567.246 1269.36C583.209 1264.04 593.858 1250.73 593.858 1232.1C593.858 1210.81 575.228 1192.18 553.937 1192.18C532.654 1192.18 514.023 1210.81 514.023 1232.1C514.023 1248.07 524.665 1264.04 537.975 1269.36C535.314 1303.95 529.993 1317.25 524.665 1325.24C524.665 1325.24 522.429 1329.71 518.73 1335.33C515.471 1340.26 511.075 1346.08 506.073 1350.52H536.875Z" fill="#F6F6F6"/>
</svg>
