<svg width="113" height="74" viewBox="0 0 113 74" fill="none" xmlns="http://www.w3.org/2000/svg">
<path d="M2.5 49.5H1.53417C0.811691 49.5 0.32763 50.2426 0.619252 50.9036L7.5 66.5H22.5H31H60.5H70L73 49.5H70M2.5 49.5L8.24878 39.3291C8.73843 38.4628 9.47546 37.7623 10.3655 37.3172L15.9443 34.5279C16.6385 34.1807 17.4041 34 18.1803 34H19.5M2.5 49.5H28.5M28.5 49.5V44.5M28.5 49.5H70M28.5 44.5V36C28.5 34.8954 27.6046 34 26.5 34H25.5M28.5 44.5H63.5M70 49.5V48.5V44.5H68M68 44.5V1H63.5V5M68 44.5H63.5M63.5 44.5V8M63.5 5H44.5V8H46M63.5 5V8M63.5 8H46M25.5 34H19.5M25.5 34V26M19.5 34V26M19.5 26V22.5C19.5 21.9477 19.9477 21.5 20.5 21.5H24.5C25.0523 21.5 25.5 21.9477 25.5 22.5V26M19.5 26H25.5M17 46H13V42C13 40.8954 13.8954 40 15 40H17M17 46V40M17 46H20.75M17 40H20.75M20.75 40H24.5V46H20.75M20.75 40V46M7.5 54.5H45M46 8V12.5L45.7262 12.6053C43.8468 13.3282 44.038 16.0472 46 16.5V16.5M46 16.5V20.5M46 16.5V16.5C47.1046 16.5 48 15.6046 48 14.5V14.5M46 20.5L35 27M46 20.5L58 27M35 27V38H58V27M35 27H58" stroke="url(#paint0_radial_506_17522)" stroke-linecap="round" stroke-linejoin="round"/>
<path d="M40.5 29V36M44 29V36" stroke="url(#paint1_radial_506_17522)" stroke-linecap="round" stroke-linejoin="round"/>
<path d="M49 29V36M52.5 29V36" stroke="url(#paint2_radial_506_17522)" stroke-linecap="round" stroke-linejoin="round"/>
<path d="M94.5 55V63.5" stroke="url(#paint3_radial_506_17522)" stroke-linecap="round" stroke-linejoin="round"/>
<path d="M71 63.5H97M99 55H103M103 55V48.5H108.5M103 55H109.5M103 55V57.5M99.5 44.5L108.283 45.7547C109.268 45.8954 110 46.7393 110 47.7346V48.5H108.5M108.5 48.5L109.5 55M109.5 55H111C111.552 55 112 55.4477 112 56V57.5M109.5 55V57.5H112M112 57.5V60M112 60V62.5C112 63.0523 111.552 63.5 111 63.5H109.5M112 60H110.5M103 57.5C100.5 57.5 97 60.3 97 63.5M103 57.5C107.5 57.5 109.5 61.5 109.5 63.5M97 63.5H109.5" stroke="url(#paint4_radial_506_17522)" stroke-linecap="round" stroke-linejoin="round"/>
<path d="M68 39.5H99.5V55H72" stroke="url(#paint5_radial_506_17522)" stroke-linecap="round" stroke-linejoin="round"/>
<circle cx="103.25" cy="63.25" r="3.75" fill="white" stroke="url(#paint6_radial_506_17522)"/>
<circle cx="103.25" cy="63.2497" r="0.607143" fill="url(#paint7_radial_506_17522)"/>
<circle cx="86.25" cy="63.25" r="3.75" fill="white" stroke="url(#paint8_radial_506_17522)"/>
<circle cx="86.2497" cy="63.2497" r="0.607143" fill="url(#paint9_radial_506_17522)"/>
<rect x="2" y="64" width="70" height="10" fill="white"/>
<path d="M71.0684 71.0816C68.9833 71.0816 67.9777 70.6515 66.813 70.1533C65.5492 69.6127 64.1167 69 61.3348 69C58.5529 69 57.1206 69.6122 55.8567 70.1532C54.6922 70.6514 53.6856 71.0816 51.5996 71.0816C49.5136 71.0816 48.5089 70.6515 47.3443 70.1533C46.0804 69.6127 44.6479 69 41.866 69C39.0841 69 37.6516 69.613 36.3883 70.1533C35.2238 70.6515 34.2178 71.0816 32.1327 71.0816C30.0477 71.0816 29.0405 70.6513 27.8755 70.1531C26.6119 69.6126 25.1798 69 22.3991 69C19.6185 69 18.186 69.6127 16.9226 70.1532C15.7581 70.6514 14.7523 71.0816 12.6671 71.0816C10.5818 71.0816 9.57464 70.6514 8.40937 70.1532C7.14582 69.613 5.71318 69 2.93159 69C2.68452 69 2.44757 69.0484 2.27286 69.1345C2.09815 69.2206 2 69.3374 2 69.4592C2 69.581 2.09815 69.6978 2.27286 69.7839C2.44757 69.87 2.68452 69.9184 2.93159 69.9184C5.01759 69.9184 6.02356 70.3486 7.18867 70.8468C8.45253 71.3873 9.88517 72 12.6668 72C15.4483 72 16.8799 71.3873 18.1434 70.8468C19.3079 70.3486 20.3136 69.9184 22.3988 69.9184C24.484 69.9184 25.4895 70.3485 26.6542 70.8467C27.918 71.3872 29.3505 72 32.1324 72C34.9143 72 36.3452 71.3878 37.609 70.8469C38.7734 70.3487 39.7799 69.9184 41.866 69.9184C43.9522 69.9184 44.9583 70.3487 46.1233 70.8469C47.387 71.3874 48.819 72 51.5996 72C54.3803 72 55.8139 71.3878 57.0777 70.8468C58.2422 70.3486 59.2488 69.9184 61.3348 69.9184C63.4208 69.9184 64.4271 70.3487 65.5919 70.8469C66.8556 71.3874 68.2878 72 71.0684 72C71.3155 72 71.5524 71.9516 71.7271 71.8655C71.9018 71.7794 72 71.6626 72 71.5408C72 71.419 71.9018 71.3022 71.7271 71.2161C71.5524 71.13 71.3155 71.0816 71.0684 71.0816Z" fill="url(#paint10_radial_506_17522)"/>
<path d="M71.0684 66.0816C68.9833 66.0816 67.9777 65.6515 66.813 65.1533C65.5492 64.6127 64.1167 64 61.3348 64C58.5529 64 57.1206 64.6122 55.8567 65.1532C54.6922 65.6514 53.6856 66.0816 51.5996 66.0816C49.5136 66.0816 48.5089 65.6515 47.3443 65.1533C46.0804 64.6127 44.6479 64 41.866 64C39.0841 64 37.6516 64.613 36.3883 65.1533C35.2238 65.6515 34.2178 66.0816 32.1327 66.0816C30.0477 66.0816 29.0405 65.6513 27.8755 65.1531C26.6119 64.6126 25.1798 64 22.3991 64C19.6185 64 18.186 64.6127 16.9226 65.1532C15.7581 65.6514 14.7523 66.0816 12.6671 66.0816C10.5818 66.0816 9.57464 65.6514 8.40937 65.1532C7.14582 64.613 5.71318 64 2.93159 64C2.68452 64 2.44757 64.0484 2.27286 64.1345C2.09815 64.2206 2 64.3374 2 64.4592C2 64.581 2.09815 64.6978 2.27286 64.7839C2.44757 64.87 2.68452 64.9184 2.93159 64.9184C5.01759 64.9184 6.02356 65.3486 7.18867 65.8468C8.45253 66.3873 9.88517 67 12.6668 67C15.4483 67 16.8799 66.3873 18.1434 65.8468C19.3079 65.3486 20.3136 64.9184 22.3988 64.9184C24.484 64.9184 25.4895 65.3485 26.6542 65.8467C27.918 66.3872 29.3505 67 32.1324 67C34.9143 67 36.3452 66.3878 37.609 65.8469C38.7734 65.3487 39.7799 64.9184 41.866 64.9184C43.9522 64.9184 44.9583 65.3487 46.1233 65.8469C47.387 66.3874 48.819 67 51.5996 67C54.3803 67 55.8139 66.3878 57.0777 65.8468C58.2422 65.3486 59.2488 64.9184 61.3348 64.9184C63.4208 64.9184 64.4271 65.3487 65.5919 65.8469C66.8556 66.3874 68.2878 67 71.0684 67C71.3155 67 71.5524 66.9516 71.7271 66.8655C71.9018 66.7794 72 66.6626 72 66.5408C72 66.419 71.9018 66.3022 71.7271 66.2161C71.5524 66.13 71.3155 66.0816 71.0684 66.0816Z" fill="url(#paint11_radial_506_17522)"/>
<defs>
<radialGradient id="paint0_radial_506_17522" cx="0" cy="0" r="1" gradientUnits="userSpaceOnUse" gradientTransform="translate(36.4074 33.7002) scale(38.865 30.8984)">
<stop stop-color="#D81719"/>
<stop offset="0.3693" stop-color="#D41719"/>
<stop offset="0.7512" stop-color="#C7181A"/>
<stop offset="1" stop-color="#BA181B"/>
</radialGradient>
<radialGradient id="paint1_radial_506_17522" cx="0" cy="0" r="1" gradientUnits="userSpaceOnUse" gradientTransform="translate(42.2456 32.4947) scale(1.86339 3.30212)">
<stop stop-color="#D81719"/>
<stop offset="0.3693" stop-color="#D41719"/>
<stop offset="0.7512" stop-color="#C7181A"/>
<stop offset="1" stop-color="#BA181B"/>
</radialGradient>
<radialGradient id="paint2_radial_506_17522" cx="0" cy="0" r="1" gradientUnits="userSpaceOnUse" gradientTransform="translate(50.7456 32.4947) scale(1.86339 3.30212)">
<stop stop-color="#D81719"/>
<stop offset="0.3693" stop-color="#D41719"/>
<stop offset="0.7512" stop-color="#C7181A"/>
<stop offset="1" stop-color="#BA181B"/>
</radialGradient>
<radialGradient id="paint3_radial_506_17522" cx="0" cy="0" r="1" gradientUnits="userSpaceOnUse" gradientTransform="translate(94.9987 59.2435) scale(0.532397 4.00971)">
<stop stop-color="#D81719"/>
<stop offset="0.3693" stop-color="#D41719"/>
<stop offset="0.7512" stop-color="#C7181A"/>
<stop offset="1" stop-color="#BA181B"/>
</radialGradient>
<radialGradient id="paint4_radial_506_17522" cx="0" cy="0" r="1" gradientUnits="userSpaceOnUse" gradientTransform="translate(91.448 53.9856) scale(21.8283 8.96289)">
<stop stop-color="#D81719"/>
<stop offset="0.3693" stop-color="#D41719"/>
<stop offset="0.7512" stop-color="#C7181A"/>
<stop offset="1" stop-color="#BA181B"/>
</radialGradient>
<radialGradient id="paint5_radial_506_17522" cx="0" cy="0" r="1" gradientUnits="userSpaceOnUse" gradientTransform="translate(83.71 47.2382) scale(16.7705 7.31183)">
<stop stop-color="#D81719"/>
<stop offset="0.3693" stop-color="#D41719"/>
<stop offset="0.7512" stop-color="#C7181A"/>
<stop offset="1" stop-color="#BA181B"/>
</radialGradient>
<radialGradient id="paint6_radial_506_17522" cx="0" cy="0" r="1" gradientUnits="userSpaceOnUse" gradientTransform="translate(103.239 63.2435) scale(4.52537 4.00971)">
<stop stop-color="#D81719"/>
<stop offset="0.3693" stop-color="#D41719"/>
<stop offset="0.7512" stop-color="#C7181A"/>
<stop offset="1" stop-color="#BA181B"/>
</radialGradient>
<radialGradient id="paint7_radial_506_17522" cx="0" cy="0" r="1" gradientUnits="userSpaceOnUse" gradientTransform="translate(103.248 63.2488) scale(0.646482 0.572816)">
<stop stop-color="#D81719"/>
<stop offset="0.3693" stop-color="#D41719"/>
<stop offset="0.7512" stop-color="#C7181A"/>
<stop offset="1" stop-color="#BA181B"/>
</radialGradient>
<radialGradient id="paint8_radial_506_17522" cx="0" cy="0" r="1" gradientUnits="userSpaceOnUse" gradientTransform="translate(86.2392 63.2435) scale(4.52537 4.00971)">
<stop stop-color="#D81719"/>
<stop offset="0.3693" stop-color="#D41719"/>
<stop offset="0.7512" stop-color="#C7181A"/>
<stop offset="1" stop-color="#BA181B"/>
</radialGradient>
<radialGradient id="paint9_radial_506_17522" cx="0" cy="0" r="1" gradientUnits="userSpaceOnUse" gradientTransform="translate(86.2482 63.2488) scale(0.646482 0.572816)">
<stop stop-color="#D81719"/>
<stop offset="0.3693" stop-color="#D41719"/>
<stop offset="0.7512" stop-color="#C7181A"/>
<stop offset="1" stop-color="#BA181B"/>
</radialGradient>
<radialGradient id="paint10_radial_506_17522" cx="0" cy="0" r="1" gradientUnits="userSpaceOnUse" gradientTransform="translate(36.9112 70.4977) scale(37.2678 1.41519)">
<stop stop-color="#D81719"/>
<stop offset="0.3693" stop-color="#D41719"/>
<stop offset="0.7512" stop-color="#C7181A"/>
<stop offset="1" stop-color="#BA181B"/>
</radialGradient>
<radialGradient id="paint11_radial_506_17522" cx="0" cy="0" r="1" gradientUnits="userSpaceOnUse" gradientTransform="translate(36.9112 65.4977) scale(37.2678 1.41519)">
<stop stop-color="#D81719"/>
<stop offset="0.3693" stop-color="#D41719"/>
<stop offset="0.7512" stop-color="#C7181A"/>
<stop offset="1" stop-color="#BA181B"/>
</radialGradient>
</defs>
</svg>
