<svg width="75" height="75" viewBox="0 0 75 75" fill="none" xmlns="http://www.w3.org/2000/svg">
<path d="M65.7842 31.25C65.7842 53.125 37.6592 71.875 37.6592 71.875C37.6592 71.875 9.53418 53.125 9.53418 31.25C9.53418 23.7908 12.4973 16.6371 17.7718 11.3626C23.0463 6.08816 30.2 3.125 37.6592 3.125C45.1184 3.125 52.2721 6.08816 57.5466 11.3626C62.821 16.6371 65.7842 23.7908 65.7842 31.25Z" fill="#D51218"/>
<path d="M37.5 40.625C42.6777 40.625 46.875 36.4277 46.875 31.25C46.875 26.0723 42.6777 21.875 37.5 21.875C32.3223 21.875 28.125 26.0723 28.125 31.25C28.125 36.4277 32.3223 40.625 37.5 40.625Z" fill="white" stroke="#D51218" stroke-linecap="round" stroke-linejoin="round"/>
<rect x="21.0381" y="15.8896" width="33.0508" height="31.7797" fill="white"/>
<path d="M26.059 31.716C26.8853 31.716 27.5844 32.3516 27.7115 33.1779L29.4277 32.8601C29.3641 31.716 29.237 27.4575 30.2539 25.805C30.5082 25.3601 31.5251 24.9787 31.8429 24.8516C32.8599 24.2796 34.7666 24.4703 35.8471 24.5974C35.9743 24.1525 36.4192 23.8347 36.9277 23.8347C37.5632 23.8347 38.0717 24.3431 38.0717 24.9787C38.0717 25.6143 37.5632 26.1228 36.9277 26.1228C36.4192 26.1228 36.0378 25.805 35.8471 25.3601C34.7031 25.1694 32.7963 25.0423 32.0336 25.5508C31.5887 25.8686 31.398 27.966 31.4616 29.8728C32.7963 29.555 37.309 28.6016 42.8387 29.8092C42.9658 29.1736 43.5378 28.6652 44.1734 28.5381C43.9192 27.1397 43.6014 25.4236 43.22 24.7245C42.2666 23.0084 38.898 22.3092 38.8344 22.2457H38.7073L37.9446 20.9745C37.1819 20.7203 32.5421 19.3855 26.8217 19.5762C26.6946 20.1482 26.2497 20.5931 25.7412 20.7838L26.059 31.716ZM26.8853 24.6609C26.8853 24.5338 26.9488 24.3431 26.9488 24.216C27.3938 21.2287 28.7921 19.6397 36.2285 21.6736C28.4743 20.5931 28.0293 21.9279 27.648 24.1525C28.22 23.8982 29.0463 23.644 29.8726 23.5804C29.9997 23.2626 30.381 23.0084 30.7624 23.0084C31.2709 23.0084 31.7158 23.4533 31.7158 23.9618C31.7158 24.4703 31.2709 24.9152 30.7624 24.9152C30.3175 24.9152 29.9997 24.6609 29.8726 24.2796C28.9192 24.3431 27.8387 24.7881 27.3938 25.0423L26.7582 25.3601L26.8853 24.6609Z" fill="#D51218"/>
<path d="M34.5127 38.5802V39.5336C36.4195 39.915 39.3432 40.1692 40.0424 39.4701C40.1695 39.3429 40.1695 39.1523 40.233 38.8345C37.7542 37.754 35.2754 38.3896 34.5127 38.5802Z" fill="#D51218"/>
<path d="M30.8262 47.5426C30.5084 46.907 30.2542 45.8901 30 44.1104C29.6186 41.5045 29.8728 39.7884 30.7627 38.8986C31.0169 38.6443 31.2711 38.5172 31.5254 38.4537C31.3983 38.1994 31.2711 38.0087 31.2076 37.9452C31.0169 37.8816 30.1271 37.8181 29.3644 37.7545H28.983L26.8855 36.9918L25.233 36.8011L25.3601 34.7672C24.9788 34.5765 24.661 34.1952 24.5338 33.7503L21.6737 32.9876L21.0381 32.7969V38.3901L21.6737 38.7714L25.4237 41.1867C25.6144 40.996 25.8686 40.9325 26.1228 40.9325C26.7584 40.9325 27.2669 41.4409 27.2669 42.0765C27.2669 42.7121 26.7584 43.2206 26.1228 43.2206C25.4872 43.2206 24.9788 42.7121 24.9788 42.0765C24.9788 41.9494 24.9788 41.8859 25.0423 41.7587L21.6737 39.5977L21.0381 39.2164V48.2418H31.3347C31.3347 48.2418 31.0169 47.9875 30.8262 47.5426Z" fill="#D51218"/>
<path d="M23.6441 19.0676C23.7077 18.3049 24.2797 17.6693 25.0424 17.5422V16.5252V15.8896H20.9746V19.449C21.1017 19.3854 21.6102 19.3219 21.6102 19.3219C22.0551 19.1947 22.6272 19.0676 23.6441 19.0676Z" fill="#D51218"/>
<path d="M24.4703 33.1141C24.5338 32.542 24.9152 32.0971 25.4237 31.8429L25.1694 20.8471C24.5338 20.7836 24.0254 20.3386 23.7711 19.7666C22.5635 19.7666 21.8644 19.9573 21.6737 19.9573L21.0381 20.0844V32.0971L21.6737 32.2878L24.4703 33.1141Z" fill="#D51218"/>
<path d="M50.5938 38.8343C50.848 38.8343 51.4836 38.7708 52.0556 38.7072C52.0556 38.3894 51.9921 38.1352 51.9921 37.8174C51.42 37.9445 50.9115 38.1352 50.7209 38.1987C50.6573 38.3259 50.5938 38.6437 50.5938 38.8343Z" fill="#D51218"/>
<path d="M48.5592 45.1901C48.8134 45.063 49.0041 44.8723 49.1312 44.6816L46.5889 45.1266C47.2245 45.3172 47.9872 45.4444 48.5592 45.1901Z" fill="#D51218"/>
<path d="M30.4453 34.3215C31.3352 33.8766 34.0682 34.3216 36.9919 35.3385C37.1826 35.0843 37.5004 34.9571 37.8182 34.9571C38.4538 34.9571 38.9623 35.4656 38.9623 36.1012C38.9623 36.7368 38.4538 37.2453 37.8182 37.2453C37.1826 37.2453 36.6741 36.7368 36.6741 36.1012C36.6741 36.0377 36.6741 36.0377 36.6741 35.9741C33.5597 34.8936 31.208 34.7029 30.6996 34.9571C30.5724 35.0207 30.4453 35.2114 30.3182 35.4021C31.9708 35.7199 33.4326 36.9275 34.4496 37.9444C35.3394 37.6902 37.6911 37.1817 40.1063 38.1351C40.0428 37.6266 39.9157 37.0546 39.8521 36.5461C39.7886 36.0377 39.6614 35.5292 39.5979 35.0207C39.4708 34.1944 39.153 33.5588 38.6445 33.0504C38.1996 32.6054 37.4369 32.4783 37.1191 32.4148H37.0555L30.9538 30.6987H30.8902V30.2538C30.8267 29.6817 30.7631 27.33 31.1445 25.8682C31.0174 25.9317 30.8902 26.0588 30.8902 26.0588C29.8097 27.7749 30.1275 32.9232 30.1275 32.9868V33.3046L27.6487 33.7495C27.458 34.3851 26.8224 34.8936 26.1233 34.8936H26.0597L25.9326 36.1648L27.0767 36.2919L29.047 37.0546C29.2377 36.1648 29.8097 34.7029 30.4453 34.3215Z" fill="#D51218"/>
<path d="M25.6777 15.8896V16.5252V17.6058C26.2498 17.7964 26.7582 18.2413 26.8854 18.8769C33.2413 18.6863 38.2625 20.3388 38.326 20.3388L38.4532 20.4024L39.1523 21.61C39.8515 21.8007 42.8388 22.5634 43.8557 24.343C44.3006 25.1693 44.682 27.0125 44.9362 28.538C45.6354 28.7286 46.1438 29.3642 46.1438 30.1269C46.1438 30.3176 46.0803 30.4447 46.0803 30.6354C47.2879 31.0168 49.0676 31.7159 49.576 32.288C50.2116 32.9871 50.2116 34.9574 50.1481 35.7202C50.7837 35.9108 52.0549 36.2922 52.3727 36.8007C52.754 37.3727 52.754 39.0252 52.754 39.343C52.754 39.343 51.1015 39.5337 50.7837 39.5337C50.2752 39.5337 50.2116 39.4702 50.1481 39.4066C50.021 39.2795 49.9574 39.1524 49.9574 38.8981C49.9574 38.6439 50.021 38.0083 50.3388 37.7541C50.4659 37.6269 50.9743 37.4363 51.8642 37.2456C51.8642 37.182 51.8642 37.182 51.8006 37.182C51.6099 36.9278 50.593 36.5464 49.7032 36.3558L49.4489 36.2922V36.038C49.4489 35.593 49.5125 34.9574 49.4489 34.3854L42.6481 34.449C42.521 34.7668 42.1396 35.021 41.7582 35.021C41.2498 35.021 40.8049 34.5761 40.8049 34.0676C40.8049 33.5591 41.2498 33.1142 41.7582 33.1142C42.2032 33.1142 42.521 33.3685 42.6481 33.7498L49.3854 33.6227C49.3218 33.2413 49.1947 32.86 49.0676 32.7329C48.6862 32.288 47.0972 31.6524 45.7625 31.271C45.4447 31.5888 44.9998 31.843 44.5549 31.843C43.7921 31.843 43.093 31.271 42.9659 30.5083C38.1354 29.4278 34.1311 29.9998 32.3515 30.3812L37.3091 31.7159C37.4998 31.7159 38.5167 31.9066 39.1523 32.5422C39.7879 33.1778 40.1693 33.9405 40.2964 34.8939C40.3599 35.4024 40.4871 35.9108 40.5506 36.4193C40.8684 38.0719 41.1227 39.4066 40.5506 39.9786C40.1057 40.4871 39.0888 40.6142 38.0082 40.6142C36.3557 40.6142 34.4489 40.2329 34.1311 40.1693L33.8769 40.1058L33.9404 38.2625C33.1777 37.5634 31.7159 36.2922 30.1269 36.038C29.9998 36.4193 29.8727 36.8007 29.7455 37.182C30.3811 37.182 31.2074 37.2456 31.5252 37.4363C31.843 37.6269 32.1608 38.3261 32.2879 38.6439L32.4786 39.1524L31.9065 39.0888C31.9065 39.0888 31.5252 39.0888 31.1438 39.4066C30.6989 39.9151 30.1904 41.1227 30.6354 44.0464C30.9532 46.4617 31.3345 47.288 31.5888 47.6693C31.7159 47.86 31.9065 48.1142 32.1608 48.2413H33.3049C33.6227 48.0507 33.8769 47.5422 33.8769 47.5422C34.004 47.3515 34.1311 47.0337 34.1947 46.2074C33.8769 46.0803 33.6227 45.699 33.6227 45.3176C33.6227 44.8091 34.0676 44.3642 34.576 44.3642C35.0845 44.3642 35.5294 44.8091 35.5294 45.3176C35.5294 45.7625 35.2752 46.0803 34.8938 46.2074C34.8303 46.7159 34.7667 47.1608 34.576 47.5422C34.3854 47.9871 34.1311 48.1778 34.1311 48.1778H54.2159V40.1058L53.5803 40.2329C53.3896 40.2329 53.0718 40.2964 52.754 40.36C52.6904 40.932 52.4998 43.093 51.8006 43.7286C51.5464 43.9829 50.9108 44.2371 49.9574 44.4913C49.7667 45.1269 49.3854 45.5719 48.8769 45.8261C48.5591 45.9532 48.2413 46.0168 47.8599 46.0168C47.0337 46.0168 46.1438 45.699 45.3811 45.3812C44.1735 45.5083 42.8388 45.6354 41.3133 45.699C41.2498 46.1439 40.8684 46.4617 40.3599 46.4617C39.8515 46.4617 39.4065 46.0168 39.4065 45.5083C39.4065 44.9998 39.8515 44.5549 40.3599 44.5549C40.6777 44.5549 40.9955 44.7456 41.1862 44.9998C42.7752 44.9363 44.2371 44.8091 45.4447 44.682C45.4447 44.682 45.5718 44.6185 45.5718 44.682C48.9404 44.2371 50.9743 43.6015 51.3557 43.2837C51.7371 42.9024 51.9913 41.4405 52.0549 40.4871C48.3049 41.0591 40.1057 42.2032 37.754 42.2032C37.5633 42.2032 37.4362 42.2032 37.3091 42.2032C36.6735 42.0761 34.3854 41.6312 33.1142 41.3769C33.0506 41.5041 32.9235 41.6312 32.7964 41.7583L32.9235 42.4574C33.1142 44.11 33.0506 45.2541 32.8599 46.0803C32.7964 46.3346 32.3515 47.1608 32.3515 47.0337C32.3515 46.9066 32.415 46.4617 32.4786 46.2074C32.6057 45.4447 32.6693 44.11 32.3515 42.521C32.3515 42.521 32.1608 41.8854 32.2243 41.8854C31.7794 41.8219 31.3981 41.4405 31.3981 40.932C31.3981 40.4235 31.843 39.9786 32.3515 39.9786C32.7964 39.9786 33.1777 40.2964 33.2413 40.6778C34.5125 40.932 36.8642 41.3769 37.4998 41.5041C38.8345 41.6947 49.3854 40.2329 53.7074 39.5973L54.343 39.4702V15.8896H25.6777Z" fill="#D51218"/>
</svg>
