<svg width="106" height="67" viewBox="0 0 106 67" fill="none" xmlns="http://www.w3.org/2000/svg">
<path d="M84.1826 13.3106H17.7791C17.4278 13.3106 17.1023 13.1263 16.9216 12.8251L10.4091 1.97101C10.0477 1.3686 9.39667 1 8.69415 1H2.96289C1.85832 1 0.962891 1.89543 0.962891 3V19.8716C0.962891 21.0413 1.37297 22.1739 2.12178 23.0725L4.3879 25.7918C5.33787 26.9318 6.74511 27.5909 8.22901 27.5909H25.1828C25.4404 27.5909 25.688 27.6903 25.8741 27.8683L36.9099 38.4242M84.1826 13.3106L100.753 19.6462C100.867 19.6898 100.988 19.7096 101.109 19.7203C101.751 19.7772 102.395 20.1274 102.983 20.697M84.1826 13.3106V19.697C84.1826 20.2493 84.6303 20.697 85.1826 20.697H86.1523H102.983M50.6094 56.1515L49.3812 64.8604C49.2963 65.4622 49.7636 66 50.3714 66H60.3258C61.9486 66 63.4106 65.0196 64.0265 63.5182L67.0487 56.1515M50.6094 56.1515H67.0487M50.6094 56.1515L53.1094 38.4242M67.0487 56.1515L74.3215 38.4242M74.3215 38.4242L78.1999 28.9705C78.4699 28.3125 77.986 27.5909 77.2748 27.5909H55.506C55.0077 27.5909 54.5854 27.9578 54.5158 28.4513L53.1094 38.4242M74.3215 38.4242H81.228M53.1094 38.4242H45.0096M36.9099 38.4242L27.5538 41.5002M36.9099 38.4242L39.1812 43.7241C39.4846 44.4321 40.441 44.5456 40.9018 43.9283L45.0096 38.4242M36.9099 38.4242H45.0096M0.962891 50.2424L5.88713 48.6235M5.88713 48.6235L4.21255 43.3015C4.04876 42.781 4.33253 42.2253 4.85022 42.0527L10.4105 40.1993C10.9123 40.032 11.4576 40.2845 11.6547 40.7754L13.7659 46.0332M5.88713 48.6235L13.7659 46.0332M13.7659 46.0332L20.1674 43.9286M20.1674 43.9286L18.1118 38.9219C17.8919 38.3863 18.1714 37.7765 18.7206 37.5934L24.2035 35.7658C24.7032 35.5992 25.2465 35.8488 25.4456 36.3364L27.5538 41.5002M20.1674 43.9286L27.5538 41.5002M81.228 38.4242H95.8514C95.9504 38.4242 96.0523 38.4087 96.1468 38.379C107.924 34.6891 106.395 24.0008 102.983 20.697M81.228 38.4242L83.4704 43.6564C83.7801 44.379 84.7642 44.4781 85.2117 43.8317L88.6144 38.9167" stroke="url(#paint0_radial_506_17557)" stroke-linecap="round" stroke-linejoin="round"/>
<defs>
<radialGradient id="paint0_radial_506_17557" cx="0" cy="0" r="1" gradientUnits="userSpaceOnUse" gradientTransform="translate(53.0705 33.4506) scale(55.6249 30.6625)">
<stop stop-color="#D81719"/>
<stop offset="0.3693" stop-color="#D41719"/>
<stop offset="0.7512" stop-color="#C7181A"/>
<stop offset="1" stop-color="#BA181B"/>
</radialGradient>
</defs>
</svg>
