<svg width="33" height="33" viewBox="0 0 33 33" fill="none" xmlns="http://www.w3.org/2000/svg">
<g clip-path="url(#clip0_506_14688)">
<path d="M0 15.8125C0 8.35842 0 4.63137 2.31569 2.31569C4.63137 0 8.35842 0 15.8125 0H17.1875C24.6416 0 28.3687 0 30.6843 2.31569C33 4.63137 33 8.35842 33 15.8125V17.1875C33 24.6416 33 28.3687 30.6843 30.6843C28.3687 33 24.6416 33 17.1875 33H15.8125C8.35842 33 4.63137 33 2.31569 30.6843C0 28.3687 0 24.6416 0 17.1875L0 15.8125Z" fill="url(#paint0_radial_506_14688)"/>
<path fill-rule="evenodd" clip-rule="evenodd" d="M8.93806 10.3125H6.53126C5.8436 10.3125 5.70605 10.6362 5.70605 10.993C5.70605 11.6304 6.52202 14.7914 9.50532 18.9722C11.4942 21.8273 14.2963 23.375 16.8462 23.375C18.3761 23.375 18.5653 23.0312 18.5653 22.4392V20.2812C18.5653 19.5937 18.7103 19.4565 19.1947 19.4565C19.5517 19.4565 20.1636 19.635 21.5916 21.0116C23.2235 22.6431 23.4925 23.375 24.4104 23.375H26.8172C27.5049 23.375 27.8487 23.0312 27.6504 22.3529C27.4333 21.6768 26.6542 20.6958 25.6203 19.533C25.0593 18.8702 24.2179 18.1565 23.9629 17.7995C23.6059 17.3407 23.7079 17.1367 23.9629 16.7289C23.9629 16.7289 26.8952 12.5991 27.2012 11.197C27.3542 10.6871 27.2012 10.3125 26.4734 10.3125H24.0666C23.4546 10.3125 23.1725 10.6362 23.0194 10.993C23.0194 10.993 21.7955 13.9756 20.0617 15.9131C19.5007 16.4739 19.2457 16.6523 18.9397 16.6523C18.7867 16.6523 18.5653 16.4739 18.5653 15.9641V11.197C18.5653 10.5852 18.3877 10.3125 17.8776 10.3125H14.0955C13.7131 10.3125 13.4831 10.5964 13.4831 10.8656C13.4831 11.4456 14.35 11.5794 14.4394 13.2109V16.7544C14.4394 17.5312 14.299 17.6721 13.993 17.6721C13.1771 17.6721 11.1924 14.6761 10.0152 11.248C9.78458 10.5817 9.55317 10.3125 8.93806 10.3125Z" fill="white"/>
</g>
<defs>
<radialGradient id="paint0_radial_506_14688" cx="0" cy="0" r="1" gradientUnits="userSpaceOnUse" gradientTransform="translate(16.4581 16.4749) scale(17.5691 15.5671)">
<stop stop-color="#D81719"/>
<stop offset="0.3693" stop-color="#D41719"/>
<stop offset="0.7512" stop-color="#C7181A"/>
<stop offset="1" stop-color="#BA181B"/>
</radialGradient>
<clipPath id="clip0_506_14688">
<rect width="33" height="33" fill="white"/>
</clipPath>
</defs>
</svg>
