<svg width="50" height="52" viewBox="0 0 50 52" fill="none" xmlns="http://www.w3.org/2000/svg" id="calc">
<path d="M39.1667 50H10.8333C9.28678 49.9982 7.80407 49.3831 6.71049 48.2895C5.61691 47.1959 5.00176 45.7132 5 44.1667V5.83333C5.00176 4.28678 5.61691 2.80407 6.71049 1.71049C7.80407 0.616913 9.28678 0.00176447 10.8333 0H39.1667C40.7132 0.00176447 42.1959 0.616913 43.2895 1.71049C44.3831 2.80407 44.9982 4.28678 45 5.83333V44.1667C44.9982 45.7132 44.3831 47.1959 43.2895 48.2895C42.1959 49.3831 40.7132 49.9982 39.1667 50ZM10.8333 1.66667C9.72867 1.66799 8.66963 2.1074 7.88852 2.88852C7.1074 3.66963 6.66799 4.72867 6.66667 5.83333V44.1667C6.66799 45.2713 7.1074 46.3304 7.88852 47.1115C8.66963 47.8926 9.72867 48.332 10.8333 48.3333H39.1667C40.2713 48.332 41.3304 47.8926 42.1115 47.1115C42.8926 46.3304 43.332 45.2713 43.3333 44.1667V5.83333C43.332 4.72867 42.8926 3.66963 42.1115 2.88852C41.3304 2.1074 40.2713 1.66799 39.1667 1.66667H10.8333Z" fill="#D51218"/>
<path d="M27.5 46.6673H22.5C21.837 46.6673 21.2011 46.4039 20.7322 45.9351C20.2634 45.4662 20 44.8304 20 44.1673V40.834C20 40.1709 20.2634 39.5351 20.7322 39.0662C21.2011 38.5974 21.837 38.334 22.5 38.334H27.5C28.163 38.334 28.7989 38.5974 29.2678 39.0662C29.7366 39.5351 30 40.1709 30 40.834V44.1673C30 44.8304 29.7366 45.4662 29.2678 45.9351C28.7989 46.4039 28.163 46.6673 27.5 46.6673ZM22.5 40.0007C22.279 40.0007 22.067 40.0884 21.9107 40.2447C21.7545 40.401 21.6667 40.613 21.6667 40.834V44.1673C21.6667 44.3883 21.7545 44.6003 21.9107 44.7566C22.067 44.9129 22.279 45.0007 22.5 45.0007H27.5C27.721 45.0007 27.933 44.9129 28.0893 44.7566C28.2455 44.6003 28.3333 44.3883 28.3333 44.1673V40.834C28.3333 40.613 28.2455 40.401 28.0893 40.2447C27.933 40.0884 27.721 40.0007 27.5 40.0007H22.5Z" fill="#D51218"/>
<path d="M15.834 46.6673H10.834C10.1709 46.6673 9.53506 46.4039 9.06622 45.9351C8.59738 45.4662 8.33398 44.8304 8.33398 44.1673V40.834C8.33398 40.1709 8.59738 39.5351 9.06622 39.0662C9.53506 38.5974 10.1709 38.334 10.834 38.334H15.834C16.497 38.334 17.1329 38.5974 17.6018 39.0662C18.0706 39.5351 18.334 40.1709 18.334 40.834V44.1673C18.334 44.8304 18.0706 45.4662 17.6018 45.9351C17.1329 46.4039 16.497 46.6673 15.834 46.6673ZM10.834 40.0007C10.613 40.0007 10.401 40.0884 10.2447 40.2447C10.0884 40.401 10.0007 40.613 10.0007 40.834V44.1673C10.0007 44.3883 10.0884 44.6003 10.2447 44.7566C10.401 44.9129 10.613 45.0007 10.834 45.0007H15.834C16.055 45.0007 16.267 44.9129 16.4232 44.7566C16.5795 44.6003 16.6673 44.3883 16.6673 44.1673V40.834C16.6673 40.613 16.5795 40.401 16.4232 40.2447C16.267 40.0884 16.055 40.0007 15.834 40.0007H10.834Z" fill="#D51218"/>
<path d="M39.166 46.6673H34.166C33.503 46.6673 32.8671 46.4039 32.3982 45.9351C31.9294 45.4662 31.666 44.8304 31.666 44.1673V30.834C31.666 30.1709 31.9294 29.5351 32.3982 29.0662C32.8671 28.5974 33.503 28.334 34.166 28.334H39.166C39.8291 28.334 40.4649 28.5974 40.9338 29.0662C41.4026 29.5351 41.666 30.1709 41.666 30.834V44.1673C41.666 44.8304 41.4026 45.4662 40.9338 45.9351C40.4649 46.4039 39.8291 46.6673 39.166 46.6673ZM34.166 30.0007C33.945 30.0007 33.733 30.0884 33.5768 30.2447C33.4205 30.401 33.3327 30.613 33.3327 30.834V44.1673C33.3327 44.3883 33.4205 44.6003 33.5768 44.7566C33.733 44.9129 33.945 45.0007 34.166 45.0007H39.166C39.387 45.0007 39.599 44.9129 39.7553 44.7566C39.9116 44.6003 39.9993 44.3883 39.9993 44.1673V30.834C39.9993 30.613 39.9116 30.401 39.7553 30.2447C39.599 30.0884 39.387 30.0007 39.166 30.0007H34.166Z" fill="#D51218"/>
<path d="M27.5 36.6673H22.5C21.837 36.6673 21.2011 36.4039 20.7322 35.9351C20.2634 35.4662 20 34.8304 20 34.1673V30.834C20 30.1709 20.2634 29.5351 20.7322 29.0662C21.2011 28.5974 21.837 28.334 22.5 28.334H27.5C28.163 28.334 28.7989 28.5974 29.2678 29.0662C29.7366 29.5351 30 30.1709 30 30.834V34.1673C30 34.8304 29.7366 35.4662 29.2678 35.9351C28.7989 36.4039 28.163 36.6673 27.5 36.6673ZM22.5 30.0007C22.279 30.0007 22.067 30.0884 21.9107 30.2447C21.7545 30.401 21.6667 30.613 21.6667 30.834V34.1673C21.6667 34.3883 21.7545 34.6003 21.9107 34.7566C22.067 34.9129 22.279 35.0007 22.5 35.0007H27.5C27.721 35.0007 27.933 34.9129 28.0893 34.7566C28.2455 34.6003 28.3333 34.3883 28.3333 34.1673V30.834C28.3333 30.613 28.2455 30.401 28.0893 30.2447C27.933 30.0884 27.721 30.0007 27.5 30.0007H22.5Z" fill="#D51218"/>
<path d="M15.834 36.6673H10.834C10.1709 36.6673 9.53506 36.4039 9.06622 35.9351C8.59738 35.4662 8.33398 34.8304 8.33398 34.1673V30.834C8.33398 30.1709 8.59738 29.5351 9.06622 29.0662C9.53506 28.5974 10.1709 28.334 10.834 28.334H15.834C16.497 28.334 17.1329 28.5974 17.6018 29.0662C18.0706 29.5351 18.334 30.1709 18.334 30.834V34.1673C18.334 34.8304 18.0706 35.4662 17.6018 35.9351C17.1329 36.4039 16.497 36.6673 15.834 36.6673ZM10.834 30.0007C10.613 30.0007 10.401 30.0884 10.2447 30.2447C10.0884 30.401 10.0007 30.613 10.0007 30.834V34.1673C10.0007 34.3883 10.0884 34.6003 10.2447 34.7566C10.401 34.9129 10.613 35.0007 10.834 35.0007H15.834C16.055 35.0007 16.267 34.9129 16.4232 34.7566C16.5795 34.6003 16.6673 34.3883 16.6673 34.1673V30.834C16.6673 30.613 16.5795 30.401 16.4232 30.2447C16.267 30.0884 16.055 30.0007 15.834 30.0007H10.834Z" fill="#D51218"/>
<path d="M27.5 26.6673H22.5C21.837 26.6673 21.2011 26.4039 20.7322 25.9351C20.2634 25.4662 20 24.8304 20 24.1673V20.834C20 20.1709 20.2634 19.5351 20.7322 19.0662C21.2011 18.5974 21.837 18.334 22.5 18.334H27.5C28.163 18.334 28.7989 18.5974 29.2678 19.0662C29.7366 19.5351 30 20.1709 30 20.834V24.1673C30 24.8304 29.7366 25.4662 29.2678 25.9351C28.7989 26.4039 28.163 26.6673 27.5 26.6673ZM22.5 20.0007C22.279 20.0007 22.067 20.0884 21.9107 20.2447C21.7545 20.401 21.6667 20.613 21.6667 20.834V24.1673C21.6667 24.3883 21.7545 24.6003 21.9107 24.7566C22.067 24.9129 22.279 25.0007 22.5 25.0007H27.5C27.721 25.0007 27.933 24.9129 28.0893 24.7566C28.2455 24.6003 28.3333 24.3883 28.3333 24.1673V20.834C28.3333 20.613 28.2455 20.401 28.0893 20.2447C27.933 20.0884 27.721 20.0007 27.5 20.0007H22.5Z" fill="#D51218"/>
<path d="M15.834 26.6673H10.834C10.1709 26.6673 9.53506 26.4039 9.06622 25.9351C8.59738 25.4662 8.33398 24.8304 8.33398 24.1673V20.834C8.33398 20.1709 8.59738 19.5351 9.06622 19.0662C9.53506 18.5974 10.1709 18.334 10.834 18.334H15.834C16.497 18.334 17.1329 18.5974 17.6018 19.0662C18.0706 19.5351 18.334 20.1709 18.334 20.834V24.1673C18.334 24.8304 18.0706 25.4662 17.6018 25.9351C17.1329 26.4039 16.497 26.6673 15.834 26.6673ZM10.834 20.0007C10.613 20.0007 10.401 20.0884 10.2447 20.2447C10.0884 20.401 10.0007 20.613 10.0007 20.834V24.1673C10.0007 24.3883 10.0884 24.6003 10.2447 24.7566C10.401 24.9129 10.613 25.0007 10.834 25.0007H15.834C16.055 25.0007 16.267 24.9129 16.4232 24.7566C16.5795 24.6003 16.6673 24.3883 16.6673 24.1673V20.834C16.6673 20.613 16.5795 20.401 16.4232 20.2447C16.267 20.0884 16.055 20.0007 15.834 20.0007H10.834Z" fill="#D51218"/>
<path d="M39.166 26.6673H34.166C33.503 26.6673 32.8671 26.4039 32.3982 25.9351C31.9294 25.4662 31.666 24.8304 31.666 24.1673V20.834C31.666 20.1709 31.9294 19.5351 32.3982 19.0662C32.8671 18.5974 33.503 18.334 34.166 18.334H39.166C39.8291 18.334 40.4649 18.5974 40.9338 19.0662C41.4026 19.5351 41.666 20.1709 41.666 20.834V24.1673C41.666 24.8304 41.4026 25.4662 40.9338 25.9351C40.4649 26.4039 39.8291 26.6673 39.166 26.6673ZM34.166 20.0007C33.945 20.0007 33.733 20.0884 33.5768 20.2447C33.4205 20.401 33.3327 20.613 33.3327 20.834V24.1673C33.3327 24.3883 33.4205 24.6003 33.5768 24.7566C33.733 24.9129 33.945 25.0007 34.166 25.0007H39.166C39.387 25.0007 39.599 24.9129 39.7553 24.7566C39.9116 24.6003 39.9993 24.3883 39.9993 24.1673V20.834C39.9993 20.613 39.9116 20.401 39.7553 20.2447C39.599 20.0884 39.387 20.0007 39.166 20.0007H34.166Z" fill="#D51218"/>
<path d="M39.1673 15.0007H10.834C10.1709 15.0007 9.53506 14.7373 9.06622 14.2684C8.59738 13.7996 8.33398 13.1637 8.33398 12.5007V5.83398C8.33398 5.17094 8.59738 4.53506 9.06622 4.06622C9.53506 3.59738 10.1709 3.33398 10.834 3.33398H39.1673C39.8304 3.33398 40.4662 3.59738 40.9351 4.06622C41.4039 4.53506 41.6673 5.17094 41.6673 5.83398V12.5007C41.6673 13.1637 41.4039 13.7996 40.9351 14.2684C40.4662 14.7373 39.8304 15.0007 39.1673 15.0007ZM10.834 5.00065C10.613 5.00065 10.401 5.08845 10.2447 5.24473C10.0884 5.40101 10.0007 5.61297 10.0007 5.83398V12.5007C10.0007 12.7217 10.0884 12.9336 10.2447 13.0899C10.401 13.2462 10.613 13.334 10.834 13.334H39.1673C39.3883 13.334 39.6003 13.2462 39.7566 13.0899C39.9129 12.9336 40.0007 12.7217 40.0007 12.5007V5.83398C40.0007 5.61297 39.9129 5.40101 39.7566 5.24473C39.6003 5.08845 39.3883 5.00065 39.1673 5.00065H10.834Z" fill="#D51218"/>
<path d="M36.666 12.5007C36.003 12.5007 35.3671 12.2373 34.8983 11.7684C34.4294 11.2996 34.166 10.6637 34.166 10.0007V8.33398C34.166 7.67094 34.4294 7.03506 34.8983 6.56622C35.3671 6.09738 36.003 5.83398 36.666 5.83398C37.3291 5.83398 37.9649 6.09738 38.4338 6.56622C38.9026 7.03506 39.166 7.67094 39.166 8.33398V10.0007C39.166 10.6637 38.9026 11.2996 38.4338 11.7684C37.9649 12.2373 37.3291 12.5007 36.666 12.5007ZM36.666 7.50065C36.445 7.50065 36.233 7.58845 36.0768 7.74473C35.9205 7.90101 35.8327 8.11297 35.8327 8.33398V10.0007C35.8327 10.2217 35.9205 10.4336 36.0768 10.5899C36.233 10.7462 36.445 10.834 36.666 10.834C36.887 10.834 37.099 10.7462 37.2553 10.5899C37.4116 10.4336 37.4993 10.2217 37.4993 10.0007V8.33398C37.4993 8.11297 37.4116 7.90101 37.2553 7.74473C37.099 7.58845 36.887 7.50065 36.666 7.50065Z" fill="#D51218"/>
</svg>
