<svg width="23" height="27" viewBox="0 0 23 27" fill="none" xmlns="http://www.w3.org/2000/svg" id="download">
<path d="M14.125 1H3.625C2.92881 1 2.26113 1.26339 1.76884 1.73223C1.27656 2.20107 1 2.83696 1 3.5V23.5C1 24.163 1.27656 24.7989 1.76884 25.2678C2.26113 25.7366 2.92881 26 3.625 26H19.375C20.0712 26 20.7389 25.7366 21.2312 25.2678C21.7234 24.7989 22 24.163 22 23.5V8.5L14.125 1Z" stroke="#D51218" stroke-linecap="round" stroke-linejoin="round"/>
<path d="M13.4992 1V8.5H20.9992" stroke="#D51218" stroke-linecap="round" stroke-linejoin="round"/>
<path d="M11.5 11.5V15.5V19.5M11.5 19.5L10 17.5M11.5 19.5L13 17.5M7 20.5V22L16 22V20.5" stroke="#D51218" stroke-linecap="round" stroke-linejoin="round"/>
</svg>
