<svg width="20" height="25" viewBox="0 0 20 25" fill="none" xmlns="http://www.w3.org/2000/svg">
<path d="M17.0833 25H2.91667C2.14339 24.9991 1.40204 24.6915 0.855246 24.1448C0.308456 23.598 0.000882234 22.8566 0 22.0833V2.91667C0.000882234 2.14339 0.308456 1.40204 0.855246 0.855246C1.40204 0.308456 2.14339 0.000882234 2.91667 0H17.0833C17.8566 0.000882234 18.598 0.308456 19.1448 0.855246C19.6915 1.40204 19.9991 2.14339 20 2.91667V22.0833C19.9991 22.8566 19.6915 23.598 19.1448 24.1448C18.598 24.6915 17.8566 24.9991 17.0833 25ZM2.91667 0.833333C2.36434 0.833995 1.83482 1.0537 1.44426 1.44426C1.0537 1.83482 0.833995 2.36434 0.833333 2.91667V22.0833C0.833995 22.6357 1.0537 23.1652 1.44426 23.5557C1.83482 23.9463 2.36434 24.166 2.91667 24.1667H17.0833C17.6357 24.166 18.1652 23.9463 18.5557 23.5557C18.9463 23.1652 19.166 22.6357 19.1667 22.0833V2.91667C19.166 2.36434 18.9463 1.83482 18.5557 1.44426C18.1652 1.0537 17.6357 0.833995 17.0833 0.833333H2.91667Z" fill="#D51218"/>
<path d="M11.25 23.3337H8.75C8.41848 23.3337 8.10054 23.202 7.86612 22.9675C7.6317 22.7331 7.5 22.4152 7.5 22.0837V20.417C7.5 20.0855 7.6317 19.7675 7.86612 19.5331C8.10054 19.2987 8.41848 19.167 8.75 19.167H11.25C11.5815 19.167 11.8995 19.2987 12.1339 19.5331C12.3683 19.7675 12.5 20.0855 12.5 20.417V22.0837C12.5 22.4152 12.3683 22.7331 12.1339 22.9675C11.8995 23.202 11.5815 23.3337 11.25 23.3337ZM8.75 20.0003C8.63949 20.0003 8.53351 20.0442 8.45537 20.1224C8.37723 20.2005 8.33333 20.3065 8.33333 20.417V22.0837C8.33333 22.1942 8.37723 22.3001 8.45537 22.3783C8.53351 22.4564 8.63949 22.5003 8.75 22.5003H11.25C11.3605 22.5003 11.4665 22.4564 11.5446 22.3783C11.6228 22.3001 11.6667 22.1942 11.6667 22.0837V20.417C11.6667 20.3065 11.6228 20.2005 11.5446 20.1224C11.4665 20.0442 11.3605 20.0003 11.25 20.0003H8.75Z" fill="#D51218"/>
<path d="M5.41699 23.3337H2.91699C2.58547 23.3337 2.26753 23.202 2.03311 22.9675C1.79869 22.7331 1.66699 22.4152 1.66699 22.0837V20.417C1.66699 20.0855 1.79869 19.7675 2.03311 19.5331C2.26753 19.2987 2.58547 19.167 2.91699 19.167H5.41699C5.74851 19.167 6.06645 19.2987 6.30088 19.5331C6.5353 19.7675 6.66699 20.0855 6.66699 20.417V22.0837C6.66699 22.4152 6.5353 22.7331 6.30088 22.9675C6.06645 23.202 5.74851 23.3337 5.41699 23.3337ZM2.91699 20.0003C2.80649 20.0003 2.7005 20.0442 2.62236 20.1224C2.54422 20.2005 2.50033 20.3065 2.50033 20.417V22.0837C2.50033 22.1942 2.54422 22.3001 2.62236 22.3783C2.7005 22.4564 2.80649 22.5003 2.91699 22.5003H5.41699C5.5275 22.5003 5.63348 22.4564 5.71162 22.3783C5.78976 22.3001 5.83366 22.1942 5.83366 22.0837V20.417C5.83366 20.3065 5.78976 20.2005 5.71162 20.1224C5.63348 20.0442 5.5275 20.0003 5.41699 20.0003H2.91699Z" fill="#D51218"/>
<path d="M17.083 23.3337H14.583C14.2515 23.3337 13.9335 23.202 13.6991 22.9675C13.4647 22.7331 13.333 22.4152 13.333 22.0837V15.417C13.333 15.0855 13.4647 14.7675 13.6991 14.5331C13.9335 14.2987 14.2515 14.167 14.583 14.167H17.083C17.4145 14.167 17.7325 14.2987 17.9669 14.5331C18.2013 14.7675 18.333 15.0855 18.333 15.417V22.0837C18.333 22.4152 18.2013 22.7331 17.9669 22.9675C17.7325 23.202 17.4145 23.3337 17.083 23.3337ZM14.583 15.0003C14.4725 15.0003 14.3665 15.0442 14.2884 15.1224C14.2102 15.2005 14.1663 15.3065 14.1663 15.417V22.0837C14.1663 22.1942 14.2102 22.3001 14.2884 22.3783C14.3665 22.4564 14.4725 22.5003 14.583 22.5003H17.083C17.1935 22.5003 17.2995 22.4564 17.3776 22.3783C17.4558 22.3001 17.4997 22.1942 17.4997 22.0837V15.417C17.4997 15.3065 17.4558 15.2005 17.3776 15.1224C17.2995 15.0442 17.1935 15.0003 17.083 15.0003H14.583Z" fill="#D51218"/>
<path d="M11.25 18.3337H8.75C8.41848 18.3337 8.10054 18.202 7.86612 17.9675C7.6317 17.7331 7.5 17.4152 7.5 17.0837V15.417C7.5 15.0855 7.6317 14.7675 7.86612 14.5331C8.10054 14.2987 8.41848 14.167 8.75 14.167H11.25C11.5815 14.167 11.8995 14.2987 12.1339 14.5331C12.3683 14.7675 12.5 15.0855 12.5 15.417V17.0837C12.5 17.4152 12.3683 17.7331 12.1339 17.9675C11.8995 18.202 11.5815 18.3337 11.25 18.3337ZM8.75 15.0003C8.63949 15.0003 8.53351 15.0442 8.45537 15.1224C8.37723 15.2005 8.33333 15.3065 8.33333 15.417V17.0837C8.33333 17.1942 8.37723 17.3001 8.45537 17.3783C8.53351 17.4564 8.63949 17.5003 8.75 17.5003H11.25C11.3605 17.5003 11.4665 17.4564 11.5446 17.3783C11.6228 17.3001 11.6667 17.1942 11.6667 17.0837V15.417C11.6667 15.3065 11.6228 15.2005 11.5446 15.1224C11.4665 15.0442 11.3605 15.0003 11.25 15.0003H8.75Z" fill="#D51218"/>
<path d="M5.41699 18.3337H2.91699C2.58547 18.3337 2.26753 18.202 2.03311 17.9675C1.79869 17.7331 1.66699 17.4152 1.66699 17.0837V15.417C1.66699 15.0855 1.79869 14.7675 2.03311 14.5331C2.26753 14.2987 2.58547 14.167 2.91699 14.167H5.41699C5.74851 14.167 6.06645 14.2987 6.30088 14.5331C6.5353 14.7675 6.66699 15.0855 6.66699 15.417V17.0837C6.66699 17.4152 6.5353 17.7331 6.30088 17.9675C6.06645 18.202 5.74851 18.3337 5.41699 18.3337ZM2.91699 15.0003C2.80649 15.0003 2.7005 15.0442 2.62236 15.1224C2.54422 15.2005 2.50033 15.3065 2.50033 15.417V17.0837C2.50033 17.1942 2.54422 17.3001 2.62236 17.3783C2.7005 17.4564 2.80649 17.5003 2.91699 17.5003H5.41699C5.5275 17.5003 5.63348 17.4564 5.71162 17.3783C5.78976 17.3001 5.83366 17.1942 5.83366 17.0837V15.417C5.83366 15.3065 5.78976 15.2005 5.71162 15.1224C5.63348 15.0442 5.5275 15.0003 5.41699 15.0003H2.91699Z" fill="#D51218"/>
<path d="M11.25 13.3337H8.75C8.41848 13.3337 8.10054 13.202 7.86612 12.9675C7.6317 12.7331 7.5 12.4152 7.5 12.0837V10.417C7.5 10.0855 7.6317 9.76753 7.86612 9.53311C8.10054 9.29869 8.41848 9.16699 8.75 9.16699H11.25C11.5815 9.16699 11.8995 9.29869 12.1339 9.53311C12.3683 9.76753 12.5 10.0855 12.5 10.417V12.0837C12.5 12.4152 12.3683 12.7331 12.1339 12.9675C11.8995 13.202 11.5815 13.3337 11.25 13.3337ZM8.75 10.0003C8.63949 10.0003 8.53351 10.0442 8.45537 10.1224C8.37723 10.2005 8.33333 10.3065 8.33333 10.417V12.0837C8.33333 12.1942 8.37723 12.3001 8.45537 12.3783C8.53351 12.4564 8.63949 12.5003 8.75 12.5003H11.25C11.3605 12.5003 11.4665 12.4564 11.5446 12.3783C11.6228 12.3001 11.6667 12.1942 11.6667 12.0837V10.417C11.6667 10.3065 11.6228 10.2005 11.5446 10.1224C11.4665 10.0442 11.3605 10.0003 11.25 10.0003H8.75Z" fill="#D51218"/>
<path d="M5.41699 13.3337H2.91699C2.58547 13.3337 2.26753 13.202 2.03311 12.9675C1.79869 12.7331 1.66699 12.4152 1.66699 12.0837V10.417C1.66699 10.0855 1.79869 9.76753 2.03311 9.53311C2.26753 9.29869 2.58547 9.16699 2.91699 9.16699H5.41699C5.74851 9.16699 6.06645 9.29869 6.30088 9.53311C6.5353 9.76753 6.66699 10.0855 6.66699 10.417V12.0837C6.66699 12.4152 6.5353 12.7331 6.30088 12.9675C6.06645 13.202 5.74851 13.3337 5.41699 13.3337ZM2.91699 10.0003C2.80649 10.0003 2.7005 10.0442 2.62236 10.1224C2.54422 10.2005 2.50033 10.3065 2.50033 10.417V12.0837C2.50033 12.1942 2.54422 12.3001 2.62236 12.3783C2.7005 12.4564 2.80649 12.5003 2.91699 12.5003H5.41699C5.5275 12.5003 5.63348 12.4564 5.71162 12.3783C5.78976 12.3001 5.83366 12.1942 5.83366 12.0837V10.417C5.83366 10.3065 5.78976 10.2005 5.71162 10.1224C5.63348 10.0442 5.5275 10.0003 5.41699 10.0003H2.91699Z" fill="#D51218"/>
<path d="M17.083 13.3337H14.583C14.2515 13.3337 13.9335 13.202 13.6991 12.9675C13.4647 12.7331 13.333 12.4152 13.333 12.0837V10.417C13.333 10.0855 13.4647 9.76753 13.6991 9.53311C13.9335 9.29869 14.2515 9.16699 14.583 9.16699H17.083C17.4145 9.16699 17.7325 9.29869 17.9669 9.53311C18.2013 9.76753 18.333 10.0855 18.333 10.417V12.0837C18.333 12.4152 18.2013 12.7331 17.9669 12.9675C17.7325 13.202 17.4145 13.3337 17.083 13.3337ZM14.583 10.0003C14.4725 10.0003 14.3665 10.0442 14.2884 10.1224C14.2102 10.2005 14.1663 10.3065 14.1663 10.417V12.0837C14.1663 12.1942 14.2102 12.3001 14.2884 12.3783C14.3665 12.4564 14.4725 12.5003 14.583 12.5003H17.083C17.1935 12.5003 17.2995 12.4564 17.3776 12.3783C17.4558 12.3001 17.4997 12.1942 17.4997 12.0837V10.417C17.4997 10.3065 17.4558 10.2005 17.3776 10.1224C17.2995 10.0442 17.1935 10.0003 17.083 10.0003H14.583Z" fill="#D51218"/>
<path d="M17.0837 7.50033H2.91699C2.58547 7.50033 2.26753 7.36863 2.03311 7.13421C1.79869 6.89979 1.66699 6.58185 1.66699 6.25033V2.91699C1.66699 2.58547 1.79869 2.26753 2.03311 2.03311C2.26753 1.79869 2.58547 1.66699 2.91699 1.66699H17.0837C17.4152 1.66699 17.7331 1.79869 17.9675 2.03311C18.202 2.26753 18.3337 2.58547 18.3337 2.91699V6.25033C18.3337 6.58185 18.202 6.89979 17.9675 7.13421C17.7331 7.36863 17.4152 7.50033 17.0837 7.50033ZM2.91699 2.50033C2.80649 2.50033 2.7005 2.54422 2.62236 2.62236C2.54422 2.7005 2.50033 2.80649 2.50033 2.91699V6.25033C2.50033 6.36083 2.54422 6.46681 2.62236 6.54495C2.7005 6.62309 2.80649 6.66699 2.91699 6.66699H17.0837C17.1942 6.66699 17.3001 6.62309 17.3783 6.54495C17.4564 6.46681 17.5003 6.36083 17.5003 6.25033V2.91699C17.5003 2.80649 17.4564 2.7005 17.3783 2.62236C17.3001 2.54422 17.1942 2.50033 17.0837 2.50033H2.91699Z" fill="#D51218"/>
<path d="M15.833 6.25033C15.5015 6.25033 15.1835 6.11863 14.9491 5.88421C14.7147 5.64979 14.583 5.33185 14.583 5.00033V4.16699C14.583 3.83547 14.7147 3.51753 14.9491 3.28311C15.1835 3.04869 15.5015 2.91699 15.833 2.91699C16.1645 2.91699 16.4825 3.04869 16.7169 3.28311C16.9513 3.51753 17.083 3.83547 17.083 4.16699V5.00033C17.083 5.33185 16.9513 5.64979 16.7169 5.88421C16.4825 6.11863 16.1645 6.25033 15.833 6.25033ZM15.833 3.75033C15.7225 3.75033 15.6165 3.79422 15.5384 3.87236C15.4602 3.9505 15.4163 4.05649 15.4163 4.16699V5.00033C15.4163 5.11083 15.4602 5.21681 15.5384 5.29495C15.6165 5.37309 15.7225 5.41699 15.833 5.41699C15.9435 5.41699 16.0495 5.37309 16.1276 5.29495C16.2058 5.21681 16.2497 5.11083 16.2497 5.00033V4.16699C16.2497 4.05649 16.2058 3.9505 16.1276 3.87236C16.0495 3.79422 15.9435 3.75033 15.833 3.75033Z" fill="#D51218"/>
</svg>
