<svg width="41" height="19" viewBox="0 0 41 19" fill="none" xmlns="http://www.w3.org/2000/svg">
<path d="M2.24494 15.4731V17.2013H0.612305" stroke="#D51218" stroke-width="0.5" stroke-linecap="round" stroke-linejoin="round"/>
<path d="M5.30566 3.80811V10.5046" stroke="#D51218" stroke-width="0.5" stroke-linecap="round" stroke-linejoin="round"/>
<path d="M9.7959 3.80811V10.5046" stroke="#D51218" stroke-width="0.5" stroke-linecap="round" stroke-linejoin="round"/>
<path d="M14.6934 3.80811V10.5046" stroke="#D51218" stroke-width="0.5" stroke-linecap="round" stroke-linejoin="round"/>
<path d="M19.5918 3.80811V10.5046" stroke="#D51218" stroke-width="0.5" stroke-linecap="round" stroke-linejoin="round"/>
<path d="M24.4893 3.80811V10.5046" stroke="#D51218" stroke-width="0.5" stroke-linecap="round" stroke-linejoin="round"/>
<path d="M1.88184 3C1.88184 2.0335 2.66534 1.25 3.63184 1.25H26.1621C27.1286 1.25 27.9121 2.0335 27.9121 3V12.8469H1.88184V3Z" stroke="#D51218" stroke-width="0.5"/>
<path d="M0.25 13.665C0.25 13.2508 0.585787 12.915 1 12.915H30.3618V15.4393H1C0.585786 15.4393 0.25 15.1035 0.25 14.6893V13.665Z" stroke="#D51218" stroke-width="0.5"/>
<path d="M30.6123 3.80822V1L34.0236 1.72217C35.0092 1.93082 35.7143 2.80079 35.7143 3.80822V3.80822M30.6123 3.80822V15.4731H37.9999C39.1045 15.4731 39.9999 14.5777 39.9999 13.4731V11.8008M30.6123 3.80822H35.7143M35.7143 3.80822H36.0116C36.7135 3.80822 37.364 4.17616 37.7257 4.77772L39.857 8.32279C39.9505 8.47838 39.9999 8.6565 39.9999 8.83804V9.42465M35.7143 3.80822V9.42465H39.9999M39.9999 9.42465V11.8008M39.9999 11.8008H38.7755" stroke="#D51218" stroke-width="0.5" stroke-linecap="round" stroke-linejoin="round"/>
<path d="M8.72983 15.6893C8.72983 17.235 7.54939 18.4635 6.12273 18.4635C4.69607 18.4635 3.51562 17.235 3.51562 15.6893C3.51562 14.1435 4.69607 12.915 6.12273 12.915C7.54939 12.915 8.72983 14.1435 8.72983 15.6893Z" fill="white" stroke="#D51218" stroke-width="0.5"/>
<mask id="path-11-inside-1_506_12732" fill="white">
<ellipse cx="6.123" cy="15.6894" rx="0.408158" ry="0.432033"/>
</mask>
<ellipse cx="6.123" cy="15.6894" rx="0.408158" ry="0.432033" fill="#D51218"/>
<path d="M6.03116 15.6894C6.03116 15.6798 6.03515 15.6653 6.04816 15.6515C6.06164 15.6372 6.08815 15.6214 6.123 15.6214V16.6214C6.65096 16.6214 7.03116 16.1769 7.03116 15.6894H6.03116ZM6.123 15.6214C6.15786 15.6214 6.18437 15.6372 6.19784 15.6515C6.21085 15.6653 6.21484 15.6798 6.21484 15.6894H5.21484C5.21484 16.1769 5.59504 16.6214 6.123 16.6214V15.6214ZM6.21484 15.6894C6.21484 15.6989 6.21085 15.7135 6.19784 15.7272C6.18437 15.7415 6.15786 15.7573 6.123 15.7573V14.7573C5.59504 14.7573 5.21484 15.2018 5.21484 15.6894H6.21484ZM6.123 15.7573C6.08815 15.7573 6.06164 15.7415 6.04816 15.7272C6.03515 15.7135 6.03116 15.6989 6.03116 15.6894H7.03116C7.03116 15.2018 6.65096 14.7573 6.123 14.7573V15.7573Z" fill="#D51218" mask="url(#path-11-inside-1_506_12732)"/>
<path d="M24.2396 15.6893C24.2396 17.235 23.0592 18.4635 21.6325 18.4635C20.2058 18.4635 19.0254 17.235 19.0254 15.6893C19.0254 14.1435 20.2058 12.915 21.6325 12.915C23.0592 12.915 24.2396 14.1435 24.2396 15.6893Z" fill="white" stroke="#D51218" stroke-width="0.5"/>
<mask id="path-14-inside-2_506_12732" fill="white">
<ellipse cx="21.6328" cy="15.6894" rx="0.408158" ry="0.432033"/>
</mask>
<ellipse cx="21.6328" cy="15.6894" rx="0.408158" ry="0.432033" fill="#D51218"/>
<path d="M21.5409 15.6894C21.5409 15.6798 21.5449 15.6653 21.5579 15.6515C21.5714 15.6372 21.5979 15.6214 21.6328 15.6214V16.6214C22.1607 16.6214 22.5409 16.1769 22.5409 15.6894H21.5409ZM21.6328 15.6214C21.6676 15.6214 21.6941 15.6372 21.7076 15.6515C21.7206 15.6653 21.7246 15.6798 21.7246 15.6894H20.7246C20.7246 16.1769 21.1048 16.6214 21.6328 16.6214V15.6214ZM21.7246 15.6894C21.7246 15.6989 21.7206 15.7135 21.7076 15.7272C21.6941 15.7415 21.6676 15.7573 21.6328 15.7573V14.7573C21.1048 14.7573 20.7246 15.2018 20.7246 15.6894H21.7246ZM21.6328 15.7573C21.5979 15.7573 21.5714 15.7415 21.5579 15.7272C21.5449 15.7135 21.5409 15.6989 21.5409 15.6894H22.5409C22.5409 15.2018 22.1607 14.7573 21.6328 14.7573V15.7573Z" fill="#D51218" mask="url(#path-14-inside-2_506_12732)"/>
<path d="M37.7084 15.6893C37.7084 17.235 36.5279 18.4635 35.1012 18.4635C33.6746 18.4635 32.4941 17.235 32.4941 15.6893C32.4941 14.1435 33.6746 12.915 35.1012 12.915C36.5279 12.915 37.7084 14.1435 37.7084 15.6893Z" fill="white" stroke="#D51218" stroke-width="0.5"/>
<mask id="path-17-inside-3_506_12732" fill="white">
<ellipse cx="35.1015" cy="15.6894" rx="0.408158" ry="0.432033"/>
</mask>
<ellipse cx="35.1015" cy="15.6894" rx="0.408158" ry="0.432033" fill="#D51218"/>
<path d="M35.0097 15.6894C35.0097 15.6798 35.0137 15.6653 35.0267 15.6515C35.0402 15.6372 35.0667 15.6214 35.1015 15.6214V16.6214C35.6295 16.6214 36.0097 16.1769 36.0097 15.6894H35.0097ZM35.1015 15.6214C35.1364 15.6214 35.1629 15.6372 35.1764 15.6515C35.1894 15.6653 35.1934 15.6798 35.1934 15.6894H34.1934C34.1934 16.1769 34.5736 16.6214 35.1015 16.6214V15.6214ZM35.1934 15.6894C35.1934 15.6989 35.1894 15.7135 35.1764 15.7272C35.1629 15.7415 35.1364 15.7573 35.1015 15.7573V14.7573C34.5736 14.7573 34.1934 15.2018 34.1934 15.6894H35.1934ZM35.1015 15.7573C35.0667 15.7573 35.0402 15.7415 35.0267 15.7272C35.0137 15.7135 35.0097 15.6989 35.0097 15.6894H36.0097C36.0097 15.2018 35.6295 14.7573 35.1015 14.7573V15.7573Z" fill="#D51218" mask="url(#path-17-inside-3_506_12732)"/>
</svg>
