<svg width="220" height="131" viewBox="0 0 220 131" fill="none" xmlns="http://www.w3.org/2000/svg">
<path d="M286.829 90.5244H68.817V110.012H286.829C287.105 110.012 287.329 109.788 287.329 109.512V91.0244C287.329 90.7483 287.105 90.5244 286.829 90.5244Z" stroke="url(#paint0_radial_506_12856)"/>
<path d="M68.3164 30.0244V11L34.1427 17.8347C32.7404 18.1152 31.7311 19.3464 31.7311 20.7765V30.0244M68.3164 30.0244V109.049H2.99936C1.89479 109.049 0.999364 108.153 0.999364 107.049V84.1707M68.3164 30.0244H31.7311M31.7311 30.0244H22.5851C21.9013 30.0244 21.2648 30.3737 20.8977 30.9506L1.1557 61.9738C1.0536 62.1343 0.999364 62.3205 0.999364 62.5107V68.0731M31.7311 30.0244V68.0731H0.999364M0.999364 68.0731V84.1707M0.999364 84.1707H9.77985" stroke="url(#paint1_radial_506_12856)" stroke-linecap="round" stroke-linejoin="round"/>
<circle r="19.9878" transform="matrix(-1 0 0 1 132.708 110.512)" fill="white" stroke="url(#paint2_radial_506_12856)"/>
<circle r="2.42683" transform="matrix(-1 0 0 1 132.707 110.512)" fill="url(#paint3_radial_506_12856)" stroke="url(#paint4_radial_506_12856)"/>
<circle r="19.9878" transform="matrix(-1 0 0 1 36.1216 110.512)" fill="white" stroke="url(#paint5_radial_506_12856)"/>
<circle r="2.42683" transform="matrix(-1 0 0 1 36.121 110.512)" fill="url(#paint6_radial_506_12856)" stroke="url(#paint7_radial_506_12856)"/>
<path d="M145.153 4C145.153 2.067 143.586 0.5 141.653 0.5H130.418H117.378H104.723C102.79 0.5 101.223 2.067 101.223 4V44.6883H145.153V4Z" stroke="url(#paint8_radial_506_12856)"/>
<path d="M115.829 39.3784H109.89" stroke="url(#paint9_radial_506_12856)" stroke-linecap="round" stroke-linejoin="round"/>
<path d="M167.102 48.9302C167.102 46.9972 165.535 45.4302 163.602 45.4302H152.367H139.327H123.171V89.6185H167.102V48.9302Z" stroke="url(#paint10_radial_506_12856)"/>
<path d="M137.777 84.3086H131.838" stroke="url(#paint11_radial_506_12856)" stroke-linecap="round" stroke-linejoin="round"/>
<path d="M123.43 45.4302H108.695H95.6547H82.9996C81.0666 45.4302 79.4996 46.9972 79.4996 48.9302V89.6185H123.43V45.4302Z" stroke="url(#paint12_radial_506_12856)"/>
<path d="M94.1055 84.3086H88.1664" stroke="url(#paint13_radial_506_12856)" stroke-linecap="round" stroke-linejoin="round"/>
<path d="M241.153 4C241.153 2.067 239.586 0.5 237.653 0.5H226.418H213.378H200.723C198.79 0.5 197.223 2.067 197.223 4V44.6883H241.153V4Z" stroke="url(#paint14_radial_506_12856)"/>
<path d="M211.829 39.3784H205.89" stroke="url(#paint15_radial_506_12856)" stroke-linecap="round" stroke-linejoin="round"/>
<path d="M263.102 48.9302C263.102 46.9972 261.535 45.4302 259.602 45.4302H248.367H235.327H219.171V89.6185H263.102V48.9302Z" stroke="url(#paint16_radial_506_12856)"/>
<path d="M219.43 45.4302H204.695H191.655H179C177.067 45.4302 175.5 46.9972 175.5 48.9302V89.6185H219.43V45.4302Z" stroke="url(#paint17_radial_506_12856)"/>
<path d="M190.105 84.3086H184.166" stroke="url(#paint18_radial_506_12856)" stroke-linecap="round" stroke-linejoin="round"/>
<defs>
<radialGradient id="paint0_radial_506_12856" cx="0" cy="0" r="1" gradientUnits="userSpaceOnUse" gradientTransform="translate(178.351 100.253) rotate(180) scale(116.868 9.66473)">
<stop stop-color="#D81719"/>
<stop offset="0.3693" stop-color="#D41719"/>
<stop offset="0.7512" stop-color="#C7181A"/>
<stop offset="1" stop-color="#BA181B"/>
</radialGradient>
<radialGradient id="paint1_radial_506_12856" cx="0" cy="0" r="1" gradientUnits="userSpaceOnUse" gradientTransform="translate(34.7433 59.9498) rotate(180) scale(35.8394 46.2526)">
<stop stop-color="#D81719"/>
<stop offset="0.3693" stop-color="#D41719"/>
<stop offset="0.7512" stop-color="#C7181A"/>
<stop offset="1" stop-color="#BA181B"/>
</radialGradient>
<radialGradient id="paint2_radial_506_12856" cx="0" cy="0" r="1" gradientUnits="userSpaceOnUse" gradientTransform="translate(20.4358 20.4566) scale(21.8153 19.3295)">
<stop stop-color="#D81719"/>
<stop offset="0.3693" stop-color="#D41719"/>
<stop offset="0.7512" stop-color="#C7181A"/>
<stop offset="1" stop-color="#BA181B"/>
</radialGradient>
<radialGradient id="paint3_radial_506_12856" cx="0" cy="0" r="1" gradientUnits="userSpaceOnUse" gradientTransform="translate(2.9194 2.92238) scale(3.11647 2.76135)">
<stop stop-color="#D81719"/>
<stop offset="0.3693" stop-color="#D41719"/>
<stop offset="0.7512" stop-color="#C7181A"/>
<stop offset="1" stop-color="#BA181B"/>
</radialGradient>
<radialGradient id="paint4_radial_506_12856" cx="0" cy="0" r="1" gradientUnits="userSpaceOnUse" gradientTransform="translate(2.9194 2.92238) scale(3.11647 2.76135)">
<stop stop-color="#D81719"/>
<stop offset="0.3693" stop-color="#D41719"/>
<stop offset="0.7512" stop-color="#C7181A"/>
<stop offset="1" stop-color="#BA181B"/>
</radialGradient>
<radialGradient id="paint5_radial_506_12856" cx="0" cy="0" r="1" gradientUnits="userSpaceOnUse" gradientTransform="translate(20.4358 20.4566) scale(21.8153 19.3295)">
<stop stop-color="#D81719"/>
<stop offset="0.3693" stop-color="#D41719"/>
<stop offset="0.7512" stop-color="#C7181A"/>
<stop offset="1" stop-color="#BA181B"/>
</radialGradient>
<radialGradient id="paint6_radial_506_12856" cx="0" cy="0" r="1" gradientUnits="userSpaceOnUse" gradientTransform="translate(2.9194 2.92238) scale(3.11647 2.76135)">
<stop stop-color="#D81719"/>
<stop offset="0.3693" stop-color="#D41719"/>
<stop offset="0.7512" stop-color="#C7181A"/>
<stop offset="1" stop-color="#BA181B"/>
</radialGradient>
<radialGradient id="paint7_radial_506_12856" cx="0" cy="0" r="1" gradientUnits="userSpaceOnUse" gradientTransform="translate(2.9194 2.92238) scale(3.11647 2.76135)">
<stop stop-color="#D81719"/>
<stop offset="0.3693" stop-color="#D41719"/>
<stop offset="0.7512" stop-color="#C7181A"/>
<stop offset="1" stop-color="#BA181B"/>
</radialGradient>
<radialGradient id="paint8_radial_506_12856" cx="0" cy="0" r="1" gradientUnits="userSpaceOnUse" gradientTransform="translate(123.245 22.5598) rotate(180) scale(23.9206 21.3167)">
<stop stop-color="#D81719"/>
<stop offset="0.3693" stop-color="#D41719"/>
<stop offset="0.7512" stop-color="#C7181A"/>
<stop offset="1" stop-color="#BA181B"/>
</radialGradient>
<radialGradient id="paint9_radial_506_12856" cx="0" cy="0" r="1" gradientUnits="userSpaceOnUse" gradientTransform="translate(112.867 39.8777) rotate(180) scale(3.16192 0.471731)">
<stop stop-color="#D81719"/>
<stop offset="0.3693" stop-color="#D41719"/>
<stop offset="0.7512" stop-color="#C7181A"/>
<stop offset="1" stop-color="#BA181B"/>
</radialGradient>
<radialGradient id="paint10_radial_506_12856" cx="0" cy="0" r="1" gradientUnits="userSpaceOnUse" gradientTransform="translate(145.193 67.49) rotate(180) scale(23.9206 21.3167)">
<stop stop-color="#D81719"/>
<stop offset="0.3693" stop-color="#D41719"/>
<stop offset="0.7512" stop-color="#C7181A"/>
<stop offset="1" stop-color="#BA181B"/>
</radialGradient>
<radialGradient id="paint11_radial_506_12856" cx="0" cy="0" r="1" gradientUnits="userSpaceOnUse" gradientTransform="translate(134.815 84.8078) rotate(180) scale(3.16192 0.471731)">
<stop stop-color="#D81719"/>
<stop offset="0.3693" stop-color="#D41719"/>
<stop offset="0.7512" stop-color="#C7181A"/>
<stop offset="1" stop-color="#BA181B"/>
</radialGradient>
<radialGradient id="paint12_radial_506_12856" cx="0" cy="0" r="1" gradientUnits="userSpaceOnUse" gradientTransform="translate(101.522 67.49) rotate(180) scale(23.9206 21.3167)">
<stop stop-color="#D81719"/>
<stop offset="0.3693" stop-color="#D41719"/>
<stop offset="0.7512" stop-color="#C7181A"/>
<stop offset="1" stop-color="#BA181B"/>
</radialGradient>
<radialGradient id="paint13_radial_506_12856" cx="0" cy="0" r="1" gradientUnits="userSpaceOnUse" gradientTransform="translate(91.1435 84.8078) rotate(180) scale(3.16192 0.471731)">
<stop stop-color="#D81719"/>
<stop offset="0.3693" stop-color="#D41719"/>
<stop offset="0.7512" stop-color="#C7181A"/>
<stop offset="1" stop-color="#BA181B"/>
</radialGradient>
<radialGradient id="paint14_radial_506_12856" cx="0" cy="0" r="1" gradientUnits="userSpaceOnUse" gradientTransform="translate(219.245 22.5598) rotate(180) scale(23.9206 21.3167)">
<stop stop-color="#D81719"/>
<stop offset="0.3693" stop-color="#D41719"/>
<stop offset="0.7512" stop-color="#C7181A"/>
<stop offset="1" stop-color="#BA181B"/>
</radialGradient>
<radialGradient id="paint15_radial_506_12856" cx="0" cy="0" r="1" gradientUnits="userSpaceOnUse" gradientTransform="translate(208.867 39.8777) rotate(180) scale(3.16192 0.471731)">
<stop stop-color="#D81719"/>
<stop offset="0.3693" stop-color="#D41719"/>
<stop offset="0.7512" stop-color="#C7181A"/>
<stop offset="1" stop-color="#BA181B"/>
</radialGradient>
<radialGradient id="paint16_radial_506_12856" cx="0" cy="0" r="1" gradientUnits="userSpaceOnUse" gradientTransform="translate(241.193 67.49) rotate(180) scale(23.9206 21.3167)">
<stop stop-color="#D81719"/>
<stop offset="0.3693" stop-color="#D41719"/>
<stop offset="0.7512" stop-color="#C7181A"/>
<stop offset="1" stop-color="#BA181B"/>
</radialGradient>
<radialGradient id="paint17_radial_506_12856" cx="0" cy="0" r="1" gradientUnits="userSpaceOnUse" gradientTransform="translate(197.522 67.49) rotate(180) scale(23.9206 21.3167)">
<stop stop-color="#D81719"/>
<stop offset="0.3693" stop-color="#D41719"/>
<stop offset="0.7512" stop-color="#C7181A"/>
<stop offset="1" stop-color="#BA181B"/>
</radialGradient>
<radialGradient id="paint18_radial_506_12856" cx="0" cy="0" r="1" gradientUnits="userSpaceOnUse" gradientTransform="translate(187.143 84.8078) rotate(180) scale(3.16192 0.471731)">
<stop stop-color="#D81719"/>
<stop offset="0.3693" stop-color="#D41719"/>
<stop offset="0.7512" stop-color="#C7181A"/>
<stop offset="1" stop-color="#BA181B"/>
</radialGradient>
</defs>
</svg>
