<svg width="94" height="87" viewBox="0 0 94 87" fill="none" xmlns="http://www.w3.org/2000/svg">
<rect x="16.9707" y="-26.2929" width="135" height="23" transform="rotate(45 16.9707 -26.2929)" fill="white" stroke="#D51218"/>
<path d="M39.1215 5.60624L38.4597 9.64524L42.4902 8.9749L43.2284 9.71312L38.3494 10.5362L37.4499 15.814L36.7117 15.0758L37.4245 10.6804L33.0291 11.3932L32.3078 10.672L37.5517 9.78949L38.4003 4.88499L39.1215 5.60624ZM42.8773 12.3149L43.4798 12.9174L39.9329 16.4642L46.4581 15.8957L46.9927 16.4303L42.5294 20.8935L41.927 20.2911L45.4738 16.7442L38.9571 17.3212L38.4141 16.7782L42.8773 12.3149ZM51.3242 21.831L49.6356 20.1424L45.707 24.0711L45.1045 23.4686L49.0332 19.5399L47.3446 17.8514L47.8792 17.3168L51.8588 21.2964L51.3242 21.831ZM58.9557 28.3933L54.4924 32.8565L53.8899 32.2541L57.8186 28.3254L55.0185 25.5252L51.0898 29.4539L50.4874 28.8515L54.9506 24.3882L58.9557 28.3933ZM63.0017 32.3714C63.4203 32.79 63.7031 33.2652 63.8502 33.7969C64.0029 34.323 64.0029 34.8548 63.8502 35.3922C63.6975 35.9296 63.4005 36.4189 62.9593 36.8601C62.5124 37.307 62.0202 37.6068 61.4828 37.7596C60.9454 37.9123 60.4108 37.9151 59.8791 37.768C59.3587 37.621 58.8863 37.3353 58.4621 36.911C58.1 36.549 57.8455 36.1474 57.6984 35.7061C57.5626 35.2649 57.5456 34.8067 57.6475 34.3315L55.1613 36.8177L54.5588 36.2152L60.6682 30.1058L61.2452 30.6828L60.3628 31.5653C60.8379 31.4522 61.3018 31.4635 61.7543 31.5992C62.2126 31.7407 62.6283 31.9981 63.0017 32.3714ZM58.9542 36.334C59.2653 36.6452 59.6189 36.8573 60.0149 36.9704C60.4165 37.0779 60.821 37.0694 61.2283 36.945C61.6412 36.8262 62.0174 36.5971 62.3568 36.2577C62.6962 35.9183 62.9225 35.5449 63.0356 35.1376C63.1601 34.7303 63.1686 34.3259 63.0611 33.9242C62.9536 33.5226 62.7443 33.1662 62.4332 32.8551C62.1164 32.5383 61.7572 32.3262 61.3555 32.2187C60.9596 32.1169 60.5551 32.1253 60.1421 32.2441C59.7405 32.3629 59.37 32.592 59.0306 32.9314C58.6912 33.2708 58.4592 33.6442 58.3348 34.0515C58.216 34.4644 58.2075 34.8689 58.3093 35.2649C58.4225 35.6609 58.6374 36.0173 58.9542 36.334ZM63.8209 42.2699C63.391 41.84 63.0997 41.3563 62.9469 40.8189C62.7998 40.2758 62.7998 39.7328 62.9469 39.1897C63.094 38.6467 63.3853 38.1574 63.8209 37.7218C64.2565 37.2862 64.7458 36.9949 65.2889 36.8478C65.8319 36.7007 66.3722 36.7035 66.9096 36.8563C67.447 37.009 67.9306 37.3003 68.3605 37.7303C68.7905 38.1602 69.0818 38.6438 69.2345 39.1812C69.3873 39.7186 69.3873 40.2561 69.2345 40.7935C69.0874 41.3365 68.7961 41.8258 68.3605 42.2614C67.925 42.697 67.4356 42.9883 66.8926 43.1354C66.3552 43.2881 65.8149 43.291 65.2719 43.1439C64.7345 42.9911 64.2508 42.6998 63.8209 42.2699ZM64.3555 41.7353C64.6723 42.0521 65.0258 42.2642 65.4161 42.3717C65.8178 42.4792 66.2222 42.4707 66.6295 42.3463C67.0368 42.2218 67.4102 41.9899 67.7496 41.6505C68.089 41.3111 68.3209 40.9377 68.4454 40.5304C68.5698 40.1231 68.5755 39.7215 68.4624 39.3255C68.3605 38.9295 68.1512 38.5731 67.8344 38.2564C67.5177 37.9396 67.1585 37.7274 66.7568 37.62C66.3665 37.5125 65.9649 37.5181 65.5519 37.6369C65.1446 37.7614 64.7713 37.9933 64.4318 38.3327C64.0924 38.6721 63.8605 39.0455 63.7361 39.4528C63.6173 39.8657 63.6088 40.2702 63.7106 40.6662C63.8237 41.0622 64.0387 41.4185 64.3555 41.7353ZM72.2707 49.5826L70.6669 51.1863L70.0984 50.6178L71.1761 49.5402L67.1795 45.5436L66.1019 46.6212L65.5333 46.0527L67.1371 44.449L67.3916 44.7036C67.7084 44.9864 68.1327 44.9694 68.6644 44.6527C69.1962 44.3359 69.8637 43.8154 70.6669 43.0914L72.2197 41.6574L75.512 44.9496L71.5749 48.8868L72.2707 49.5826ZM71.1845 43.6769C70.5227 44.2821 69.9457 44.7517 69.4535 45.0854C68.9671 45.4135 68.5456 45.5521 68.1892 45.5012L70.9724 48.2844L74.375 44.8818L72.2282 42.735L71.1845 43.6769ZM78.9517 48.3214C79.5343 48.9041 79.8342 49.498 79.8511 50.1033C79.8738 50.703 79.5994 51.2884 79.0281 51.8598L76.2619 54.626L75.6849 54.049L76.3806 53.3532C76.013 53.4494 75.6311 53.4296 75.2351 53.2938C74.8448 53.1637 74.4686 52.9176 74.1066 52.5556C73.6088 52.0578 73.3316 51.543 73.275 51.0113C73.2185 50.4795 73.3853 50.0185 73.7757 49.6282C74.1547 49.2491 74.5959 49.0794 75.0994 49.119C75.6085 49.1643 76.1629 49.4867 76.7625 50.0864L78.1795 51.5034L78.4511 51.2319C78.8357 50.8472 79.0196 50.4484 79.0026 50.0354C78.9913 49.6168 78.7792 49.2011 78.3662 48.7881C78.0834 48.5053 77.7637 48.2818 77.4074 48.1178C77.0566 47.9481 76.7059 47.8519 76.3552 47.8293L76.5334 47.108C76.952 47.142 77.3706 47.2664 77.7892 47.4814C78.2135 47.6907 78.601 47.9707 78.9517 48.3214ZM74.6751 52.1737C75.0145 52.5132 75.3822 52.7281 75.7782 52.8186C76.1798 52.9035 76.5871 52.8582 77.0001 52.6829L77.7298 51.9531L76.3297 50.5531C75.5661 49.7894 74.9184 49.6734 74.3866 50.2052C74.1264 50.4654 74.0189 50.7708 74.0642 51.1216C74.1151 51.4666 74.3187 51.8174 74.6751 52.1737ZM83.7629 58.1559L82.7956 57.1886L80.81 59.1742L80.2076 58.5717L82.1931 56.5862L81.2258 55.6188L77.8741 56.2383L77.1529 55.517L81.0561 54.8212L81.7434 51.181L82.3968 51.8344L81.7434 55.1012L82.7107 56.0686L84.6708 54.1085L85.2733 54.7109L83.3132 56.671L84.2805 57.6383L87.5558 56.9934L88.2092 57.6468L84.5605 58.3426L83.8732 62.2374L83.152 61.5161L83.7629 58.1559Z" fill="#D51218"/>
</svg>
