<svg width="252" height="91" viewBox="0 0 252 91" fill="none" xmlns="http://www.w3.org/2000/svg">
<path d="M1 90V4.5C1 3.94772 1.44772 3.5 2 3.5H246.5H250.5C251.052 3.5 251.5 3.94771 251.5 4.5V85V90L247.207 85.7071C246.817 85.3166 246.183 85.3166 245.793 85.7071L242.207 89.2929C241.817 89.6834 241.183 89.6834 240.793 89.2929L237.207 85.7071C236.817 85.3166 236.183 85.3166 235.793 85.7071L232.207 89.2929C231.817 89.6834 231.183 89.6834 230.793 89.2929L227.207 85.7071C226.817 85.3166 226.183 85.3166 225.793 85.7071L222.207 89.2929C221.817 89.6834 221.183 89.6834 220.793 89.2929L217.207 85.7071C216.817 85.3166 216.183 85.3166 215.793 85.7071L212.207 89.2929C211.817 89.6834 211.183 89.6834 210.793 89.2929L207.207 85.7071C206.817 85.3166 206.183 85.3166 205.793 85.7071L202.207 89.2929C201.817 89.6834 201.183 89.6834 200.793 89.2929L197.207 85.7071C196.817 85.3166 196.183 85.3166 195.793 85.7071L192.207 89.2929C191.817 89.6834 191.183 89.6834 190.793 89.2929L187.207 85.7071C186.817 85.3166 186.183 85.3166 185.793 85.7071L182.207 89.2929C181.817 89.6834 181.183 89.6834 180.793 89.2929L177.207 85.7071C176.817 85.3166 176.183 85.3166 175.793 85.7071L172.207 89.2929C171.817 89.6834 171.183 89.6834 170.793 89.2929L167.207 85.7071C166.817 85.3166 166.183 85.3166 165.793 85.7071L162.207 89.2929C161.817 89.6834 161.183 89.6834 160.793 89.2929L157.207 85.7071C156.817 85.3166 156.183 85.3166 155.793 85.7071L152.207 89.2929C151.817 89.6834 151.183 89.6834 150.793 89.2929L147.207 85.7071C146.817 85.3166 146.183 85.3166 145.793 85.7071L142.207 89.2929C141.817 89.6834 141.183 89.6834 140.793 89.2929L137.207 85.7071C136.817 85.3166 136.183 85.3166 135.793 85.7071L132.207 89.2929C131.817 89.6834 131.183 89.6834 130.793 89.2929L127.207 85.7071C126.817 85.3166 126.183 85.3166 125.793 85.7071L122.207 89.2929C121.817 89.6834 121.183 89.6834 120.793 89.2929L117.207 85.7071C116.817 85.3166 116.183 85.3166 115.793 85.7071L112.207 89.2929C111.817 89.6834 111.183 89.6834 110.793 89.2929L107.207 85.7071C106.817 85.3166 106.183 85.3166 105.793 85.7071L102.207 89.2929C101.817 89.6834 101.183 89.6834 100.793 89.2929L97.2071 85.7071C96.8166 85.3166 96.1834 85.3166 95.7929 85.7071L92.2071 89.2929C91.8166 89.6834 91.1834 89.6834 90.7929 89.2929L87.2071 85.7071C86.8166 85.3166 86.1834 85.3166 85.7929 85.7071L82.2071 89.2929C81.8166 89.6834 81.1834 89.6834 80.7929 89.2929L77.2071 85.7071C76.8166 85.3166 76.1834 85.3166 75.7929 85.7071L72.2071 89.2929C71.8166 89.6834 71.1834 89.6834 70.7929 89.2929L67.2071 85.7071C66.8166 85.3166 66.1834 85.3166 65.7929 85.7071L62.2071 89.2929C61.8166 89.6834 61.1834 89.6834 60.7929 89.2929L57.2071 85.7071C56.8166 85.3166 56.1834 85.3166 55.7929 85.7071L52.2071 89.2929C51.8166 89.6834 51.1834 89.6834 50.7929 89.2929L47.2071 85.7071C46.8166 85.3166 46.1834 85.3166 45.7929 85.7071L42.2071 89.2929C41.8166 89.6834 41.1834 89.6834 40.7929 89.2929L37.2071 85.7071C36.8166 85.3166 36.1834 85.3166 35.7929 85.7071L32.2071 89.2929C31.8166 89.6834 31.1834 89.6834 30.7929 89.2929L27.2071 85.7071C26.8166 85.3166 26.1834 85.3166 25.7929 85.7071L22.2071 89.2929C21.8166 89.6834 21.1834 89.6834 20.7929 89.2929L17.2071 85.7071C16.8166 85.3166 16.1834 85.3166 15.7929 85.7071L12.2071 89.2929C11.8166 89.6834 11.1834 89.6834 10.7929 89.2929L7.17424 85.6742C6.79679 85.2968 6.18943 85.2823 5.79446 85.6414L1 90Z" fill="white" stroke="#BDBDBD" stroke-opacity="0.5" stroke-linecap="round" stroke-linejoin="round"/>
<rect x="0.5" y="0.5" width="251" height="3" fill="#D51218" stroke="#D51218"/>
</svg>
