<svg width="25" height="25" viewBox="0 0 25 25" fill="none" xmlns="http://www.w3.org/2000/svg">
<path d="M20.2593 21.7741L19.3258 18.9733C18.9996 17.9955 18.1673 17.2737 17.1528 17.0891L14.4581 16.5987V16.3899C14.927 16.1177 15.3351 15.7536 15.6601 15.3225H16.4742C17.1411 15.3225 17.6839 14.7798 17.6839 14.1129V9.27416C17.6839 6.38384 15.3323 4.03223 12.4419 4.03223C9.55161 4.03223 7.2 6.38384 7.2 9.27416V12.0967C7.2 12.8742 7.75282 13.5246 8.48589 13.6762C8.7121 14.835 9.43629 15.8157 10.4258 16.3899V16.5987L7.73064 17.0891C6.71653 17.2737 5.88387 17.9955 5.55806 18.9733L5.39677 19.4576L4.02339 18.0842C3.86613 17.927 3.86613 17.6709 4.02339 17.5137L5.61613 15.9213L2.62661 12.9318L0.826613 14.7318C0.293548 15.2649 0 15.9737 0 16.7278C0 17.4818 0.293548 18.1903 0.826613 18.7233L6.27621 24.1729C6.80927 24.706 7.51814 24.9999 8.27218 24.9999C9.02621 24.9999 9.73468 24.706 10.2552 24.185L12.2194 22.3854L11.6069 21.7741H20.2593ZM16.8774 14.1129C16.8774 14.3354 16.6964 14.5161 16.4742 14.5161H16.1351C16.252 14.2496 16.3407 13.9685 16.398 13.6762C16.5706 13.6403 16.7294 13.5717 16.8774 13.4854V14.1129ZM16.4742 12.7911V11.4024C16.7141 11.5423 16.8774 11.7996 16.8774 12.0967C16.8774 12.3939 16.7141 12.6512 16.4742 12.7911ZM8.40968 12.7911C8.16976 12.6512 8.00645 12.3939 8.00645 12.0967C8.00645 11.7996 8.16976 11.5423 8.40968 11.4024V12.7911ZM8.40968 10.0806V10.5411C8.26613 10.5786 8.13145 10.635 8.00645 10.708V9.27416C8.00645 6.82859 9.99637 4.83868 12.4419 4.83868C14.8875 4.83868 16.8774 6.82859 16.8774 9.27416V10.708C16.7524 10.635 16.6177 10.5782 16.4742 10.5411V10.0806H16.071C14.8786 10.0806 13.7577 9.61609 12.9141 8.77295L12.4419 8.30077L11.9698 8.77295C11.1262 9.61609 10.0052 10.0806 8.8129 10.0806H8.40968ZM9.21613 12.9032V10.8717C10.427 10.7806 11.556 10.281 12.4419 9.43867C13.3278 10.281 14.4569 10.781 15.6677 10.8717V12.9032C15.6677 13.4911 15.5073 14.0411 15.2314 14.5161H12.4419V15.3225H14.5685C14 15.8229 13.2569 16.129 12.4419 16.129C10.6633 16.129 9.21613 14.6818 9.21613 12.9032ZM13.6516 16.7495V16.7685L12.4419 17.9782L11.2323 16.7685V16.7495C11.6145 16.8697 12.0206 16.9354 12.4419 16.9354C12.8633 16.9354 13.2694 16.8697 13.6516 16.7495ZM6.32258 19.2282C6.55524 18.5298 7.15 18.0141 7.87459 17.8818L10.6931 17.3697L12.4419 19.1185L14.1903 17.3701L17.0085 17.8822C17.7331 18.0145 18.3278 18.5298 18.5605 19.2286L19.1407 20.9677H10.8004L9.22984 19.3971L7.48468 20.9758C7.33266 21.1286 7.06693 21.1286 6.91452 20.9758L6.03387 20.0951L6.32258 19.2282ZM2.62621 14.0721L4.4754 15.9213L4.0375 16.3592L2.18831 14.51L2.62621 14.0721ZM9.69677 23.6036C9.31613 23.9834 8.80968 24.1935 8.27137 24.1935C7.73306 24.1935 7.22661 23.9834 6.84556 23.6028L1.39597 18.1536C1.01532 17.7729 0.805645 17.2665 0.805645 16.7282C0.805645 16.1895 1.01532 15.683 1.39597 15.3024L1.61774 15.0806L3.46693 16.9298L3.45242 16.9443C2.98105 17.4161 2.98105 18.1834 3.45242 18.6552L6.34395 21.5467C6.57258 21.7749 6.87621 21.9012 7.19959 21.9012C7.52298 21.9012 7.82661 21.7754 8.04032 21.5608L8.07056 21.5338L9.92822 23.3915L9.69677 23.6036ZM10.5234 22.8455L8.66976 20.9919L9.20242 20.5104L11.0528 22.3608L10.5234 22.8455Z" fill="#111111"/>
<path d="M23.7328 0H18.0876C17.4207 0 16.8779 0.542741 16.8779 1.20968V4.43548C16.8779 5.10241 17.4207 5.64515 18.0876 5.64515H19.1646L18.7477 8.07701L22.6388 5.64515H23.7328C24.3997 5.64515 24.9424 5.10241 24.9424 4.43548V1.20968C24.9424 0.542741 24.3997 0 23.7328 0ZM24.136 4.43548C24.136 4.65766 23.9549 4.8387 23.7328 4.8387H22.4074L19.8465 6.43911L20.1211 4.8387H18.0876C17.8654 4.8387 17.6844 4.65766 17.6844 4.43548V1.20968C17.6844 0.987499 17.8654 0.806451 18.0876 0.806451H23.7328C23.9549 0.806451 24.136 0.987499 24.136 1.20968V4.43548Z" fill="#111111"/>
<path d="M23.3299 1.61279H18.4912V2.41924H23.3299V1.61279Z" fill="#111111"/>
<path d="M21.717 3.22559H18.4912V4.03204H21.717V3.22559Z" fill="#111111"/>
<path d="M23.3289 3.22559H22.5225V4.03204H23.3289V3.22559Z" fill="#111111"/>
<path d="M12.4423 1.20947C7.17377 1.20947 2.63548 4.85382 1.45564 9.93729L0.69153 8.6635L0 9.07841L1.41733 11.4401L3.77902 10.0228L3.3641 9.33124L2.27136 9.98688C3.4141 5.33648 7.59595 2.01592 12.4423 2.01592C13.5016 2.01592 14.5467 2.17318 15.5487 2.48366L15.7875 1.7135C14.708 1.37883 13.5826 1.20947 12.4423 1.20947Z" fill="#111111"/>
<path d="M24.7464 8.92808L22.3847 7.51074L20.9677 9.87284L21.6593 10.2878L22.3649 9.11155C22.7363 10.1982 22.9262 11.3349 22.9262 12.4999C22.9262 14.8978 22.0956 17.2422 20.5879 19.1007L21.2141 19.6087C22.8383 17.6071 23.7326 15.0821 23.7326 12.4999C23.7326 11.2664 23.5339 10.062 23.1464 8.90873L24.3314 9.61961L24.7464 8.92808Z" fill="#111111"/>
</svg>
