<svg width="22" height="22" viewBox="0 0 22 22" fill="none" xmlns="http://www.w3.org/2000/svg">
<path d="M16 8.36924L6 3.19939M1.3 5.93871L11 10.9691L20.7 5.93871M11 21V10.9591M21 14.9436V6.97466C20.9996 6.6253 20.8967 6.28217 20.7017 5.9797C20.5067 5.67723 20.2264 5.42606 19.8889 5.25138L12.1111 1.26691C11.7733 1.09205 11.3901 1 11 1C10.6099 1 10.2267 1.09205 9.88889 1.26691L2.11111 5.25138C1.77362 5.42606 1.49331 5.67723 1.29829 5.9797C1.10327 6.28217 1.0004 6.6253 1 6.97466V14.9436C1.0004 15.293 1.10327 15.6361 1.29829 15.9386C1.49331 16.241 1.77362 16.4922 2.11111 16.6669L9.88889 20.6514C10.2267 20.8262 10.6099 20.9183 11 20.9183C11.3901 20.9183 11.7733 20.8262 12.1111 20.6514L19.8889 16.6669C20.2264 16.4922 20.5067 16.241 20.7017 15.9386C20.8967 15.6361 20.9996 15.293 21 14.9436Z" stroke="#111111" stroke-linecap="round" stroke-linejoin="round"/>
</svg>
