<svg width="23" height="25" viewBox="0 0 23 25" fill="none" xmlns="http://www.w3.org/2000/svg">
<path d="M5.50317 15.8384C5.64599 15.838 5.77885 15.7643 5.85494 15.6435C5.93103 15.5224 5.93978 15.3711 5.87813 15.2421C4.22693 11.7767 3.35189 9.24375 3.35189 7.91665C3.35189 4.00471 6.52327 0.833331 10.4352 0.833331C14.3474 0.833331 17.5185 4.00471 17.5185 7.91665C17.5185 9.24335 16.6457 11.7745 14.9939 15.237C14.9123 15.4408 15.0027 15.6732 15.2008 15.768C15.3988 15.8628 15.6364 15.7877 15.7441 15.5963C17.477 11.9708 18.3519 9.38698 18.3519 7.91665C18.3519 3.5443 14.8076 0 10.4352 0C6.06307 0 2.51855 3.5443 2.51855 7.91665C2.51855 9.38739 3.39604 11.9728 5.12699 15.6008C5.19596 15.7458 5.34245 15.8384 5.50317 15.8384Z" fill="#111111"/>
<path d="M7.51855 7.91668C7.51855 9.5276 8.8245 10.8334 10.4352 10.8334C12.0461 10.8334 13.3519 9.5276 13.3519 7.91668C13.3519 6.30575 12.0461 5 10.4352 5C8.82511 5.00183 7.52039 6.30656 7.51855 7.91668ZM12.5186 7.91668C12.5186 9.06719 11.5859 10 10.4352 10C9.28471 10 8.35189 9.06719 8.35189 7.91668C8.35189 6.76616 9.28471 5.83334 10.4352 5.83334C11.5853 5.83476 12.5173 6.76657 12.5186 7.91668Z" fill="#111111"/>
<path d="M20.8515 15C20.0845 14.9988 19.3791 15.4197 19.0162 16.0954C18.653 16.7708 18.6911 17.5913 19.1153 18.2304L17.9348 19.4108L15.0003 16.4762C14.9628 16.4532 14.9272 16.4274 14.8937 16.3991C14.8886 16.3967 14.8829 16.3991 14.8778 16.3951C14.8475 16.3824 14.8157 16.3739 14.7832 16.3692C14.7633 16.3639 14.7429 16.3601 14.7224 16.3574C14.688 16.3576 14.6536 16.3621 14.6202 16.3709C14.6027 16.3731 14.585 16.3765 14.5677 16.3808C14.5362 16.394 14.5061 16.4111 14.4786 16.4317C14.4615 16.441 14.4453 16.4518 14.43 16.4638C14.4241 16.4691 14.4166 16.4707 14.4111 16.4762C14.3907 16.5002 14.3734 16.5265 14.359 16.5546C14.3505 16.5645 14.3423 16.5749 14.335 16.5859L14.3236 16.6079L14.3191 16.617C12.7973 19.6617 11.1453 22.5449 10.4349 23.762C9.72664 22.5454 8.07239 19.6621 6.55079 16.617L6.54611 16.6079L6.53492 16.5859C6.52739 16.5749 6.51905 16.5643 6.5103 16.5542C6.49626 16.5263 6.47897 16.5 6.45863 16.4762C6.45334 16.4707 6.44581 16.4691 6.44031 16.4638C6.42465 16.4516 6.40817 16.4408 6.39067 16.4313C6.36341 16.4109 6.33371 16.3942 6.30238 16.3812C6.28488 16.3765 6.26718 16.3731 6.24907 16.3709C6.21591 16.3621 6.18173 16.3576 6.14735 16.3574C6.127 16.3599 6.10686 16.3637 6.08692 16.3692C6.05437 16.3739 6.02243 16.3824 5.99191 16.3951C5.98703 16.3971 5.98113 16.3951 5.97625 16.3991C5.94268 16.4274 5.90687 16.4532 5.86943 16.4762L3.25042 19.0955C2.35524 18.5008 1.15529 18.6808 0.47414 19.5119C-0.20701 20.343 -0.14801 21.555 0.610859 22.3159C1.36952 23.0768 2.58127 23.1392 3.4144 22.4605C4.24733 21.7816 4.43084 20.5821 3.83859 19.6855L6.04989 17.4742C7.99406 21.31 10.0558 24.7617 10.0774 24.7975C10.1527 24.9233 10.2884 25.0002 10.4349 25.0002C10.5813 25.0002 10.7172 24.9233 10.7923 24.7975C10.8141 24.7617 12.8756 21.31 14.8198 17.4742L17.6402 20.2946C17.803 20.4571 18.0667 20.4571 18.2294 20.2946L19.7044 18.8196C20.4481 19.3127 21.423 19.2775 22.1292 18.7323C22.8353 18.187 23.1159 17.2528 22.827 16.4087C22.5381 15.5646 21.7436 14.9982 20.8515 15ZM2.10154 22.0833C1.41123 22.0833 0.85154 21.5236 0.85154 20.8333C0.85154 20.143 1.41123 19.5833 2.10154 19.5833C2.79205 19.5833 3.35154 20.143 3.35154 20.8333C3.35154 21.5236 2.79205 22.0833 2.10154 22.0833ZM20.8515 18.3333C20.1612 18.3333 19.6015 17.7736 19.6015 17.0833C19.6015 16.393 20.1612 15.8333 20.8515 15.8333C21.542 15.8333 22.1015 16.393 22.1015 17.0833C22.1015 17.7736 21.542 18.3333 20.8515 18.3333Z" fill="#111111"/>
</svg>
