<svg width="182" height="50" viewBox="0 0 182 50" fill="none" xmlns="http://www.w3.org/2000/svg">
<path d="M74.1648 6.58146V35.6581H76.7188V36.8369H71.2179V37.8192H73.7719V38.998H59.0371V37.8192C59.823 37.8192 60.5106 37.7209 60.9035 37.5245C61.3947 37.328 61.6894 36.9351 61.8858 36.3457V35.6581H61.9841C62.0823 35.1669 62.0823 34.5775 62.0823 33.9881V8.74256C62.0823 7.07262 62.377 5.89384 62.8682 5.00975C63.3593 4.2239 64.2434 3.63451 65.4222 3.43804C66.0116 1.96457 67.3868 1.17871 69.4497 1.17871C71.0214 1.17871 72.2002 1.57164 72.986 2.45572C73.8701 3.33981 74.1648 4.71506 74.1648 6.58146ZM62.0823 35.6581C61.9841 35.9528 61.9841 36.2475 61.9841 36.3457V36.8369H63.2611C63.4575 36.3457 63.5558 35.9528 63.654 35.3634C63.2611 35.5598 62.6717 35.6581 62.0823 35.6581ZM62.5735 37.8192H69.8426V36.8369H63.2611C62.9664 37.2298 62.7699 37.5245 62.5735 37.8192ZM63.7522 34.0864C63.7522 34.3811 63.7522 34.5775 63.7522 34.774C63.7522 34.9705 63.7522 35.1669 63.7522 35.3634C64.3416 35.1669 64.6363 34.774 64.8328 34.2828C65.0293 33.7917 65.1275 32.9076 65.1275 31.827V6.58146C65.1275 5.89384 65.1275 5.30445 65.2257 4.81329C64.2434 5.30445 63.654 6.58146 63.654 8.64433V34.0864H63.7522ZM67.1903 3.43804H66.6992C66.5027 3.43804 66.3063 3.43804 66.1098 3.43804C65.9133 3.43804 65.7169 3.43804 65.5204 3.53627C65.4222 3.73274 65.4222 3.9292 65.3239 4.12567C65.3239 4.32213 65.2257 4.61682 65.1275 4.81329C65.4222 4.61682 65.9133 4.61682 66.601 4.61682C66.7974 4.12567 66.9939 3.73274 67.1903 3.43804ZM66.601 31.9253C66.601 33.5952 66.208 34.8722 65.4222 35.6581H69.8426V8.64433C69.8426 7.17085 69.6461 6.0903 69.155 5.50091C68.6638 4.91152 67.878 4.61682 66.7974 4.61682C66.6992 5.10798 66.6992 5.79561 66.6992 6.48323V31.9253H66.601ZM71.3161 8.74256V35.6581H72.6913V6.48323C72.6913 5.00975 72.4949 3.9292 72.0037 3.33981C71.5125 2.75042 70.7267 2.35749 69.6461 2.35749C68.4674 2.35749 67.6815 2.65219 67.2886 3.33981C68.7621 3.43804 69.7444 3.83097 70.432 4.71506C71.0214 5.69738 71.3161 6.97439 71.3161 8.74256ZM71.3161 35.6581H69.8426V36.8369H71.3161V35.6581Z" fill="url(#paint0_radial_1342_1410)"/>
<path d="M83.7917 36.7386H82.3182V24.6561H80.9429V38.998H79.4695V24.6561H77.0137V23.5756H79.4695V8.74256C79.4695 7.07262 79.7642 5.89384 80.2553 5.00975C80.8447 4.2239 81.6306 3.63451 82.8094 3.43804C83.3987 1.96457 84.774 1.17871 86.8369 1.17871C88.4086 1.17871 89.5874 1.57164 90.3732 2.45572C91.0608 3.33981 91.4538 4.61682 91.4538 6.48323V36.6404H89.9803V22.495H88.605V38.998H87.1316V24.6561H83.8899V36.7386H83.7917ZM80.8447 21.4145H79.7642V22.495H80.8447V21.4145ZM80.8447 8.64433V21.4145H82.22V6.58146C82.22 6.28677 82.22 5.99207 82.22 5.69738C82.22 5.40268 82.22 5.10798 82.3182 4.81329C81.3359 5.20622 80.8447 6.48323 80.8447 8.64433ZM82.3182 22.495H80.9429V23.5756H82.3182V22.495ZM83.7917 23.4773H82.3182V24.5579H83.7917V23.4773ZM82.7111 3.53627C82.6129 3.73274 82.6129 3.9292 82.5147 4.12567C82.4164 4.32213 82.4164 4.61682 82.3182 4.81329C82.7111 4.61682 83.2023 4.61682 83.8899 4.61682C83.9881 4.2239 84.1846 3.83097 84.3811 3.43804H83.8899C83.6934 3.43804 83.497 3.43804 83.3005 3.43804C83.1041 3.43804 82.9076 3.43804 82.7111 3.53627ZM83.7917 6.48323V21.4145H87.0333V8.64433C87.0333 7.17085 86.7386 6.0903 86.2475 5.50091C85.7563 4.91152 84.9705 4.61682 83.8899 4.61682C83.7917 5.10798 83.7917 5.69737 83.7917 6.48323ZM83.7917 23.4773H87.0333V22.3968H83.7917V23.4773ZM88.5068 8.74256V21.4145H89.8821V6.48323C89.8821 5.00975 89.5874 3.9292 89.0962 3.33981C88.605 2.75042 87.8192 2.35749 86.7386 2.35749C85.5598 2.35749 84.774 2.65219 84.3811 3.33981C85.8545 3.43804 86.8369 3.83097 87.5245 4.71506C88.2121 5.69738 88.5068 6.97439 88.5068 8.74256ZM88.5068 21.4145H87.0333V22.495H88.5068V21.4145Z" fill="url(#paint1_radial_1342_1410)"/>
<path d="M102.946 24.6563H95.7754V23.4775H102.946V24.6563ZM105.795 22.4952H98.6241V21.3164H105.795V22.4952Z" fill="url(#paint2_radial_1342_1410)"/>
<path d="M114.833 2.75056H110.806V1.57178H120.334V2.75056H116.307V3.73288H117.486V4.91166H116.307V36.7388H114.833V4.91166H113.458V38.8999H111.985V4.91166H107.957V3.73288H114.833V2.75056ZM116.307 3.73288H114.833V4.91166H116.307V3.73288Z" fill="url(#paint3_radial_1342_1410)"/>
<path d="M125.638 1.57178H130.058C131.827 1.57178 133.104 1.9647 133.791 2.65233C134.479 3.33995 134.773 4.81343 134.773 7.07276V17.5836C134.773 19.057 134.479 20.1376 133.988 20.9234C133.496 21.7093 132.612 22.1022 131.434 22.2987C130.844 23.7722 129.371 24.558 127.21 24.558V36.7388H125.736V24.6563H124.361V38.9981H122.887V24.6563H120.432V23.5757H122.887V3.73288H125.736V1.57178H125.638ZM124.263 21.4146H123.182V22.4952H124.263V21.4146ZM124.263 4.91166V21.3164H125.638V4.91166H124.263ZM125.638 22.4952H124.263V23.5757H125.638V22.4952ZM126.915 4.91166H127.21V3.73288H125.736V4.91166H126.915ZM127.21 23.4775H126.915H125.736V24.558H127.21V23.4775ZM129.764 2.75056H127.21V3.73288C128.978 3.73288 130.255 4.1258 130.942 4.81343C131.63 5.50105 131.925 6.97453 131.925 9.23386V19.7447C131.925 20.0394 131.925 20.2358 131.925 20.4323C131.925 20.6287 131.925 20.8252 131.827 21.1199C132.416 20.9234 132.809 20.5305 133.005 19.9411C133.202 19.3517 133.3 18.5659 133.3 17.4853V6.5816C133.3 5.00989 133.104 4.02757 132.612 3.53641C132.121 3.04525 131.139 2.75056 129.764 2.75056ZM130.451 8.7427C130.451 7.26922 130.255 6.2869 129.764 5.79575C129.371 5.30459 128.487 5.00989 127.111 5.00989V21.4146H129.665H130.255C130.255 21.2181 130.353 20.9234 130.353 20.6287C130.353 20.3341 130.353 20.0394 130.353 19.7447V8.7427H130.451ZM127.21 23.4775C128.683 23.4775 129.567 23.0845 129.96 22.3969H127.21V23.4775ZM130.353 21.4146C130.353 21.6111 130.255 21.8075 130.255 22.004C130.157 22.2005 130.157 22.3969 130.058 22.4952H130.157C130.451 22.4952 130.648 22.4952 130.844 22.4952C131.041 22.4952 131.335 22.4952 131.532 22.3969C131.63 22.2005 131.63 22.004 131.728 21.8075C131.827 21.6111 131.827 21.4146 131.827 21.1199C131.63 21.2181 131.434 21.2181 131.139 21.2181C130.942 21.3164 130.648 21.3164 130.353 21.4146Z" fill="url(#paint4_radial_1342_1410)"/>
<path d="M142.043 36.7386H140.569V24.6561H139.194V38.998H137.72V24.6561H135.265V23.5756H137.72V8.74256C137.72 7.07262 138.015 5.89384 138.506 5.00975C138.997 4.2239 139.882 3.63451 141.06 3.43804C141.65 1.96457 143.025 1.17871 145.088 1.17871C146.66 1.17871 147.838 1.57164 148.624 2.45572C149.312 3.33981 149.705 4.61682 149.705 6.48323V36.6404H148.231V22.495H146.856V38.998H145.383V24.6561H142.141V36.7386H142.043ZM139.194 21.4145H138.113V22.495H139.194V21.4145ZM139.194 8.64433V21.4145H140.569V6.58146C140.569 6.28677 140.569 5.99207 140.569 5.69738C140.569 5.40268 140.569 5.10798 140.667 4.81329C139.685 5.20622 139.194 6.48323 139.194 8.64433ZM140.569 22.495H139.194V23.5756H140.569V22.495ZM142.043 23.4773H140.569V24.5579H142.043V23.4773ZM141.06 3.53627C140.962 3.73274 140.962 3.9292 140.864 4.12567C140.766 4.32213 140.766 4.61682 140.667 4.81329C141.06 4.61682 141.551 4.61682 142.239 4.61682C142.337 4.2239 142.534 3.83097 142.73 3.43804H142.141C141.944 3.43804 141.748 3.43804 141.551 3.43804C141.453 3.43804 141.257 3.43804 141.06 3.53627ZM142.043 6.48323V21.4145H145.284V8.64433C145.284 7.17085 144.99 6.0903 144.498 5.50091C144.007 4.91152 143.221 4.61682 142.141 4.61682C142.141 5.10798 142.043 5.69737 142.043 6.48323ZM142.043 23.4773H145.284V22.3968H142.043V23.4773ZM146.758 8.74256V21.4145H148.133V6.48323C148.133 5.00975 147.838 3.9292 147.347 3.33981C146.856 2.75042 146.07 2.35749 144.99 2.35749C143.811 2.35749 143.025 2.65219 142.632 3.33981C144.106 3.43804 145.088 3.83097 145.775 4.71506C146.463 5.69738 146.758 6.97439 146.758 8.74256ZM146.758 21.4145H145.284V22.495H146.758V21.4145Z" fill="url(#paint5_radial_1342_1410)"/>
<path d="M158.252 36.7388H156.778V24.6563H155.403V38.9981H153.929V24.6563H151.474V23.5757H153.929V3.73288H155.403V21.3164H156.778V1.57178H158.252V21.3164H161.493V3.73288H162.967V21.3164H164.342V1.57178H165.815V36.7388H164.342V22.4952H162.967V38.9981H161.493V24.6563H158.252V36.7388ZM155.305 21.4146H154.224V22.4952H155.305V21.4146ZM156.778 22.4952H155.403V23.5757H156.778V22.4952ZM158.252 23.4775H156.778V24.558H158.252V23.4775ZM158.252 23.4775H161.493V22.3969H158.252V23.4775ZM162.967 21.4146H161.493V22.4952H162.967V21.4146Z" fill="url(#paint6_radial_1342_1410)"/>
<path d="M180.943 6.58146V9.13549H179.372V6.48323C179.372 5.00975 179.175 3.9292 178.684 3.33981C178.193 2.75042 177.407 2.35749 176.326 2.35749C175.148 2.35749 174.362 2.65219 173.871 3.33981C175.344 3.43804 176.326 3.83097 177.014 4.71506C177.702 5.59914 177.996 6.87616 177.996 8.64433V11.1984H176.523V8.5461C176.523 7.07262 176.326 5.99207 175.835 5.40268C175.344 4.81329 174.558 4.51859 173.478 4.51859C173.379 4.81329 173.379 5.10798 173.379 5.40268C173.379 5.69738 173.379 6.0903 173.379 6.48323V31.9253C173.379 33.497 173.576 34.4793 174.067 35.1669C174.558 35.7563 175.344 36.051 176.425 36.051C176.523 35.5599 176.621 34.8722 176.621 34.0864V31.2376H178.095V33.9881C178.095 34.6758 178.095 35.2652 177.996 35.7563C178.979 35.2652 179.47 33.9881 179.47 31.9253V29.0766H181.042V31.827C181.042 33.3988 180.747 34.6758 180.256 35.4616C179.764 36.3457 178.88 36.8369 177.702 37.0333C177.014 38.5068 175.639 39.2927 173.576 39.2927C172.004 39.2927 170.825 38.8997 170.04 38.0156C169.352 37.2298 168.959 35.8545 168.959 33.9881V8.74256C168.959 7.07262 169.254 5.89384 169.745 5.00975C170.334 4.2239 171.12 3.63451 172.299 3.43804C172.888 1.96457 174.264 1.17871 176.326 1.17871C177.898 1.17871 179.077 1.57164 179.863 2.45572C180.55 3.33981 180.943 4.71506 180.943 6.58146ZM173.478 38.1139C174.656 38.1139 175.442 37.721 175.933 37.0333C174.46 36.9351 173.478 36.5422 172.79 35.6581C172.102 34.774 171.808 33.497 171.808 31.7288V6.58146C171.808 6.28677 171.808 5.99207 171.808 5.69738C171.808 5.40268 171.808 5.10798 171.906 4.81329C170.924 5.30445 170.334 6.58146 170.334 8.64433V34.0864C170.334 35.6581 170.531 36.6404 171.022 37.328C171.611 37.8192 172.397 38.1139 173.478 38.1139ZM173.871 3.43804H173.478C173.281 3.43804 173.085 3.43804 172.888 3.43804C172.692 3.43804 172.495 3.43804 172.299 3.53627C172.201 3.73274 172.201 3.9292 172.102 4.12567C172.004 4.32213 172.004 4.61682 171.906 4.81329C172.299 4.61682 172.79 4.61682 173.478 4.61682C173.576 4.12567 173.772 3.73274 173.871 3.43804ZM176.326 37.1316C176.523 37.1316 176.719 37.1316 176.916 37.1316C177.112 37.1316 177.309 37.1316 177.505 37.0333C177.603 36.8369 177.603 36.6404 177.702 36.4439C177.8 36.2475 177.8 35.9528 177.898 35.7563C177.505 35.9528 176.916 36.051 176.326 36.051C176.228 36.5422 176.13 36.8369 175.933 37.1316H176.326Z" fill="url(#paint7_radial_1342_1410)"/>
<path d="M64.6367 43.615H65.4226V49.2142H64.6367V48.3301C64.0473 49.0178 63.2615 49.3125 62.2792 49.3125C61.3951 49.3125 60.6092 49.0178 60.0198 48.4284C59.4304 47.839 59.1357 47.1514 59.1357 46.3655C59.1357 45.4814 59.4304 44.7938 60.0198 44.2044C60.6092 43.615 61.3951 43.3203 62.3774 43.3203C63.3597 43.3203 64.1456 43.7132 64.6367 44.4009V43.615ZM64.6367 46.4637C64.6367 45.8743 64.4403 45.3832 63.9491 44.892C63.4579 44.4009 62.9668 44.2044 62.2792 44.2044C61.5915 44.2044 61.0021 44.4009 60.6092 44.892C60.1181 45.3832 59.9216 45.8743 59.9216 46.562C59.9216 47.1514 60.1181 47.6425 60.6092 48.1337C61.1004 48.5266 61.5915 48.8213 62.2792 48.8213C62.9668 48.8213 63.4579 48.6248 63.9491 48.1337C64.342 47.5443 64.6367 47.0531 64.6367 46.4637Z" fill="#757273"/>
<path d="M68.5664 47.5441H69.4505C69.4505 48.2317 69.8434 48.6247 70.6293 48.6247C71.0222 48.6247 71.3169 48.5264 71.5134 48.4282C71.7098 48.2317 71.8081 48.0353 71.8081 47.7406C71.8081 47.4459 71.7098 47.2494 71.5134 46.9547C71.3169 46.7583 71.1204 46.66 70.8257 46.66C70.7275 46.66 70.4328 46.66 70.0399 46.66V45.9724H70.4328C70.7275 45.9724 71.0222 45.8742 71.3169 45.7759C71.6116 45.5795 71.7098 45.383 71.7098 45.0883C71.7098 44.4989 71.4151 44.2042 70.7275 44.2042C69.9417 44.2042 69.647 44.4989 69.647 45.0883H68.7629C68.7629 44.5972 68.9593 44.2042 69.3523 43.9095C69.7452 43.6148 70.1381 43.5166 70.7275 43.5166C71.2187 43.5166 71.7098 43.6148 72.0045 43.9095C72.2992 44.2042 72.4957 44.5972 72.4957 45.0883C72.4957 45.5795 72.201 45.9724 71.6116 46.2671C72.0045 46.3653 72.2992 46.66 72.4957 46.8565C72.6921 47.1512 72.6922 47.4459 72.6922 47.6423C72.6922 48.1335 72.4957 48.5264 72.1028 48.8211C71.7098 49.1158 71.2187 49.3123 70.6293 49.3123C70.0399 49.3123 69.5487 49.1158 69.1558 48.8211C68.7629 48.6247 68.5664 48.1335 68.5664 47.5441Z" fill="#757273"/>
<path d="M79.5678 43.6152V44.3029H76.6208V45.8746H77.8978C78.4872 45.8746 79.0766 45.9728 79.4695 46.2675C79.8625 46.5622 80.0589 47.0533 80.0589 47.5445C80.0589 48.1339 79.8625 48.5268 79.3713 48.8215C78.9784 49.1162 78.4872 49.2144 77.8978 49.2144H75.835V43.6152H79.5678ZM76.6208 46.464V48.5268H77.8978C78.2908 48.5268 78.5854 48.4286 78.8801 48.3304C79.1748 48.1339 79.2731 47.8392 79.2731 47.5445C79.2731 47.1516 79.1748 46.9551 78.8801 46.7587C78.6837 46.5622 78.2908 46.464 77.8978 46.464H76.6208Z" fill="#757273"/>
<path d="M85.0685 49.7056H84.2826L84.872 48.4286L82.7109 43.6152H83.595L85.3632 47.4463L87.0331 43.6152H87.9172L85.0685 49.7056Z" fill="#757273"/>
<path d="M91.4538 43.6152V49.2144H90.668V43.6152H91.4538ZM95.1866 49.2144H94.2043L91.4538 46.2675L94.0079 43.6152H94.9902L92.3379 46.2675L95.1866 49.2144Z" fill="#757273"/>
<path d="M103.242 43.615H104.028V49.2142H103.242V48.3301C102.653 49.0178 101.867 49.3125 100.885 49.3125C100.001 49.3125 99.2147 49.0178 98.6253 48.4284C98.0359 47.839 97.7412 47.1514 97.7412 46.3655C97.7412 45.4814 98.0359 44.7938 98.6253 44.2044C99.2147 43.615 100.001 43.3203 100.983 43.3203C101.965 43.3203 102.751 43.7132 103.242 44.4009V43.615ZM103.242 46.4637C103.242 45.8743 103.046 45.3832 102.555 44.892C102.063 44.4009 101.572 44.2044 100.885 44.2044C100.197 44.2044 99.6076 44.4009 99.2147 44.892C98.7235 45.3832 98.5271 45.8743 98.5271 46.562C98.5271 47.1514 98.7235 47.6425 99.2147 48.1337C99.7058 48.5266 100.197 48.8213 100.885 48.8213C101.572 48.8213 102.063 48.6248 102.555 48.1337C103.046 47.5443 103.242 47.0531 103.242 46.4637Z" fill="#757273"/>
<path d="M116.601 43.6152H117.289L119.45 48.5268H120.039V49.2144H113.851V48.5268H114.44L116.601 43.6152ZM118.664 48.6251L116.896 44.6958L115.128 48.6251H118.664Z" fill="#757273"/>
<path d="M122.79 49.2144V43.6152H125.049C125.541 43.6152 125.835 43.8117 126.228 44.1064C126.523 44.4011 126.719 44.794 126.719 45.1869C126.719 45.6781 126.523 46.071 126.032 46.3657C126.719 46.6604 127.112 47.0533 127.112 47.741C127.112 48.2321 126.916 48.6251 126.621 48.9198C126.228 49.2144 125.835 49.3127 125.246 49.3127H122.79V49.2144ZM123.576 44.3029V45.9728H124.853C125.148 45.9728 125.442 45.8746 125.639 45.7763C125.835 45.5799 125.933 45.3834 125.933 45.0887C125.933 44.794 125.835 44.5976 125.639 44.4993C125.442 44.3029 125.246 44.3029 124.951 44.3029H123.576ZM123.576 46.6604V48.6251H125.049C125.835 48.6251 126.228 48.3304 126.228 47.6427C126.228 47.348 126.13 47.0533 125.835 46.8569C125.541 46.6604 125.246 46.6604 124.853 46.6604H123.576Z" fill="#757273"/>
<path d="M131.042 49.2144H130.256V43.6152H131.042V48.1339L134.578 43.6152H135.364V49.2144H134.578V44.6958L131.042 49.2144Z" fill="#757273"/>
<path d="M138.311 49.2144L141.159 46.2675L138.507 43.6152H139.489L142.043 46.2675L139.391 49.2144H138.311ZM142.829 43.6152V49.2144H142.043V43.6152H142.829ZM146.562 49.2144H145.58L142.927 46.2675L145.481 43.6152H146.464L143.812 46.2675L146.562 49.2144Z" fill="#757273"/>
<path d="M154.224 47.4463H155.207C154.617 48.7233 153.635 49.4109 152.162 49.4109C151.179 49.4109 150.393 49.1162 149.804 48.6251C149.215 48.0357 148.92 47.348 148.92 46.464C148.92 45.5799 149.215 44.8922 149.804 44.4011C150.393 43.8117 151.179 43.6152 152.162 43.6152C153.144 43.6152 153.93 43.9099 154.519 44.4993C155.109 45.0887 155.305 45.7763 155.305 46.7587H149.706C149.706 47.4463 149.902 47.9374 150.393 48.2321C150.786 48.6251 151.376 48.7233 152.063 48.7233C153.242 48.7233 153.93 48.2321 154.224 47.4463ZM152.063 44.2046C151.376 44.2046 150.885 44.4011 150.492 44.6958C150.099 44.9905 149.804 45.3834 149.706 45.9728H154.519C154.224 44.794 153.34 44.2046 152.063 44.2046Z" fill="#757273"/>
<path d="M159.332 49.2144H158.546V43.6152H159.332V45.8746H162.573V43.6152H163.359V49.2144H162.573V46.5622H159.332V49.2144Z" fill="#757273"/>
<path d="M167.78 49.2144H166.994V43.6152H167.78V48.1339L171.316 43.6152H172.102V49.2144H171.316V44.6958L167.78 49.2144Z" fill="#757273"/>
<path d="M175.933 49.2144H175.049L177.112 46.7587C176.621 46.7587 176.129 46.5622 175.835 46.3657C175.54 46.071 175.344 45.7763 175.344 45.2852C175.344 44.794 175.54 44.4011 175.933 44.1064C176.326 43.8117 176.719 43.6152 177.308 43.6152H179.273V49.2144H178.487V44.3029H177.308C176.621 44.3029 176.228 44.5976 176.228 45.2852C176.228 45.9728 176.621 46.2675 177.406 46.2675H178.487L175.933 49.2144Z" fill="#757273"/>
<path d="M7.85835 24.4599C9.13536 24.4599 10.2159 25.4422 10.4124 26.7193L13.0646 26.2281C12.9664 24.4599 12.7699 17.8784 14.3416 15.3244C14.7346 14.6367 16.3063 14.0473 16.7974 13.8509C18.3692 12.9668 21.3161 13.2615 22.986 13.458C23.1825 12.7703 23.8701 12.2792 24.656 12.2792C25.6383 12.2792 26.4242 13.065 26.4242 14.0473C26.4242 15.0297 25.6383 15.8155 24.656 15.8155C23.8701 15.8155 23.2807 15.3244 22.986 14.6367C21.2179 14.342 18.2709 14.1456 17.0921 14.9314C16.4045 15.4226 16.1098 18.6642 16.208 21.6112C18.2709 21.12 25.2454 19.6466 33.7915 21.513C33.988 20.5307 34.8721 19.7448 35.8544 19.5483C35.4615 17.3872 34.9703 14.735 34.3809 13.6544C32.9075 11.0022 27.7012 9.92161 27.6029 9.82338H27.4065L26.2277 7.85874C25.0489 7.46582 17.878 5.40295 9.03713 5.69764C8.84066 6.58173 8.15304 7.26935 7.36719 7.56405L7.85835 24.4599ZM9.13536 13.5562C9.13536 13.3597 9.23359 13.065 9.23359 12.8686C9.92122 8.25167 12.0823 5.79588 23.5754 8.93929C11.5912 7.26935 10.9035 9.33222 10.3141 12.7703C11.1982 12.3774 12.4752 11.9845 13.7523 11.8862C13.9487 11.3951 14.5381 11.0022 15.1275 11.0022C15.9134 11.0022 16.601 11.6898 16.601 12.4756C16.601 13.2615 15.9134 13.9491 15.1275 13.9491C14.4399 13.9491 13.9487 13.5562 13.7523 12.9668C12.2788 13.065 10.6088 13.7527 9.92121 14.1456L8.9389 14.6367L9.13536 13.5562Z" fill="url(#paint8_radial_1342_1410)"/>
<path d="M20.9238 35.0688V36.5423C23.8708 37.1317 28.3894 37.5246 29.47 36.4441C29.6665 36.2476 29.6665 35.9529 29.7647 35.4618C25.9336 33.7918 22.1026 34.7741 20.9238 35.0688Z" fill="url(#paint9_radial_1342_1410)"/>
<path d="M15.2263 48.9197C14.7352 47.9373 14.3422 46.3656 13.9493 43.6151C13.3599 39.5876 13.7529 36.9354 15.1281 35.5601C15.521 35.1672 15.914 34.9707 16.3069 34.8725C16.1104 34.4796 15.914 34.1849 15.8157 34.0867C15.521 33.9884 14.1458 33.8902 12.967 33.792H12.3776L9.13596 32.6132L6.58193 32.3185L6.7784 29.1751C6.18901 28.8804 5.69785 28.291 5.50138 27.6034L1.08095 26.4246L0.0986328 26.1299V34.7743L1.08095 35.3637L6.87663 39.0965C7.17132 38.8018 7.56425 38.7036 7.95718 38.7036C8.9395 38.7036 9.72535 39.4894 9.72535 40.4717C9.72535 41.454 8.9395 42.2399 7.95718 42.2399C6.97486 42.2399 6.18901 41.454 6.18901 40.4717C6.18901 40.2753 6.18901 40.177 6.28724 39.9806L1.08095 36.6407L0.0986328 36.0513V50.0002H16.0122C16.0122 50.0002 15.521 49.6073 15.2263 48.9197Z" fill="url(#paint10_radial_1342_1410)"/>
<path d="M4.12574 4.91159C4.22397 3.73281 5.10805 2.75049 6.28684 2.55403V0.982318V0H0V5.50098C0.196464 5.40275 0.982318 5.30452 0.982318 5.30452C1.66994 5.10805 2.55403 4.91159 4.12574 4.91159Z" fill="url(#paint11_radial_1342_1410)"/>
<path d="M5.40315 26.6209C5.50138 25.7368 6.09078 25.0492 6.87663 24.6562L6.4837 7.66213C5.50138 7.5639 4.71553 6.87627 4.3226 5.99219C2.4562 5.99219 1.37565 6.28688 1.08095 6.28688L0.0986328 6.48335V25.0492L1.08095 25.3439L5.40315 26.6209Z" fill="url(#paint12_radial_1342_1410)"/>
<path d="M45.7764 35.4618C46.1693 35.4618 47.1516 35.3636 48.0357 35.2654C48.0357 34.7742 47.9375 34.3813 47.9375 33.8901C47.0534 34.0866 46.2675 34.3813 45.9728 34.4795C45.8746 34.676 45.7764 35.1672 45.7764 35.4618Z" fill="url(#paint13_radial_1342_1410)"/>
<path d="M42.6331 45.2849C43.026 45.0884 43.3207 44.7937 43.5172 44.499L39.5879 45.1866C40.5702 45.4813 41.749 45.6778 42.6331 45.2849Z" fill="url(#paint14_radial_1342_1410)"/>
<path d="M14.6366 28.4872C16.0118 27.7996 20.2358 28.4872 24.7544 30.0589C25.0491 29.666 25.5403 29.4695 26.0315 29.4695C27.0138 29.4695 27.7996 30.2554 27.7996 31.2377C27.7996 32.22 27.0138 33.0059 26.0315 33.0059C25.0491 33.0059 24.2633 32.22 24.2633 31.2377C24.2633 31.1395 24.2633 31.1395 24.2633 31.0412C19.4499 29.3713 15.8154 29.0766 15.0295 29.4695C14.833 29.5677 14.6366 29.8624 14.4401 30.1571C16.9941 30.6483 19.2535 32.5147 20.8252 34.0864C22.2004 33.6935 25.835 32.9076 29.5678 34.3811C29.4696 33.5952 29.2731 32.7112 29.1749 31.9253C29.0766 31.1395 28.8802 30.3536 28.7819 29.5677C28.5855 28.2907 28.0943 27.3084 27.3085 26.5226C26.6208 25.8349 25.4421 25.6385 24.9509 25.5402H24.8527L15.4224 22.888H15.3242V22.2004C15.226 21.3163 15.1277 17.6817 15.7171 15.4224C15.5207 15.5206 15.3242 15.7171 15.3242 15.7171C13.6542 18.3693 14.1454 26.3261 14.1454 26.4243V26.9155L10.3144 27.6031C10.0197 28.5854 9.03735 29.3713 7.9568 29.3713H7.85857L7.66211 31.3359L9.43028 31.5324L12.4755 32.7112C12.7702 31.3359 13.6543 29.0766 14.6366 28.4872Z" fill="url(#paint15_radial_1342_1410)"/>
<path d="M7.26953 0V0.982318V2.65226C8.15362 2.94695 8.93947 3.63458 9.13594 4.6169C18.9591 4.3222 26.7194 6.87623 26.8177 6.87623L27.0141 6.97446L28.0947 8.84086C29.1752 9.13556 33.7921 10.3143 35.3638 13.0648C36.0515 14.3418 36.6408 17.1906 37.0338 19.5481C38.1143 19.8428 38.9002 20.8251 38.9002 22.0039C38.9002 22.2986 38.8019 22.4951 38.8019 22.7898C40.6684 23.3792 43.4188 24.4597 44.2047 25.3438C45.187 26.4244 45.187 29.4695 45.0888 30.6483C46.0711 30.943 48.0357 31.5324 48.5269 32.3183C49.1163 33.2024 49.1163 35.7564 49.1163 36.2475C49.1163 36.2475 46.5623 36.5422 46.0711 36.5422C45.2852 36.5422 45.187 36.444 45.0888 36.3458C44.8923 36.1493 44.7941 35.9528 44.7941 35.5599C44.7941 35.167 44.8923 34.1847 45.3835 33.7917C45.5799 33.5953 46.3658 33.3006 47.741 33.0059C47.741 32.9077 47.741 32.9077 47.6428 32.9077C47.3481 32.5147 45.7764 31.9253 44.4012 31.6306L44.0082 31.5324V31.1395C44.0082 30.4519 44.1065 29.4695 44.0082 28.5855L33.4974 28.6837C33.301 29.1749 32.7116 29.5678 32.1222 29.5678C31.3363 29.5678 30.6487 28.8802 30.6487 28.0943C30.6487 27.3084 31.3363 26.6208 32.1222 26.6208C32.8098 26.6208 33.301 27.0138 33.4974 27.6031L43.91 27.4067C43.8118 26.8173 43.6153 26.2279 43.4188 26.0314C42.8294 25.3438 40.3737 24.3615 38.3108 23.7721C37.8196 24.2633 37.132 24.6562 36.4444 24.6562C35.2656 24.6562 34.1851 23.7721 33.9886 22.5933C26.523 20.9234 20.3344 21.8075 17.5839 22.3969L25.246 24.4597C25.5406 24.4597 27.1124 24.7544 28.0947 25.7367C29.077 26.7191 29.6664 27.8978 29.8629 29.3713C29.9611 30.1572 30.1575 30.943 30.2558 31.7289C30.7469 34.2829 31.1399 36.3458 30.2558 37.2299C29.5682 38.0157 27.9964 38.2122 26.3265 38.2122C23.7725 38.2122 20.8255 37.6228 20.3344 37.5246L19.9414 37.4263L20.0397 34.5776C18.8609 33.4971 16.6016 31.5324 14.1458 31.1395C13.9493 31.7289 13.7528 32.3183 13.5564 32.9077C14.5387 32.9077 15.8157 33.0059 16.3069 33.3006C16.798 33.5953 17.2892 34.6758 17.4856 35.167L17.7803 35.9529L16.8962 35.8546C16.8962 35.8546 16.3069 35.8546 15.7175 36.3458C15.0298 37.1316 14.244 38.998 14.9316 43.5167C15.4228 47.2495 16.0122 48.5265 16.4051 49.1159C16.6016 49.4106 16.8962 49.8035 17.2892 50H19.0574C19.5485 49.7053 19.9414 48.9194 19.9414 48.9194C20.1379 48.6248 20.3344 48.1336 20.4326 46.8566C19.9414 46.6601 19.5485 46.0707 19.5485 45.4813C19.5485 44.6955 20.2361 44.0079 21.022 44.0079C21.8078 44.0079 22.4955 44.6955 22.4955 45.4813C22.4955 46.169 22.1025 46.6601 21.5131 46.8566C21.4149 47.6424 21.3167 48.3301 21.022 48.9194C20.7273 49.6071 20.3344 49.9018 20.3344 49.9018H51.3756V37.4263L50.3933 37.6228C50.0986 37.6228 49.6074 37.721 49.1163 37.8193C49.0181 38.7033 48.7234 42.0432 47.6428 43.0255C47.2499 43.4185 46.2676 43.8114 44.7941 44.2043C44.4994 45.1866 43.91 45.8743 43.1241 46.2672C42.633 46.4637 42.1418 46.5619 41.5524 46.5619C40.2754 46.5619 38.9002 46.0707 37.7214 45.5796C35.855 45.776 33.7921 45.9725 31.4346 46.0707C31.3363 46.7584 30.7469 47.2495 29.9611 47.2495C29.1752 47.2495 28.4876 46.5619 28.4876 45.776C28.4876 44.9902 29.1752 44.3026 29.9611 44.3026C30.4522 44.3026 30.9434 44.5972 31.2381 44.9902C33.6939 44.8919 35.9532 44.6955 37.8196 44.499C37.8196 44.499 38.0161 44.4008 38.0161 44.499C43.2224 43.8114 46.3658 42.8291 46.9552 42.3379C47.5446 41.7485 47.9375 39.4892 48.0357 38.0157C42.2401 38.8998 29.5682 40.668 25.9336 40.668C25.6389 40.668 25.4424 40.668 25.246 40.668C24.2636 40.4715 20.7273 39.7839 18.7627 39.391C18.6644 39.5874 18.468 39.7839 18.2715 39.9804L18.468 41.0609C18.7627 43.6149 18.6644 45.3831 18.3697 46.6601C18.2715 47.053 17.5839 48.3301 17.5839 48.1336C17.5839 47.9371 17.6821 47.2495 17.7803 46.8566C17.9768 45.6778 18.075 43.6149 17.5839 41.1591C17.5839 41.1591 17.2892 40.1768 17.3874 40.1768C16.6998 40.0786 16.1104 39.4892 16.1104 38.7033C16.1104 37.9175 16.798 37.2299 17.5839 37.2299C18.2715 37.2299 18.8609 37.721 18.9591 38.3104C20.9238 38.7033 24.5583 39.391 25.5406 39.5874C27.6035 39.8821 43.91 37.6228 50.5898 36.6405L51.5721 36.444V0H7.26953Z" fill="url(#paint16_radial_1342_1410)"/>
<defs>
<radialGradient id="paint0_radial_1342_1410" cx="0" cy="0" r="1" gradientUnits="userSpaceOnUse" gradientTransform="translate(67.9188 20.0979) scale(14.7138)">
<stop stop-color="#D81719"/>
<stop offset="0.5276" stop-color="#D51218"/>
<stop offset="1" stop-color="#CD1518"/>
</radialGradient>
<radialGradient id="paint1_radial_1342_1410" cx="0" cy="0" r="1" gradientUnits="userSpaceOnUse" gradientTransform="translate(84.1411 20.0979) scale(14.2626)">
<stop stop-color="#D81719"/>
<stop offset="0.5276" stop-color="#D51218"/>
<stop offset="1" stop-color="#CD1518"/>
</radialGradient>
<radialGradient id="paint2_radial_1342_1410" cx="0" cy="0" r="1" gradientUnits="userSpaceOnUse" gradientTransform="translate(100.746 22.9685) scale(3.73959)">
<stop stop-color="#D81719"/>
<stop offset="0.5276" stop-color="#D51218"/>
<stop offset="1" stop-color="#CD1518"/>
</radialGradient>
<radialGradient id="paint3_radial_1342_1410" cx="0" cy="0" r="1" gradientUnits="userSpaceOnUse" gradientTransform="translate(114.123 20.2654) scale(13.9059)">
<stop stop-color="#D81719"/>
<stop offset="0.5276" stop-color="#D51218"/>
<stop offset="1" stop-color="#CD1518"/>
</radialGradient>
<radialGradient id="paint4_radial_1342_1410" cx="0" cy="0" r="1" gradientUnits="userSpaceOnUse" gradientTransform="translate(127.545 20.2654) scale(14.1519)">
<stop stop-color="#D81719"/>
<stop offset="0.5276" stop-color="#D51218"/>
<stop offset="1" stop-color="#CD1518"/>
</radialGradient>
<radialGradient id="paint5_radial_1342_1410" cx="0" cy="0" r="1" gradientUnits="userSpaceOnUse" gradientTransform="translate(142.427 20.0979) scale(14.2625)">
<stop stop-color="#D81719"/>
<stop offset="0.5276" stop-color="#D51218"/>
<stop offset="1" stop-color="#CD1518"/>
</radialGradient>
<radialGradient id="paint6_radial_1342_1410" cx="0" cy="0" r="1" gradientUnits="userSpaceOnUse" gradientTransform="translate(158.603 20.2654) scale(14.152)">
<stop stop-color="#D81719"/>
<stop offset="0.5276" stop-color="#D51218"/>
<stop offset="1" stop-color="#CD1518"/>
</radialGradient>
<radialGradient id="paint7_radial_1342_1410" cx="0" cy="0" r="1" gradientUnits="userSpaceOnUse" gradientTransform="translate(174.946 20.265) scale(14.0893)">
<stop stop-color="#D81719"/>
<stop offset="0.5276" stop-color="#D51218"/>
<stop offset="1" stop-color="#CD1518"/>
</radialGradient>
<radialGradient id="paint8_radial_1342_1410" cx="0" cy="0" r="1" gradientUnits="userSpaceOnUse" gradientTransform="translate(21.7136 16.1618) scale(12.5408)">
<stop stop-color="#D81719"/>
<stop offset="0.3693" stop-color="#D41719"/>
<stop offset="0.7512" stop-color="#C7181A"/>
<stop offset="1" stop-color="#BA181B"/>
</radialGradient>
<radialGradient id="paint9_radial_1342_1410" cx="0" cy="0" r="1" gradientUnits="userSpaceOnUse" gradientTransform="translate(25.3111 35.8382) scale(3.24312)">
<stop stop-color="#D81719"/>
<stop offset="0.3693" stop-color="#D41719"/>
<stop offset="0.7512" stop-color="#C7181A"/>
<stop offset="1" stop-color="#BA181B"/>
</radialGradient>
<radialGradient id="paint10_radial_1342_1410" cx="0" cy="0" r="1" gradientUnits="userSpaceOnUse" gradientTransform="translate(8.10531 38.0662) scale(10.1752)">
<stop stop-color="#D81719"/>
<stop offset="0.3693" stop-color="#D41719"/>
<stop offset="0.7512" stop-color="#C7181A"/>
<stop offset="1" stop-color="#BA181B"/>
</radialGradient>
<radialGradient id="paint11_radial_1342_1410" cx="0" cy="0" r="1" gradientUnits="userSpaceOnUse" gradientTransform="translate(3.14892 2.69676) scale(2.94479)">
<stop stop-color="#D81719"/>
<stop offset="0.3693" stop-color="#D41719"/>
<stop offset="0.7512" stop-color="#C7181A"/>
<stop offset="1" stop-color="#BA181B"/>
</radialGradient>
<radialGradient id="paint12_radial_1342_1410" cx="0" cy="0" r="1" gradientUnits="userSpaceOnUse" gradientTransform="translate(3.42555 16.2774) scale(7.6833)">
<stop stop-color="#D81719"/>
<stop offset="0.3693" stop-color="#D41719"/>
<stop offset="0.7512" stop-color="#C7181A"/>
<stop offset="1" stop-color="#BA181B"/>
</radialGradient>
<radialGradient id="paint13_radial_1342_1410" cx="0" cy="0" r="1" gradientUnits="userSpaceOnUse" gradientTransform="translate(46.9373 34.7191) scale(0.950884)">
<stop stop-color="#D81719"/>
<stop offset="0.3693" stop-color="#D41719"/>
<stop offset="0.7512" stop-color="#C7181A"/>
<stop offset="1" stop-color="#BA181B"/>
</radialGradient>
<radialGradient id="paint14_radial_1342_1410" cx="0" cy="0" r="1" gradientUnits="userSpaceOnUse" gradientTransform="translate(41.5599 44.9668) scale(1.43536)">
<stop stop-color="#D81719"/>
<stop offset="0.3693" stop-color="#D41719"/>
<stop offset="0.7512" stop-color="#C7181A"/>
<stop offset="1" stop-color="#BA181B"/>
</radialGradient>
<radialGradient id="paint15_radial_1342_1410" cx="0" cy="0" r="1" gradientUnits="userSpaceOnUse" gradientTransform="translate(18.6457 24.9625) scale(10.2229)">
<stop stop-color="#D81719"/>
<stop offset="0.3693" stop-color="#D41719"/>
<stop offset="0.7512" stop-color="#C7181A"/>
<stop offset="1" stop-color="#BA181B"/>
</radialGradient>
<radialGradient id="paint16_radial_1342_1410" cx="0" cy="0" r="1" gradientUnits="userSpaceOnUse" gradientTransform="translate(29.3646 24.962) scale(23.5865)">
<stop stop-color="#D81719"/>
<stop offset="0.3693" stop-color="#D41719"/>
<stop offset="0.7512" stop-color="#C7181A"/>
<stop offset="1" stop-color="#BA181B"/>
</radialGradient>
</defs>
</svg>
