<svg width="100" height="100" viewBox="0 0 100 100" fill="none" xmlns="http://www.w3.org/2000/svg">
<circle cx="50" cy="50" r="49.5" stroke="#D51218"/>
<path d="M69.5312 31.25H65.625V29.6875C65.625 28.8587 65.2958 28.0638 64.7097 27.4778C64.1237 26.8917 63.3288 26.5625 62.5 26.5625C61.6712 26.5625 60.8763 26.8917 60.2903 27.4778C59.7042 28.0638 59.375 28.8587 59.375 29.6875V31.25H53.125V29.6875C53.125 28.8587 52.7958 28.0638 52.2097 27.4778C51.6237 26.8917 50.8288 26.5625 50 26.5625C49.1712 26.5625 48.3763 26.8917 47.7903 27.4778C47.2042 28.0638 46.875 28.8587 46.875 29.6875V31.25H40.625V29.6875C40.625 28.8587 40.2958 28.0638 39.7097 27.4778C39.1237 26.8917 38.3288 26.5625 37.5 26.5625C36.6712 26.5625 35.8763 26.8917 35.2903 27.4778C34.7042 28.0638 34.375 28.8587 34.375 29.6875V31.25H30.4688C29.4327 31.25 28.4392 31.6616 27.7066 32.3941C26.9741 33.1267 26.5625 34.1202 26.5625 35.1562V66.4062C26.5625 67.4423 26.9741 68.4358 27.7066 69.1684C28.4392 69.901 29.4327 70.3125 30.4688 70.3125H52.3438C52.551 70.3125 52.7497 70.2302 52.8962 70.0837C53.0427 69.9372 53.125 69.7384 53.125 69.5312C53.125 69.3241 53.0427 69.1253 52.8962 68.9788C52.7497 68.8323 52.551 68.75 52.3438 68.75H30.4688C29.8477 68.7481 29.2527 68.5006 28.8135 68.0615C28.3744 67.6223 28.1269 67.0273 28.125 66.4062V42.1875H71.875V55.4688C71.875 55.676 71.9573 55.8747 72.1038 56.0212C72.2503 56.1677 72.4491 56.25 72.6562 56.25C72.8634 56.25 73.0622 56.1677 73.2087 56.0212C73.3552 55.8747 73.4375 55.676 73.4375 55.4688V35.1562C73.4375 34.1202 73.026 33.1267 72.2934 32.3941C71.5608 31.6616 70.5673 31.25 69.5312 31.25ZM60.9375 29.6875C60.9375 29.2731 61.1021 28.8757 61.3951 28.5826C61.6882 28.2896 62.0856 28.125 62.5 28.125C62.9144 28.125 63.3118 28.2896 63.6049 28.5826C63.8979 28.8757 64.0625 29.2731 64.0625 29.6875V34.375C64.0625 34.7894 63.8979 35.1868 63.6049 35.4799C63.3118 35.7729 62.9144 35.9375 62.5 35.9375C62.0856 35.9375 61.6882 35.7729 61.3951 35.4799C61.1021 35.1868 60.9375 34.7894 60.9375 34.375V29.6875ZM48.4375 29.6875C48.4375 29.2731 48.6021 28.8757 48.8951 28.5826C49.1882 28.2896 49.5856 28.125 50 28.125C50.4144 28.125 50.8118 28.2896 51.1049 28.5826C51.3979 28.8757 51.5625 29.2731 51.5625 29.6875V34.375C51.5625 34.7894 51.3979 35.1868 51.1049 35.4799C50.8118 35.7729 50.4144 35.9375 50 35.9375C49.5856 35.9375 49.1882 35.7729 48.8951 35.4799C48.6021 35.1868 48.4375 34.7894 48.4375 34.375V29.6875ZM35.9375 29.6875C35.9375 29.2731 36.1021 28.8757 36.3951 28.5826C36.6882 28.2896 37.0856 28.125 37.5 28.125C37.9144 28.125 38.3118 28.2896 38.6049 28.5826C38.8979 28.8757 39.0625 29.2731 39.0625 29.6875V34.375C39.0625 34.7894 38.8979 35.1868 38.6049 35.4799C38.3118 35.7729 37.9144 35.9375 37.5 35.9375C37.0856 35.9375 36.6882 35.7729 36.3951 35.4799C36.1021 35.1868 35.9375 34.7894 35.9375 34.375V29.6875ZM71.875 40.625H28.125V35.1562C28.1269 34.5352 28.3744 33.9402 28.8135 33.501C29.2527 33.0619 29.8477 32.8144 30.4688 32.8125H34.375V34.375C34.375 35.2038 34.7042 35.9987 35.2903 36.5847C35.8763 37.1708 36.6712 37.5 37.5 37.5C38.3288 37.5 39.1237 37.1708 39.7097 36.5847C40.2958 35.9987 40.625 35.2038 40.625 34.375V32.8125H46.875V34.375C46.875 35.2038 47.2042 35.9987 47.7903 36.5847C48.3763 37.1708 49.1712 37.5 50 37.5C50.8288 37.5 51.6237 37.1708 52.2097 36.5847C52.7958 35.9987 53.125 35.2038 53.125 34.375V32.8125H59.375V34.375C59.375 35.2038 59.7042 35.9987 60.2903 36.5847C60.8763 37.1708 61.6712 37.5 62.5 37.5C63.3288 37.5 64.1237 37.1708 64.7097 36.5847C65.2958 35.9987 65.625 35.2038 65.625 34.375V32.8125H69.5312C70.1523 32.8144 70.7473 33.0619 71.1865 33.501C71.6256 33.9402 71.8731 34.5352 71.875 35.1562V40.625Z" fill="url(#paint0_radial_506_12915)"/>
<path d="M48.4375 47.6562C48.4375 47.2418 48.2729 46.8444 47.9799 46.5514C47.6868 46.2584 47.2894 46.0938 46.875 46.0938H43.75C43.3356 46.0938 42.9382 46.2584 42.6451 46.5514C42.3521 46.8444 42.1875 47.2418 42.1875 47.6562V50C42.1875 50.4144 42.3521 50.8118 42.6451 51.1049C42.9382 51.3979 43.3356 51.5625 43.75 51.5625H46.875C47.2894 51.5625 47.6868 51.3979 47.9799 51.1049C48.2729 50.8118 48.4375 50.4144 48.4375 50V47.6562ZM43.75 50V47.6562H46.875V50H43.75Z" fill="url(#paint1_radial_506_12915)"/>
<path d="M39.0625 47.6562C39.0625 47.2418 38.8979 46.8444 38.6049 46.5514C38.3118 46.2584 37.9144 46.0938 37.5 46.0938H34.375C33.9606 46.0938 33.5632 46.2584 33.2701 46.5514C32.9771 46.8444 32.8125 47.2418 32.8125 47.6562V50C32.8125 50.4144 32.9771 50.8118 33.2701 51.1049C33.5632 51.3979 33.9606 51.5625 34.375 51.5625H37.5C37.9144 51.5625 38.3118 51.3979 38.6049 51.1049C38.8979 50.8118 39.0625 50.4144 39.0625 50V47.6562ZM34.375 50V47.6562H37.5V50H34.375Z" fill="url(#paint2_radial_506_12915)"/>
<path d="M65.625 51.5625C66.0394 51.5625 66.4368 51.3979 66.7299 51.1049C67.0229 50.8118 67.1875 50.4144 67.1875 50V47.6562C67.1875 47.2418 67.0229 46.8444 66.7299 46.5514C66.4368 46.2584 66.0394 46.0938 65.625 46.0938H62.5C62.0856 46.0938 61.6882 46.2584 61.3951 46.5514C61.1021 46.8444 60.9375 47.2418 60.9375 47.6562V50C60.9375 50.4144 61.1021 50.8118 61.3951 51.1049C61.6882 51.3979 62.0856 51.5625 62.5 51.5625H65.625ZM62.5 47.6562H65.625V50H62.5V47.6562Z" fill="url(#paint3_radial_506_12915)"/>
<path d="M48.4375 54.6875C48.4375 54.2731 48.2729 53.8757 47.9799 53.5826C47.6868 53.2896 47.2894 53.125 46.875 53.125H43.75C43.3356 53.125 42.9382 53.2896 42.6451 53.5826C42.3521 53.8757 42.1875 54.2731 42.1875 54.6875V57.0312C42.1875 57.4457 42.3521 57.8431 42.6451 58.1361C42.9382 58.4291 43.3356 58.5938 43.75 58.5938H46.875C47.2894 58.5938 47.6868 58.4291 47.9799 58.1361C48.2729 57.8431 48.4375 57.4457 48.4375 57.0312V54.6875ZM43.75 57.0312V54.6875H46.875V57.0312H43.75Z" fill="url(#paint4_radial_506_12915)"/>
<path d="M39.0625 54.6875C39.0625 54.2731 38.8979 53.8757 38.6049 53.5826C38.3118 53.2896 37.9144 53.125 37.5 53.125H34.375C33.9606 53.125 33.5632 53.2896 33.2701 53.5826C32.9771 53.8757 32.8125 54.2731 32.8125 54.6875V57.0312C32.8125 57.4457 32.9771 57.8431 33.2701 58.1361C33.5632 58.4291 33.9606 58.5938 34.375 58.5938H37.5C37.9144 58.5938 38.3118 58.4291 38.6049 58.1361C38.8979 57.8431 39.0625 57.4457 39.0625 57.0312V54.6875ZM34.375 57.0312V54.6875H37.5V57.0312H34.375Z" fill="url(#paint5_radial_506_12915)"/>
<path d="M46.875 60.1562H43.75C43.3356 60.1562 42.9382 60.3209 42.6451 60.6139C42.3521 60.9069 42.1875 61.3043 42.1875 61.7188V64.0625C42.1875 64.4769 42.3521 64.8743 42.6451 65.1674C42.9382 65.4604 43.3356 65.625 43.75 65.625H46.875C47.2894 65.625 47.6868 65.4604 47.9799 65.1674C48.2729 64.8743 48.4375 64.4769 48.4375 64.0625V61.7188C48.4375 61.3043 48.2729 60.9069 47.9799 60.6139C47.6868 60.3209 47.2894 60.1562 46.875 60.1562ZM43.75 64.0625V61.7188H46.875V64.0625H43.75Z" fill="url(#paint6_radial_506_12915)"/>
<path d="M53.125 51.5625H56.25C56.6644 51.5625 57.0618 51.3979 57.3549 51.1049C57.6479 50.8118 57.8125 50.4144 57.8125 50V47.6562C57.8125 47.2418 57.6479 46.8444 57.3549 46.5514C57.0618 46.2584 56.6644 46.0938 56.25 46.0938H53.125C52.7106 46.0938 52.3132 46.2584 52.0201 46.5514C51.7271 46.8444 51.5625 47.2418 51.5625 47.6562V50C51.5625 50.4144 51.7271 50.8118 52.0201 51.1049C52.3132 51.3979 52.7106 51.5625 53.125 51.5625ZM53.125 47.6562H56.25V50H53.125V47.6562Z" fill="url(#paint7_radial_506_12915)"/>
<path d="M51.5625 57.0312C51.5625 57.4457 51.7271 57.8431 52.0201 58.1361C52.3132 58.4291 52.7106 58.5938 53.125 58.5938C53.3322 58.5938 53.5309 58.5114 53.6774 58.3649C53.8239 58.2184 53.9062 58.0197 53.9062 57.8125C53.9062 57.6053 53.8239 57.4066 53.6774 57.2601C53.5309 57.1136 53.3322 57.0312 53.125 57.0312V54.6875H56.25C56.4572 54.6875 56.6559 54.6052 56.8024 54.4587C56.9489 54.3122 57.0312 54.1135 57.0312 53.9062C57.0312 53.699 56.9489 53.5003 56.8024 53.3538C56.6559 53.2073 56.4572 53.125 56.25 53.125H53.125C52.7106 53.125 52.3132 53.2896 52.0201 53.5826C51.7271 53.8757 51.5625 54.2731 51.5625 54.6875V57.0312Z" fill="url(#paint8_radial_506_12915)"/>
<path d="M37.5 60.1562H34.375C33.9606 60.1562 33.5632 60.3209 33.2701 60.6139C32.9771 60.9069 32.8125 61.3043 32.8125 61.7188V64.0625C32.8125 64.4769 32.9771 64.8743 33.2701 65.1674C33.5632 65.4604 33.9606 65.625 34.375 65.625H37.5C37.9144 65.625 38.3118 65.4604 38.6049 65.1674C38.8979 64.8743 39.0625 64.4769 39.0625 64.0625V61.7188C39.0625 61.3043 38.8979 60.9069 38.6049 60.6139C38.3118 60.3209 37.9144 60.1562 37.5 60.1562ZM34.375 64.0625V61.7188H37.5V64.0625H34.375Z" fill="url(#paint9_radial_506_12915)"/>
<path d="M63.2812 53.125C61.2725 53.125 59.3089 53.7207 57.6387 54.8366C55.9686 55.9526 54.6668 57.5388 53.8981 59.3946C53.1294 61.2504 52.9283 63.2925 53.3202 65.2626C53.712 67.2327 54.6793 69.0424 56.0997 70.4628C57.5201 71.8832 59.3297 72.8505 61.2999 73.2423C63.27 73.6342 65.3121 73.4331 67.1679 72.6644C69.0237 71.8957 70.6099 70.5939 71.7259 68.9237C72.8418 67.2536 73.4375 65.29 73.4375 63.2812C73.4344 60.5886 72.3634 58.0071 70.4594 56.1031C68.5554 54.1991 65.9739 53.1281 63.2812 53.125ZM63.2812 71.875C61.5816 71.875 59.9201 71.371 58.5068 70.4267C57.0936 69.4824 55.9921 68.1402 55.3417 66.5699C54.6912 64.9996 54.521 63.2717 54.8526 61.6047C55.1842 59.9377 56.0027 58.4064 57.2046 57.2045C58.4064 56.0027 59.9377 55.1842 61.6047 54.8526C63.2717 54.521 64.9996 54.6912 66.5699 55.3417C68.1402 55.9921 69.4824 57.0936 70.4267 58.5068C71.371 59.9201 71.875 61.5816 71.875 63.2812C71.8723 65.5596 70.966 67.7439 69.355 69.355C67.7439 70.966 65.5596 71.8723 63.2812 71.875Z" fill="url(#paint10_radial_506_12915)"/>
<path d="M67.7951 60.0064L61.7185 66.083L58.9568 63.3205C58.8095 63.1782 58.6121 63.0994 58.4073 63.1012C58.2024 63.103 58.0065 63.1851 57.8616 63.33C57.7168 63.4748 57.6346 63.6708 57.6328 63.8756C57.6311 64.0805 57.7098 64.2778 57.8521 64.4252L61.1662 67.74C61.3127 67.8865 61.5114 67.9687 61.7185 67.9687C61.9257 67.9687 62.1244 67.8865 62.2709 67.74L68.8998 61.1111C69.0421 60.9638 69.1208 60.7664 69.1191 60.5616C69.1173 60.3567 69.0351 60.1608 68.8903 60.0159C68.7454 59.8711 68.5495 59.7889 68.3446 59.7871C68.1398 59.7854 67.9424 59.8641 67.7951 60.0064Z" fill="url(#paint11_radial_506_12915)"/>
<defs>
<radialGradient id="paint0_radial_506_12915" cx="0" cy="0" r="1" gradientUnits="userSpaceOnUse" gradientTransform="translate(49.9405 48.4042) scale(24.9561 20.6382)">
<stop stop-color="#D81719"/>
<stop offset="0.3693" stop-color="#D41719"/>
<stop offset="0.7512" stop-color="#C7181A"/>
<stop offset="1" stop-color="#BA181B"/>
</radialGradient>
<radialGradient id="paint1_radial_506_12915" cx="0" cy="0" r="1" gradientUnits="userSpaceOnUse" gradientTransform="translate(45.3046 48.824) scale(3.32748 2.57978)">
<stop stop-color="#D81719"/>
<stop offset="0.3693" stop-color="#D41719"/>
<stop offset="0.7512" stop-color="#C7181A"/>
<stop offset="1" stop-color="#BA181B"/>
</radialGradient>
<radialGradient id="paint2_radial_506_12915" cx="0" cy="0" r="1" gradientUnits="userSpaceOnUse" gradientTransform="translate(35.9296 48.824) scale(3.32748 2.57978)">
<stop stop-color="#D81719"/>
<stop offset="0.3693" stop-color="#D41719"/>
<stop offset="0.7512" stop-color="#C7181A"/>
<stop offset="1" stop-color="#BA181B"/>
</radialGradient>
<radialGradient id="paint3_radial_506_12915" cx="0" cy="0" r="1" gradientUnits="userSpaceOnUse" gradientTransform="translate(64.0546 48.824) scale(3.32748 2.57978)">
<stop stop-color="#D81719"/>
<stop offset="0.3693" stop-color="#D41719"/>
<stop offset="0.7512" stop-color="#C7181A"/>
<stop offset="1" stop-color="#BA181B"/>
</radialGradient>
<radialGradient id="paint4_radial_506_12915" cx="0" cy="0" r="1" gradientUnits="userSpaceOnUse" gradientTransform="translate(45.3046 55.8552) scale(3.32748 2.57978)">
<stop stop-color="#D81719"/>
<stop offset="0.3693" stop-color="#D41719"/>
<stop offset="0.7512" stop-color="#C7181A"/>
<stop offset="1" stop-color="#BA181B"/>
</radialGradient>
<radialGradient id="paint5_radial_506_12915" cx="0" cy="0" r="1" gradientUnits="userSpaceOnUse" gradientTransform="translate(35.9296 55.8552) scale(3.32748 2.57978)">
<stop stop-color="#D81719"/>
<stop offset="0.3693" stop-color="#D41719"/>
<stop offset="0.7512" stop-color="#C7181A"/>
<stop offset="1" stop-color="#BA181B"/>
</radialGradient>
<radialGradient id="paint6_radial_506_12915" cx="0" cy="0" r="1" gradientUnits="userSpaceOnUse" gradientTransform="translate(45.3046 62.8865) scale(3.32748 2.57978)">
<stop stop-color="#D81719"/>
<stop offset="0.3693" stop-color="#D41719"/>
<stop offset="0.7512" stop-color="#C7181A"/>
<stop offset="1" stop-color="#BA181B"/>
</radialGradient>
<radialGradient id="paint7_radial_506_12915" cx="0" cy="0" r="1" gradientUnits="userSpaceOnUse" gradientTransform="translate(54.6796 48.824) scale(3.32748 2.57978)">
<stop stop-color="#D81719"/>
<stop offset="0.3693" stop-color="#D41719"/>
<stop offset="0.7512" stop-color="#C7181A"/>
<stop offset="1" stop-color="#BA181B"/>
</radialGradient>
<radialGradient id="paint8_radial_506_12915" cx="0" cy="0" r="1" gradientUnits="userSpaceOnUse" gradientTransform="translate(54.2899 55.8552) scale(2.91155 2.57978)">
<stop stop-color="#D81719"/>
<stop offset="0.3693" stop-color="#D41719"/>
<stop offset="0.7512" stop-color="#C7181A"/>
<stop offset="1" stop-color="#BA181B"/>
</radialGradient>
<radialGradient id="paint9_radial_506_12915" cx="0" cy="0" r="1" gradientUnits="userSpaceOnUse" gradientTransform="translate(35.9296 62.8865) scale(3.32748 2.57978)">
<stop stop-color="#D81719"/>
<stop offset="0.3693" stop-color="#D41719"/>
<stop offset="0.7512" stop-color="#C7181A"/>
<stop offset="1" stop-color="#BA181B"/>
</radialGradient>
<radialGradient id="paint10_radial_506_12915" cx="0" cy="0" r="1" gradientUnits="userSpaceOnUse" gradientTransform="translate(63.2555 63.2658) scale(10.8143 9.58203)">
<stop stop-color="#D81719"/>
<stop offset="0.3693" stop-color="#D41719"/>
<stop offset="0.7512" stop-color="#C7181A"/>
<stop offset="1" stop-color="#BA181B"/>
</radialGradient>
<radialGradient id="paint11_radial_506_12915" cx="0" cy="0" r="1" gradientUnits="userSpaceOnUse" gradientTransform="translate(63.3614 63.8717) scale(6.11525 3.85953)">
<stop stop-color="#D81719"/>
<stop offset="0.3693" stop-color="#D41719"/>
<stop offset="0.7512" stop-color="#C7181A"/>
<stop offset="1" stop-color="#BA181B"/>
</radialGradient>
</defs>
</svg>
