<svg width="30" height="30" viewBox="0 0 30 30" fill="none" xmlns="http://www.w3.org/2000/svg">
<path d="M2.59499 28.7834C2.53161 28.7834 2.46909 28.7686 2.41248 28.7401C2.35586 28.7116 2.30671 28.6702 2.26899 28.6193C2.23126 28.5684 2.206 28.5093 2.19524 28.4468C2.18448 28.3844 2.18851 28.3202 2.20702 28.2596L4.22675 21.6329C2.73432 19.4681 1.93869 16.8992 1.94634 14.2699C1.94634 11.688 2.71195 9.16416 4.14635 7.01744C5.58075 4.87071 7.61951 3.19754 10.0048 2.20951C12.3901 1.22148 15.0149 0.962963 17.5471 1.46666C20.0794 1.97035 22.4054 3.21363 24.231 5.03927C26.0567 6.86491 27.2999 9.19092 27.8036 11.7232C28.3073 14.2554 28.0488 16.8801 27.0608 19.2655C26.0727 21.6508 24.3996 23.6895 22.2528 25.1239C20.1061 26.5583 17.5822 27.3239 15.0004 27.3239C13.5042 27.327 12.0187 27.0703 10.6103 26.5654L2.70486 28.7684C2.66912 28.7785 2.63214 28.7836 2.59499 28.7834ZM15.0004 2.02664C11.7544 2.03039 8.64251 3.32151 6.34727 5.61675C4.05203 7.91199 2.76091 11.0239 2.75715 14.2699C2.74959 16.7991 3.53491 19.267 5.0027 21.3268C5.03879 21.3773 5.0628 21.4355 5.07285 21.4968C5.0829 21.5581 5.07873 21.6209 5.06067 21.6803L3.19864 27.7889L10.5182 25.7497C10.6005 25.7261 10.6883 25.7297 10.7684 25.7599C12.1228 26.2613 13.5561 26.5164 15.0004 26.5131C18.2475 26.5131 21.3616 25.2232 23.6577 22.9272C25.9537 20.6311 27.2436 17.517 27.2436 14.2699C27.2436 11.0228 25.9537 7.90865 23.6577 5.6126C21.3616 3.31655 18.2475 2.02664 15.0004 2.02664Z" fill="#D51218"/>
<path d="M15.0004 18.5243C14.8929 18.5243 14.7897 18.4816 14.7137 18.4055C14.6377 18.3295 14.595 18.2264 14.595 18.1189V17.9048C14.6064 17.0189 14.8245 16.1479 15.2319 15.3611C15.6392 14.5743 16.2246 13.8935 16.9415 13.3728C17.4816 12.9635 17.8822 12.3975 18.0887 11.752C18.2951 11.1066 18.2974 10.4131 18.0952 9.76633C17.8929 9.11954 17.496 8.55092 16.9586 8.13808C16.4212 7.72523 15.7695 7.48828 15.0924 7.45957C14.6606 7.44273 14.23 7.51524 13.8276 7.67254C13.4251 7.82985 13.0595 8.06858 12.7536 8.37376C12.4363 8.68108 12.1844 9.04945 12.0131 9.45668C11.8419 9.86391 11.7548 10.3016 11.7571 10.7433C11.7571 10.8509 11.7144 10.954 11.6384 11.03C11.5624 11.106 11.4593 11.1488 11.3517 11.1488C11.2442 11.1488 11.1411 11.106 11.0651 11.03C10.989 10.954 10.9463 10.8509 10.9463 10.7433C10.9439 10.1935 11.0527 9.64884 11.2661 9.14208C11.4795 8.63533 11.7931 8.17693 12.1881 7.79443C12.5739 7.41683 13.032 7.12096 13.5349 6.92452C14.0377 6.72809 14.5751 6.63512 15.1147 6.65119C15.9592 6.68477 16.7728 6.97833 17.4442 7.49175C18.1156 8.00517 18.612 8.71339 18.8657 9.51963C19.1193 10.3259 19.1178 11.1908 18.8614 11.9961C18.6049 12.8014 18.106 13.5079 17.4328 14.019C16.8159 14.4644 16.3114 15.0475 15.9595 15.7221C15.6077 16.3967 15.418 17.1441 15.4058 17.9048V18.1189C15.4058 18.2264 15.3631 18.3295 15.287 18.4055C15.211 18.4816 15.1079 18.5243 15.0004 18.5243Z" fill="#D51218"/>
<path d="M15.0001 21.892C14.8926 21.892 14.7895 21.8493 14.7135 21.7732C14.6374 21.6972 14.5947 21.5941 14.5947 21.4866V20.5245C14.5947 20.417 14.6374 20.3139 14.7135 20.2379C14.7895 20.1619 14.8926 20.1191 15.0001 20.1191C15.1077 20.1191 15.2108 20.1619 15.2868 20.2379C15.3628 20.3139 15.4055 20.417 15.4055 20.5245V21.4866C15.4055 21.5941 15.3628 21.6972 15.2868 21.7732C15.2108 21.8493 15.1077 21.892 15.0001 21.892Z" fill="#D51218"/>
</svg>
